STARTFONT 2.1
COMMENT
COMMENT Converted from OpenType font "RuthlessSketch_Italic.ttf" by "otf2bdf 3.0".
COMMENT
FONT -FreeType-Ruthless Sketch-Medium-I-Normal--66-480-100-100-P-358-ISO10646-1
SIZE 48 100 100
FONTBOUNDINGBOX 87 74 -30 -13
STARTPROPERTIES 19
FOUNDRY "FreeType"
FAMILY_NAME "Ruthless Sketch"
WEIGHT_NAME "Medium"
SLANT "I"
SETWIDTH_NAME "Normal"
ADD_STYLE_NAME ""
PIXEL_SIZE 66
POINT_SIZE 480
RESOLUTION_X 100
RESOLUTION_Y 100
SPACING "P"
AVERAGE_WIDTH 358
CHARSET_REGISTRY "ISO10646"
CHARSET_ENCODING "1"
FONT_ASCENT 62
FONT_DESCENT 13
COPYRIGHT "© 2024 GGBotNet. All Rights Reserved."
_OTF_FONTFILE "RuthlessSketch_Italic.ttf"
_OTF_PSNAME "RuthlessSketch-Italic"
ENDPROPERTIES
CHARS 1105
STARTCHAR 0020
ENCODING 32
SWIDTH 300 0
DWIDTH 20 0
BBX 0 0 0 0
BITMAP
ENDCHAR
STARTCHAR 0021
ENCODING 33
SWIDTH 285 0
DWIDTH 19 0
BBX 24 50 5 -1
BITMAP
00FFFF
03FFFF
03FFFE
03FFFE
03FFFC
07FFFC
07FFF8
07FFF8
07FFF8
07FFF0
07FFF0
07FFE0
07FFE0
07FFE0
07FFC0
0FFFC0
0FFFC0
0FFF80
0FFF80
0FFF80
0FFF00
0FFF00
0FFF00
0FFE00
0FFE00
0FFE00
0FFE00
0FFC00
0FFC00
1FFC00
1FF800
1FF800
0FE000
020000
000000
000000
000000
004000
0FE000
3FF000
7FF000
7FF000
FFF000
FFF000
FFF000
FFF000
FFE000
7FE000
7FC000
1E0000
ENDCHAR
STARTCHAR 0022
ENCODING 34
SWIDTH 390 0
DWIDTH 26 0
BBX 26 24 9 25
BITMAP
1FE07F80
1FF07FC0
3FF0FFC0
3FE0FFC0
3FE1FFC0
7FE1FF80
7FE1FF80
7FC1FF80
FFC1FF00
FFC1FF00
FFC1FF00
FF81FE00
FF81FE00
FF81FE00
FF01FC00
FF01FC00
FE01F800
7E01F800
7C01F000
7C01F000
7801F000
7801E000
7801E000
7001C000
ENDCHAR
STARTCHAR 0023
ENCODING 35
SWIDTH 510 0
DWIDTH 34 0
BBX 40 47 2 0
BITMAP
0000000008
00000FE019
00000FE03F
00001FE03F
00001FE07E
00003FC0FE
00003FC0FC
00007F81FC
00007F81F8
0000FF03F8
0000FF03F0
0000FF07F0
003FFFFFFE
01FFFFFFFC
03FFFFFFFC
03FFFFFFFC
03FFFFFFFC
03FFFFFFFC
03FFFFFFFC
07FFFFFFF8
07FFFFFF00
001FE0FE00
001FC0FE00
003FC1FC00
003F83FC00
003F83FFC0
0F7FFFFFF0
1FFFFFFFE0
1FFFFFFFE0
1FFFFFFFE0
1FFFFFFFE0
1FFFFFFFC0
3FFFFFFFC0
3FFFFFFFC0
3FFFFF8000
07E07F8000
07E07F8000
0FC0FF0000
0FC0FF0000
1F81FE0000
1F81FE0000
3F03FC0000
3F03FC0000
7E03F80000
7C07F80000
DC07F00000
0800000000
ENDCHAR
STARTCHAR 0024
ENCODING 36
SWIDTH 495 0
DWIDTH 33 0
BBX 39 61 2 -7
BITMAP
000003FC00
000007FC00
000007FC00
000007FC00
000007FC00
000007F800
00000FF800
00000FF800
00000FFF00
00003FFFC0
0000FFFFE0
0001FFFFF8
000FFFFFFC
001FFFFFFC
003FFFFFFE
007FFFFFFE
007FFFFFFE
007FFFFFFC
00FFFFFFFC
00FFFFF3FC
00FFFFC1F8
01FFFFC060
01FFFFC000
00FFFFC000
00FFFFC000
00FFFF8000
00FFFF8000
00FFFFE000
007FFFFC00
007FFFFC00
000FFFFE00
0003FFFE00
0001FFFF00
0003FFFF00
0003FFFF00
0003FFFF00
0003FFFF00
0603FFFF00
07FFFFFF00
0FFFFFFF00
0FFFFFFE00
1FFFFFFE00
1FFFFFFC00
3FFFFFF800
3FFFFFF800
3FFFFFF000
7FFFFFE000
7FFFFFE000
7FFFFFC000
FFFFFFC000
FFFFFF8000
FFFFFE0000
3FFFF00000
003FF00000
003FE00000
003FE00000
003FE00000
007FC00000
007FC00000
007FC00000
007F800000
ENDCHAR
STARTCHAR 0025
ENCODING 37
SWIDTH 555 0
DWIDTH 37 0
BBX 39 45 4 2
BITMAP
0000000078
00070000FE
001FC001FE
003FE001FC
007FE003FC
00FFF007F8
01FFF80FF0
03F1F80FF0
07E1F81FE0
07C1F83FC0
07C1F83F80
0FC1F07F80
0FC1F0FF00
0FC3F1FE00
0FC3E3FC00
0FC7E3FC00
0FFFC7F800
07FF8FF000
07FF1FE000
03FE3FC000
00F83FC000
00007F8000
0000FF0000
0001FE3F00
0003FC7F80
0003F8FFC0
0007F9FFE0
000FF3FFE0
001FE7E3F0
003FC7C3F0
003F8FC1F0
007F8F81F0
00FF0F83F0
01FE1F83E0
03FC1F83E0
03F81F87E0
07F01F8FC0
0FF00FFFC0
1FE00FFF80
3FC00FFF00
7F8007FE00
7F0003F800
FE00000000
FC00000000
7800000000
ENDCHAR
STARTCHAR 0026
ENCODING 38
SWIDTH 510 0
DWIDTH 34 0
BBX 34 45 4 1
BITMAP
0000FC0000
0007FF0000
001FFF8000
003FFFC000
007FFFC000
00FFFFC000
00FFFFC000
01FF3FC000
01FE1FC000
01FC1FC000
01FC3F8000
01FC3F8000
01FEFF0000
01FFFF0000
00FFFE0000
00FFFC0000
00FFF80000
00FFF83FC0
01FFFC3F80
03FFFC3F80
07FFFE7F80
0FFFFE7F00
0FFFFF7F00
1FFBFFFE00
1FF1FFFE00
3FE0FFFC00
3FE0FFFC00
7FC07FFC00
7FC03FF800
7FC03FF800
FFC01FF800
FFC00FF800
FFC01FFC00
FFC03FFE00
FFFFFFFE00
FFFFFFFE00
FFFFFFFE00
FFFFFFFE00
FFFFFF7E00
7FFFFF7C00
3FFFFE3C00
1FFFFC3C00
0FFFF01C00
01FFC00800
003C000800
ENDCHAR
STARTCHAR 0027
ENCODING 39
SWIDTH 210 0
DWIDTH 14 0
BBX 13 25 9 24
BITMAP
0180
1FF8
3FF8
3FF8
7FF8
7FF8
7FF8
7FF8
7FF8
FFF8
FFF0
FFF0
FFE0
FFE0
FFC0
FFC0
FF80
7F80
7F00
7F00
7E00
7E00
7C00
7C00
7800
ENDCHAR
STARTCHAR 0028
ENCODING 40
SWIDTH 345 0
DWIDTH 23 0
BBX 29 64 4 -10
BITMAP
00000300
00000780
00000FE0
00001FF0
00003FF8
00007FF0
0000FFC0
0001FFC0
0003FF80
0007FE00
000FFC00
001FF000
003FE000
003FE000
007FC000
00FF8000
01FF8000
01FF0000
03FE0000
03FC0000
07F80000
07F80000
0FF00000
0FF00000
1FF00000
1FF00000
1FE00000
1FE00000
1FE00000
3FE00000
3FE00000
3FE00000
3FC00000
3FC00000
7FC00000
7FC00000
7FC00000
7FC00000
FF800000
FF800000
FF800000
FF800000
7F800000
7F800000
7F800000
7F800000
7F800000
7FC00000
3FE00000
3FE00000
3FE00000
1FE00000
1FF00000
1FF00000
0FF80000
0FFC0000
07FE0000
07FF0000
03FF8000
01FF8000
01FF0000
00F80000
00700000
00400000
ENDCHAR
STARTCHAR 0029
ENCODING 41
SWIDTH 345 0
DWIDTH 23 0
BBX 28 64 0 -10
BITMAP
00003000
0000F000
0001F800
000FFC00
000FFC00
000FFE00
0007FF00
0003FF00
0001FF80
0000FF80
00007F80
00003FC0
00003FC0
00003FC0
00003FE0
00003FE0
00001FE0
00000FE0
00000FF0
00000FF0
00000FF0
00000FF0
00000FF0
00000FF0
00000FF0
00000FF0
00001FF0
00001FE0
00001FE0
00001FE0
00001FE0
00003FE0
00003FE0
00003FE0
00003FC0
00003FC0
00003FC0
00003FC0
00007F80
00007F80
00007F80
0000FF00
0000FF00
0001FE00
0001FE00
0003FC00
0007FC00
000FF800
001FF000
001FF000
003FE000
007FC000
00FF8000
01FF0000
07FE0000
0FFC0000
1FF80000
3FF80000
7FF00000
FFE00000
7FC00000
1F800000
0F000000
02000000
ENDCHAR
STARTCHAR 002A
ENCODING 42
SWIDTH 315 0
DWIDTH 21 0
BBX 21 20 9 29
BITMAP
003C00
003C00
003800
0C3860
3E79F0
7F7BF8
1FFFE0
0FFF80
07FF00
03FC00
03FC00
07FE00
1FFF00
7FFF80
FDEFC0
F9E7C0
61C100
03C000
03C000
03C000
ENDCHAR
STARTCHAR 002B
ENCODING 43
SWIDTH 465 0
DWIDTH 31 0
BBX 32 29 5 9
BITMAP
0003FF00
0003FF00
0003FE00
0003FE00
0003FE00
0003FE00
0007FE00
0007FC00
0007FC00
010FFC00
3FFFFFFF
3FFFFFFE
3FFFFFFE
3FFFFFFE
7FFFFFFE
7FFFFFFE
7FFFFFFC
FFFFFFFC
FFFFFFFC
083FF000
003FF000
003FE000
003FE000
003FE000
007FE000
007FC000
007FC000
007FC000
00FFC000
ENDCHAR
STARTCHAR 002C
ENCODING 44
SWIDTH 210 0
DWIDTH 14 0
BBX 17 23 -3 -11
BITMAP
001E00
007F00
01FF80
01FF80
03FF80
03FF80
03FF80
03FF80
03FF80
03FF00
03FE00
01FC00
01F800
03F800
0FF000
3FE000
FFE000
FFC000
7F8000
3F8000
3F0000
1E0000
0C0000
ENDCHAR
STARTCHAR 002D
ENCODING 45
SWIDTH 390 0
DWIDTH 26 0
BBX 26 11 5 18
BITMAP
03BF3E00
3FFFFFC0
3FFFFF80
3FFFFF80
7FFFFF80
7FFFFF80
7FFFFF80
7FFFFF00
FFFFFF00
FFFFFF00
00001C00
ENDCHAR
STARTCHAR 002E
ENCODING 46
SWIDTH 210 0
DWIDTH 14 0
BBX 13 12 2 0
BITMAP
0380
0FE0
1FF8
3FF8
7FF8
7FF8
FFF0
FFF0
FFF0
FFE0
7FC0
3F80
ENDCHAR
STARTCHAR 002F
ENCODING 47
SWIDTH 450 0
DWIDTH 30 0
BBX 38 54 1 -4
BITMAP
0000000100
0000000384
00000007FC
00000007FC
0000000FF8
0000001FF8
0000003FF0
0000003FF0
0000007FE0
000000FFC0
000000FFC0
000001FF80
000003FF80
000003FF00
000007FE00
000007FE00
00000FFC00
00001FFC00
00001FF800
00003FF800
00007FF000
00007FF000
0000FFE000
0000FFC000
0001FFC000
0003FF8000
0003FF8000
0007FF0000
000FFF0000
000FFE0000
001FFE0000
003FFC0000
003FFC0000
007FF80000
007FF80000
00FFF00000
01FFF00000
01FFE00000
03FFE00000
03FFC00000
07FFC00000
07FF800000
0FFF800000
1FFF000000
1FFF000000
3FFE000000
3FFE000000
7FFC000000
7FF8000000
7FF8000000
FFF0000000
FFF0000000
FFE0000000
8060000000
ENDCHAR
STARTCHAR 0030
ENCODING 48
SWIDTH 390 0
DWIDTH 26 0
BBX 26 47 5 0
BITMAP
0001C000
0007E000
001FF000
003FF800
007FF800
00FFFC00
01FFFE00
01FFFE00
03FFFF80
03FFFF80
03FFFF80
03FFFFC0
07FFFFC0
07FFFFC0
0FFFFFC0
0FFE7FC0
1FF87FC0
1FF87FC0
3FF07FC0
3FF03FC0
3FF03FC0
3FE03FC0
7FE07FC0
7FE07F80
7FE07F80
7FE07F80
FFE0FF80
FFE0FF80
FFE1FF00
FFF3FF00
FFFFFF00
7FFFFE00
7FFFFE00
7FFFFE00
7FFFFC00
7FFFFC00
7FFFF800
3FFFF800
3FFFF800
3FFFF000
3FFFF000
1FFFE000
1FFFC000
0FFFC000
07FF8000
03FF0000
00FC0000
ENDCHAR
STARTCHAR 0031
ENCODING 49
SWIDTH 420 0
DWIDTH 28 0
BBX 24 44 9 2
BITMAP
000060
0003F8
0007FE
001FFE
007FFF
01FFFF
03FFFE
0FFFFE
3FFFFE
7FFFFE
FFFFFE
FFDFFC
7FDFFC
3FBFFC
1F3FFC
1F3FFC
0E7FFC
047FF8
007FF8
00FFF8
00FFF8
00FFF8
01FFF0
01FFF0
03FFF0
03FFF0
03FFF0
07FFF0
07FFF0
07FFF0
0FFFE0
0FFFE0
0FFFE0
1FFFE0
1FFFE0
1FFFE0
3FFFE0
3FFFE0
3FFFE0
7FFFE0
7FFFE0
7FFFE0
3FFFE0
00FFC0
ENDCHAR
STARTCHAR 0032
ENCODING 50
SWIDTH 510 0
DWIDTH 34 0
BBX 33 45 4 1
BITMAP
0000FC0000
0003FF0000
000FFFC000
001FFFF000
003FFFF800
007FFFFC00
01FFFFFC00
03FFFFFC00
07FFFFFC00
07FFFFFC00
07FFFFF800
03FF3FF800
01FC0FF800
01F00FF800
00E00FF800
00C01FF000
00001FF000
00003FE000
00003FE000
00007FC000
00007FC000
0000FF8000
0001FF0000
0001FF0000
0003FE0000
0007FC0000
0007F80180
000FFFFF80
001FFFFF80
003FFFFF00
003FFFFF00
007FFFFE00
00FFFFFE00
01FFFFFE00
03FFFFFC00
03FFFFFC00
07FFFFF800
0FFFFFF800
3FFFFFF000
FFFFFFF000
FFFFFFF000
FFFFFFC000
7FFFFE0000
1FFFE00000
01FF000000
ENDCHAR
STARTCHAR 0033
ENCODING 51
SWIDTH 465 0
DWIDTH 31 0
BBX 31 45 3 0
BITMAP
0003FFC0
001FFFC0
007FFFE0
007FFFE0
00FFFFC0
00FFFFC0
007FFF80
003E7F80
00007F00
0000FF00
0001FE00
0003FE00
0007FC00
000FF800
001FF800
003FFF80
003FFFE0
007FFFF0
00FFFFF8
01FFFFFC
01FFFFFC
01FFFFFC
00FFFFFC
00101FFC
000007FE
000003FE
000003FE
000001FE
000001FE
000003FE
000003FE
000003FC
000007FC
00000FFC
40003FF8
FC00FFF8
FFFFFFF0
FFFFFFE0
FFFFFFC0
7FFFFF80
3FFFFF00
1FFFFE00
07FFF800
01FFE000
003F8000
ENDCHAR
STARTCHAR 0034
ENCODING 52
SWIDTH 435 0
DWIDTH 29 0
BBX 29 46 5 -1
BITMAP
0003FC00
000FF800
001FF800
001FF000
001FF000
003FE000
003FE000
007FC000
007FC000
00FF8000
00FF8000
01FF8000
01FF0000
03FF0000
03FE0000
07FE0000
07FC07F8
0FFFFFF8
0FFFFFF8
0FFFFFF8
1FFFFFF8
1FFFFFF0
3FFFFFF0
3FFFFFF0
7FFFFFF0
7FFFFF80
FFFFFC00
F807F000
000FF000
000FF000
001FF000
001FF000
003FF000
003FE000
007FE000
00FFE000
00FFE000
01FFE000
01FFE000
03FFE000
03FFE000
07FFE000
07FFE000
0FFFE000
0FFFC000
0C000000
ENDCHAR
STARTCHAR 0035
ENCODING 53
SWIDTH 480 0
DWIDTH 32 0
BBX 35 46 3 0
BITMAP
0000004FE0
0001FFFFE0
0003FFFFE0
0007FFFFE0
0007FFFFC0
0007FFFFC0
0007FFFF00
000FFFF800
000FFC0000
000FF80000
001FF80000
001FF80000
001FF80000
003FFF0000
003FFFC000
007FFFE000
007FFFF000
00FFFFF000
00FFFFF800
01FFFFFC00
03FFFFFC00
03807FFC00
00003FFE00
00003FFE00
00001FFF00
00001FFF00
00000FFF00
00000FFF00
00000FFF00
00000FFF00
00000FFF00
00000FFE00
00000FFE00
60001FFE00
E0003FFC00
F0007FFC00
FC00FFF800
FF81FFF800
FFFFFFF000
FFFFFFE000
FFFFFFC000
FFFFFF8000
3FFFFF0000
0FFFFE0000
03FFFC0000
007FF00000
ENDCHAR
STARTCHAR 0036
ENCODING 54
SWIDTH 495 0
DWIDTH 33 0
BBX 33 48 5 -2
BITMAP
000000F800
000007FC00
00001FFE00
00007FFF00
0000FFFF80
0003FFFF80
0007FFFF80
000FFFFF00
003FFFFC00
007FF00000
00FFC00000
01FF800000
01FF000000
03FE000000
07FE000000
0FFE000000
0FFE000000
1FFF600000
1FFFFE0000
3FFFFF8000
3FFFFFC000
3FFFFFE000
7FFFFFF000
7FFFFFF000
7FFFFFF800
FFFFFFFC00
FFF83FFC00
FFF01FFC00
FFE00FFC00
FFE00FFC00
FFC00FFC00
FFC00FFC00
FFC00FFC00
FF801FFC00
FF801FFC00
FF801FF800
FF803FF800
FFC07FF000
FFC0FFF000
FFE1FFE000
FFFFFFC000
7FFFFF8000
7FFFFF0000
3FFFFE0000
1FFFFC0000
07FFF00000
03FFC00000
0078000000
ENDCHAR
STARTCHAR 0037
ENCODING 55
SWIDTH 420 0
DWIDTH 28 0
BBX 34 44 2 1
BITMAP
0002FFFFC0
007FFFFFC0
00FFFFFFC0
00FFFFFFC0
00FFFFFF80
00FFFFFF80
00FFFFFF80
01FFFFFF00
01FFFFFF00
01FFFFFF00
01FFFFFE00
03F80FFE00
038007FE00
03000FFE00
00001FFE00
00003FFC00
00003FFC00
00007FF800
0000FFF800
0001FFF000
0001FFF000
0003FFE000
0007FFE000
0007FFC000
000FFFC000
001FFF8000
003FFF8000
007FFF0000
007FFF0000
00FFFE0000
01FFFE0000
03FFFC0000
03FFFC0000
07FFF80000
0FFFF80000
0FFFF00000
1FFFF00000
3FFFF00000
3FFFE00000
7FFFE00000
7FFFE00000
FFF8000000
FE00000000
8000000000
ENDCHAR
STARTCHAR 0038
ENCODING 56
SWIDTH 495 0
DWIDTH 33 0
BBX 32 47 4 0
BITMAP
00000FC0
0000FFF0
0003FFF8
0007FFFC
000FFFFC
001FFFFC
003FFFFC
003FFFFC
003FE1FC
007FC1FC
007FC3FC
007FC3F8
007FC7F0
003FFFF0
001FFFE0
003FFFC0
007FFFC0
007FFFE0
00FFFFE0
01FFFFF0
03FFFFF8
03FFFFF8
07FFFFFC
0FFFFFFC
0FFE7FFC
1FFC1FFE
1FF80FFE
3FF007FE
3FF007FF
7FF007FF
7FE007FE
FFF007FE
FFF007FE
FFF007FE
FFF80FFE
FFFC3FFE
FFFFFFFE
FFFFFFFC
7FFFFFF8
7FFFFFF0
7FFFFFF0
3FFFFFE0
1FFFFFC0
0FFFFF80
03FFFE00
00FFF800
001FC000
ENDCHAR
STARTCHAR 0039
ENCODING 57
SWIDTH 465 0
DWIDTH 31 0
BBX 32 44 5 1
BITMAP
0003FF00
003FFFE0
00FFFFF8
01FFFFFC
03FFFFFE
03FFFFFE
03FFFFFF
07FFFFFF
07FC0FFF
0FFC07FF
0FF803FF
0FF803FF
1FF807FE
1FF807FE
1FF007FE
3FF007FE
3FF80FFE
3FF83FFE
3FFFFFFE
3FFFFFFC
1FFFFFFC
1FFFFFFC
0FFFFFFC
07FFFFF8
01FFFFF8
0000FFF8
00001FF0
00001FF0
00001FF0
00001FF0
00003FE0
40003FE0
F0007FE0
FC01FFE0
FF07FFC0
FFFFFFC0
FFFFFF80
FFFFFF80
FFFFFF00
FFFFFE00
FFFFFE00
7FFFFC00
3FFFF800
07FFE000
ENDCHAR
STARTCHAR 003A
ENCODING 58
SWIDTH 210 0
DWIDTH 14 0
BBX 17 33 2 0
BITMAP
003C00
00FE00
03FF00
03FF00
07FF80
07FF80
07FF80
07FF80
07FF00
07FE00
07FC00
03F000
000000
000000
000000
000000
000000
000000
000000
000000
000000
01C000
0FE000
3FF000
7FF000
7FF800
FFF000
FFF000
FFF000
FFF000
7FE000
7FE000
3F8000
ENDCHAR
STARTCHAR 003B
ENCODING 59
SWIDTH 210 0
DWIDTH 14 0
BBX 22 44 -3 -11
BITMAP
0001E0
0007F8
000FFC
001FFC
001FFC
003FFC
003FFC
007FF8
007FF8
003FF0
001FE0
000FC0
000000
000000
000000
000000
000000
000000
000000
000000
000000
001E00
007F00
01FF80
01FF80
03FF80
03FF80
03FF80
03FF80
03FF80
03FF00
03FE00
01FC00
01F800
03F800
0FF000
3FE000
FFE000
FFC000
7F8000
3F8000
3F0000
1E0000
0C0000
ENDCHAR
STARTCHAR 003C
ENCODING 60
SWIDTH 465 0
DWIDTH 31 0
BBX 33 37 6 5
BITMAP
0000000100
0000000780
0000001F80
0000007F80
000003FF80
00000FFF80
00003FFF00
0000FFFF00
0003FFFF00
000FFFFF00
007FFFFE00
01FFFFFE00
07FFFFFE00
7FFFFFFC00
7FFFFFF000
7FFFFC0000
FFFFC00000
FFFC000000
FFF0000000
FFFE000000
FFFFC00000
FFFFFC0000
3FFFFF8000
1FFFFFE000
0FFFFFF000
07FFFFE000
03FFFFE000
00FFFFE000
007FFFE000
003FFFE000
001FFFC000
0007FFC000
0003FFC000
0000FFC000
00007FC000
00001FC000
000003C000
ENDCHAR
STARTCHAR 003D
ENCODING 61
SWIDTH 480 0
DWIDTH 32 0
BBX 34 24 4 11
BITMAP
03FFFFFFC0
07FFFFFFC0
0FFFFFFFC0
0FFFFFFFC0
0FFFFFFFC0
0FFFFFFF80
0FFFFFFF80
1FFFFFFF80
1FFFFFC000
0200000000
0000000000
0000000000
0000000000
0000001000
000FFFFE00
7FFFFFFE00
7FFFFFFE00
7FFFFFFE00
7FFFFFFC00
7FFFFFFC00
FFFFFFFC00
FFFFFFFC00
FFFFFFF800
07F8000000
ENDCHAR
STARTCHAR 003E
ENCODING 62
SWIDTH 465 0
DWIDTH 31 0
BBX 33 37 3 4
BITMAP
0180000000
01F8000000
01FE000000
01FF800000
01FFC00000
01FFE00000
03FFF80000
03FFFC0000
03FFFE0000
03FFFF8000
03FFFFC000
07FFFFE000
07FFFFF000
07FFFFF800
01FFFFFE00
003FFFFF00
0007FFFF80
0000FFFF80
00001FFF80
00000FFF80
00007FFF00
0007FFFF00
00FFFFFF00
1FFFFFFE00
3FFFFFFC00
3FFFFFE000
3FFFFF8000
7FFFFC0000
7FFFF00000
7FFFC00000
FFFE000000
FFF8000000
FFE0000000
FF80000000
FE00000000
F800000000
E000000000
ENDCHAR
STARTCHAR 003F
ENCODING 63
SWIDTH 465 0
DWIDTH 31 0
BBX 29 49 9 -1
BITMAP
003F8000
01FFFF00
03FFFFE0
0FFFFFF0
1FFFFFF8
1FFFFFF8
3FFFFFF8
7FFFFFF8
7FFFFFF8
7FFFFFF8
FFF1FFF8
FF807FF8
7E007FF8
38007FF0
00007FF0
00007FF0
00007FE0
0000FFE0
0001FFE0
0003FFC0
001FFF80
01FFFF80
03FFFF00
07FFFE00
07FFF800
0FFFE000
0FFF8000
0FFF0000
1FFC0000
1FFC0000
1FF80000
1FF80000
1FF80000
06000000
00000000
00000000
00000000
00000000
0FC00000
3FE00000
7FE00000
FFF00000
FFF00000
FFF00000
FFE00000
FFE00000
7FC00000
3F000000
18000000
ENDCHAR
STARTCHAR 0040
ENCODING 64
SWIDTH 660 0
DWIDTH 44 0
BBX 45 58 4 -10
BITMAP
0000007FE000
00000FFFFC00
00003FFFFF00
0000FFFFFF80
0003FFFFFFC0
000FFFFFFFE0
001FFFFFFFE0
003FFFFFFFE0
003FFFFFFFF0
007FFFFFFFF0
00FFFFFFFFF0
01FFFFFFFFF0
01FFFFFFFFF0
03FFFC00FFF0
03FFF0007FF8
07FFC0007FF8
07FF8000FFF8
0FFF001FFFF8
0FFE007FFFF8
0FFC01FFFFF8
1FFC07FFFFF8
1FFC0FFFFFF8
1FF81FFFFFF8
3FF83FF03FF0
3FF83FE03FF0
3FF83FC03FF0
3FF07FC03FF0
7FF07F803FF0
7FF0FF803FE0
7FF0FF003FE0
7FF0FF007FE0
7FF0FF80FFC0
7FE0FF83FFC0
FFE0FFCFFF80
FFE0FFFFFF80
FFE0FFFFFF00
FFE07FFFFE00
FFE07FFFF800
FFE03FFFF000
FFE01FFF8000
FFE007FC0000
FFF000400000
FFF000000000
FFF000000000
FFF800078000
FFFC007FC000
FFFFFFFFE000
FFFFFFFFE000
FFFFFFFFF000
FFFFFFFFF000
7FFFFFFFE000
7FFFFFFFC000
3FFFFFFF0000
3FFFFFFE0000
1FFFFFF80000
07FFFFE00000
00FFFF800000
0007FC000000
ENDCHAR
STARTCHAR 0041
ENCODING 65
SWIDTH 630 0
DWIDTH 42 0
BBX 40 47 1 -2
BITMAP
00000003C0
0000001FC0
0000001FE0
0000003FE0
0000003FE0
0000007FE0
000000FFE0
000000FFE0
000001FFE0
000001FFE0
000003FFE0
000003FFE0
000007FFE0
00000FFFE0
00000FFFE0
00001FFFE0
00001FFFE0
00003FFFF0
00007FFFF0
00007FFFF0
0000FFFFF0
0001FFFFF0
0001FFFFF0
0003FFFFF0
0007F9FFF0
0007F0FFF0
000FE0FFF0
001FC0FFF0
001FC0FFF8
003F80FFF8
003F07FFF8
007FFFFFF8
00FFFFFFF8
00FFFFFFF8
01FFFFFFFC
03FFFFFFFC
03FFC1FFFC
07FF01FFFC
0FFE01FFFC
0FFE01FFFE
1FFC01FFFE
3FFC01FFFE
3FF801FFFF
7FF801FFFF
FFF800FFFF
FFE000E000
C000000000
ENDCHAR
STARTCHAR 0042
ENCODING 66
SWIDTH 510 0
DWIDTH 34 0
BBX 30 46 7 0
BITMAP
007F0000
01FFFE00
0FFFFF80
1FFFFFC0
1FFFFFE0
1FFFFFE0
1FFFFFE0
3FFFFFF0
3FFFFFF0
3FFFFFF0
3FFEFFF8
3FFC3FF0
3FF81FF0
3FF81FF0
1FF81FE0
1FF81FE0
3FF81FE0
3FF83FC0
3FFC7FC0
3FFFFF80
3FFFFE00
3FFFFC00
3FFFFF00
3FFFFFC0
7FFFFFE0
7FFFFFF0
7FFFFFF0
7FFEFFF8
7FFC1FF8
7FF81FFC
7FF81FFC
7FF81FFC
7FF83FFC
FFF87FF8
FFF8FFF8
FFF9FFF8
FFFFFFF0
FFFFFFE0
FFFFFFE0
FFFFFF80
FFFFFF00
FFFFFE00
FFFFFC00
FFFFE000
FFF80000
08000000
ENDCHAR
STARTCHAR 0043
ENCODING 67
SWIDTH 480 0
DWIDTH 32 0
BBX 35 44 5 1
BITMAP
00000FF800
00007FFE00
0003FFFF80
000FFFFFC0
003FFFFFE0
007FFFFFE0
00FFFFFFE0
01FFFFFFE0
03FFFFFFC0
03FFFFFFC0
07FFFFFFC0
0FFFFFFF80
0FFFFF8D00
1FFFF80000
1FFFE00000
3FFF800000
3FFF000000
3FFF000000
3FFE000000
3FFE000000
7FFE000000
7FFC000000
7FFE000000
7FFE000000
FFFF000C00
FFFF83FC00
FFFFFFFC00
FFFFFFFC00
FFFFFFFC00
FFFFFFF800
FFFFFFF800
FFFFFFF800
FFFFFFF800
7FFFFFF000
7FFFFFF000
7FFFFFF000
7FFFFFF000
3FFFFFE000
3FFFFFC000
3FFFFF8000
1FFFFF0000
1FFFFC0000
03FFF80000
003FC00000
ENDCHAR
STARTCHAR 0044
ENCODING 68
SWIDTH 450 0
DWIDTH 30 0
BBX 29 46 7 0
BITMAP
00F00000
03FF8000
0FFFF000
1FFFFC00
1FFFFF00
1FFFFF00
3FFFFF80
3FFFFFC0
3FFFFFC0
3FFFFFE0
3FFFFFE0
7FFFFFF0
7FFFFFF0
7FFC7FF0
7FF81FF0
7FF80FF8
7FF80FF8
7FF00FF8
7FF00FF8
7FF00FF0
FFF01FF0
FFF01FF0
FFF03FE0
FFF07FE0
FFF0FFC0
FFE1FFC0
FFE3FF80
FFF7FF00
FFFFFF00
FFFFFE00
FFFFFC00
FFFFF800
FFFFF800
FFFFF000
FFFFE000
FFFFC000
FFFF8000
FFFF0000
FFFE0000
FFFC0000
FFF80000
FFE00000
FF800000
FE000000
F0000000
C0000000
ENDCHAR
STARTCHAR 0045
ENCODING 69
SWIDTH 495 0
DWIDTH 33 0
BBX 27 47 8 0
BITMAP
000F0000
00FFFF80
07FFFFE0
1FFFFFC0
3FFFFFC0
3FFFFFC0
3FFFFF80
1FFFFF80
1FFFFF00
1FFFFF00
1FFFFE00
1FFFFE00
1FFFFE00
3FFFFE00
3FFFFC00
3FFC0000
3FF80000
3FF80000
3FF80000
3FFC3800
3FFFF800
3FFFF800
3FFFF000
3FFFF000
3FFFF000
3FFFF800
3FFF0000
3FF80000
3FF80000
3FF80380
3FFFFF80
3FFFFF80
7FFFFF80
3FFFFF80
3FFFFF80
3FFFFF80
7FFFFF80
7FFFFF80
7FFFFF80
7FFFFF80
7FFFFF80
7FFFFF80
FFFFFE00
FFFFE000
7FFE0000
7FC00000
78000000
ENDCHAR
STARTCHAR 0046
ENCODING 70
SWIDTH 495 0
DWIDTH 33 0
BBX 38 47 3 0
BITMAP
0000003FE0
00047FFFFC
001FFFFFFC
00FFFFFFFC
01FFFFFFFC
01FFFFFFFC
01FFFFFFFC
03FFFFFFFC
03FFFFFFFC
03FFFFFFFC
03FFFFF818
03FFF80000
07FFC00000
07FFC00000
07FF800000
07FF800000
07FF800000
0FFF860000
0FFFBF0000
0FFFFF0000
0FFFFE0000
0FFFFE0000
0FFFFE0000
1FFFFE0000
1FFFFC0000
1FFFFC0000
1FFFFC0000
3FFE0C0000
3FFC000000
3FFC000000
3FF8000000
7FF8000000
7FF8000000
7FF8000000
7FF0000000
7FF0000000
7FF0000000
FFF0000000
FFF0000000
FFF0000000
FFF0000000
FFF0000000
FFF0000000
FFF0000000
FFF0000000
FFF0000000
F800000000
ENDCHAR
STARTCHAR 0047
ENCODING 71
SWIDTH 495 0
DWIDTH 33 0
BBX 37 45 3 1
BITMAP
0000077000
00001FFF00
00003FFFC0
00007FFFE0
0000FFFFF0
0001FFFFF0
0003FFFFF0
0007FFFFF8
000FFFFFF0
001FFFFFE0
001FFF3FC0
003FF80900
007FE00000
007FC00000
00FF800000
00FF800000
01FF000000
01FE000000
03FE000000
03FC0007C0
07FC01FFE0
07FC0FFFC0
07F81FFFC0
0FF80FFFC0
0FF80FFFC0
1FF80FFFC0
1FF80FFF80
1FF80FFF80
3FF81FFF80
3FF81FFF80
3FF81FFF00
7FFE7FFF00
7FFFFFFF00
7FFFFFFF00
7FFFFFFE00
FFFFFFFE00
FFFFFFFE00
7FFFFFF800
7FFFFFF000
7FFFFFC000
3FFFFF0000
1FFFFC0000
1FFFF00000
0FFF800000
03FC000000
ENDCHAR
STARTCHAR 0048
ENCODING 72
SWIDTH 555 0
DWIDTH 37 0
BBX 43 44 2 1
BITMAP
00003FE00000
0003FFE00060
000FFFC07FE0
000FFF80FFE0
001FFF81FFE0
000FFFC1FFE0
000FFF81FFC0
000FFF83FFC0
001FFF83FFC0
001FFF03FFC0
001FFF07FF80
003FFF07FF80
003FFE07FF80
003FFE0FFF00
007FFE0FFF00
007FFE0FFF00
007FFE1FFF00
00FFFFFFFE00
00FFFFFFFE00
00FFFFFFFE00
01FFFFFFFC00
01FFFFFFFC00
01FFFFFFFC00
01FFFFFFF800
03FFFFFFFC00
03FFFFFFFC00
03FFFFFFFC00
07FFFFFFFC00
07FFFFFFF800
07FFEFFFF800
0FFFE1FFF800
0FFFC1FFF000
0FFFC1FFF000
0FFFC1FFF000
1FFFC1FFE000
1FFF83FFE000
1FFF83FFE000
3FFF87FFC000
3FFF87FFC000
3FFF87FFC000
7FFF07FF8000
7FFF07FF8000
FFFE0FF00000
9FFE0F800000
ENDCHAR
STARTCHAR 0049
ENCODING 73
SWIDTH 330 0
DWIDTH 22 0
BBX 29 45 2 0
BITMAP
0001FFC0
0003FFF8
0007FFF0
0007FFE0
0007FFE0
0007FFE0
000FFFC0
000FFFC0
000FFF80
001FFF80
001FFF80
003FFF00
003FFF00
003FFF00
003FFF00
007FFE00
007FFE00
007FFE00
00FFFE00
00FFFC00
00FFFC00
01FFFC00
01FFF800
01FFF800
01FFF800
03FFF800
03FFF800
03FFF000
07FFF000
07FFF000
07FFF000
07FFF000
07FFE000
0FFFE000
0FFFE000
0FFFE000
1FFFE000
1FFF8000
1FFF8000
3FFF8000
3FFF8000
7FFF0000
7FFE0000
FFE00000
F8000000
ENDCHAR
STARTCHAR 004A
ENCODING 74
SWIDTH 450 0
DWIDTH 30 0
BBX 34 45 3 0
BITMAP
000007FBC0
000007FFC0
00000FFFC0
00000FFFC0
00001FFFC0
00001FFFC0
00003FFFC0
00003FFFC0
00007FFFC0
00007FFF80
00007FFF80
0000FFFF80
0000FFFF80
0000FFFF80
0000FFFF80
0001FFFF80
0001FFFF80
0001FFFF00
0001FFFF00
0001FFFF00
0001FFFF00
0001FFFF00
0001FFFE00
0001FFFE00
0001FFFE00
0001FFFE00
0001FFFC00
0001FFFC00
0001FFFC00
0001FFF800
0FE1FFF800
7FE1FFF800
7FF1FFF000
7FF1FFF000
7FF3FFE000
FFF9FFC000
FFFFFFC000
FFFFFF8000
7FFFFF0000
7FFFFE0000
3FFFFC0000
3FFFF80000
0FFFE00000
07FFC00000
00FF000000
ENDCHAR
STARTCHAR 004B
ENCODING 75
SWIDTH 555 0
DWIDTH 37 0
BBX 43 46 1 0
BITMAP
000000100C00
003FFFF01E00
007FFFF03E00
003FFFE07F00
003FFFE0FFE0
003FFFE1FFE0
003FFFC3FFC0
007FFFC7FFC0
007FFFCFFF80
007FFFCFFF00
00FFFF9FFE00
00FFFFBFFC00
00FFFFBFF800
00FFFFFFF000
01FFFFFFE000
01FFFFFFC000
01FFFFFF8000
01FFFFFF0000
01FFFFFF0000
03FFFFFE0000
03FFFFFC0000
03FFFFF80000
07FFFFF80000
07FFFFF00000
07FFFFE00000
07FFFFE00000
0FFFFFF00000
0FFFFFF80000
0FFFFFFC0000
0FFFFFFC0000
1FFFFFFE0000
1FFFFFFF0000
1FFFFFFF0000
1FFFFFFF8000
3FFFF3FF8000
3FFFF3FFC000
3FFFE3FFC000
3FFFE1FFE000
3FFFC1FFE000
3FFFE0FFE000
7FFFE0FFE000
7FFFE07FF000
7FFFE07FF000
7FFFC07C2000
FFFF80780000
001C00700000
ENDCHAR
STARTCHAR 004C
ENCODING 76
SWIDTH 510 0
DWIDTH 34 0
BBX 34 46 1 0
BITMAP
00000FFF80
0000FFFF80
0001FFFF00
0001FFFF00
0003FFFE00
0003FFFE00
0003FFFE00
0007FFFC00
0007FFFC00
0007FFFC00
000FFFF800
000FFFF800
000FFFF000
000FFFF000
001FFFF000
001FFFE000
001FFFE000
003FFFE000
003FFFC000
003FFFC000
007FFF8000
007FFF8000
00FFFF8000
00FFFF0000
00FFFF0000
01FFFF0000
01FFFE0000
03FFFE0000
03FFFC0000
03FFFC0000
07FFFC0000
07FFFFFFC0
07FFFFFFC0
0FFFFFFF80
0FFFFFFF80
0FFFFFFF80
0FFFFFFF80
1FFFFFFF80
1FFFFFFF00
1FFFFFFF00
1FFFFFFF80
1FFFFFFF80
3FFFFFFF00
3FFFFFE000
7FF8000000
F800000000
ENDCHAR
STARTCHAR 004D
ENCODING 77
SWIDTH 645 0
DWIDTH 43 0
BBX 45 47 1 -1
BITMAP
000060000000
0001E0000038
0001F00000F8
0001F00001F8
0001F80003F8
0001F80003F8
0003FC0007F8
0003FC000FF8
0003FC001FF8
0007FE001FF8
0007FE003FF0
000FFF007FF0
000FFF00FFF0
000FFF00FFF0
001FFF81FFF0
001FFF83FFF0
003FFFC7FFF0
003FFFCFFFF0
003FFFDFFFF0
007FFFFFFFF0
007FFFFFFFF0
007FFFFFFFF0
00FFFFFFFFF0
00FFFFFFFFE0
00FFFFFFFFE0
01FFFFFFFFE0
01FFFDFBFFE0
01FFF9FFFFE0
03FFF0F7FFE0
03FFF0E7FFE0
03FFE007FFE0
07FFC00FFFE0
07FFC00FFFE0
0FFF800FFFC0
0FFF801FFFC0
0FFF001FFFC0
1FFF001FFFC0
1FFE003FFFC0
1FFE003FFFC0
3FFC003FFFC0
3FFC003FFFC0
7FF8003FFFC0
7FF8007FFFC0
7FF0007FFF80
7FF00037F000
FDE000000000
800000000000
ENDCHAR
STARTCHAR 004E
ENCODING 78
SWIDTH 555 0
DWIDTH 37 0
BBX 45 44 1 1
BITMAP
000020000200
0001FF801FE0
0007FFE0FFF0
0007FFE0FFF8
0007FFE1FFF0
000FFFC1FFF0
000FFFC1FFF0
000FFFC1FFE0
001FFFC3FFE0
001FFF83FFE0
001FFF83FFC0
003FFFC3FFC0
003FFFC7FFC0
007FFFC7FF80
007FFFC7FF80
007FFFC7FF80
00FFFFCFFF00
00FFFFCFFF00
00FFFFCFFF00
01FFFFCFFE00
01FFFFDFFE00
01FFFFDFFE00
03FFFFDFFC00
03FFFFDFFC00
03FFFFFFFC00
03FFFFFFFC00
07FFFFFFF800
07FFDFFFF800
07FFDFFFF800
07FFDFFFF000
0FFF8FFFF000
0FFF8FFFF000
0FFF8FFFF000
1FFF8FFFE000
1FFF0FFFE000
1FFF0FFFE000
1FFF0FFFE000
3FFE0FFFC000
3FFE07FFC000
3FFE0FFFC000
7FFE0FFFC000
7FFE0FFFC000
7FFC0FFF8000
FFE007FC0000
ENDCHAR
STARTCHAR 004F
ENCODING 79
SWIDTH 525 0
DWIDTH 35 0
BBX 35 47 5 0
BITMAP
0000700000
0001FC0000
0003FF0000
0007FF8000
000FFFE000
000FFFF000
001FFFF800
003FFFFC00
007FFFFE00
007FFFFE00
00FFFFFF00
01FFFFFF00
01FFFFFF80
03FFFFFF80
07FFFFFF80
07FFFFFFC0
0FFFFFFFC0
0FFFFFFFC0
1FFF87FFC0
1FFF03FFC0
3FFE03FFC0
3FFC03FFE0
7FFC03FFE0
7FF803FFE0
7FF803FFC0
7FF807FFC0
7FF807FFC0
7FFC0FFFC0
FFFC1FFFC0
FFFF3FFF80
FFFFFFFF80
FFFFFFFF80
FFFFFFFF00
FFFFFFFF00
7FFFFFFE00
7FFFFFFE00
7FFFFFFC00
7FFFFFFC00
7FFFFFF800
7FFFFFF800
3FFFFFF000
3FFFFFF000
1FFFFFE000
0FFFFFC000
07FFFF0000
01FFFC0000
007FF00000
ENDCHAR
STARTCHAR 0050
ENCODING 80
SWIDTH 495 0
DWIDTH 33 0
BBX 37 46 1 0
BITMAP
000003C000
0001FFF800
000FFFFF00
000FFFFFC0
001FFFFFE0
001FFFFFE0
001FFFFFF0
001FFFFFF0
003FFFFFF8
003FFFFFF8
003FFDFFF8
003FF81FF8
007FF80FF8
007FF807F8
007FF807F8
00FFF80FF8
00FFF80FF8
00FFF81FF8
00FFF83FF0
01FFF83FF0
01FFF8FFF0
01FFFFFFF0
03FFFFFFF0
03FFFFFFC0
03FFFFFF80
07FFFFFF00
07FFFFFE00
07FFFFF800
07FFF00000
0FFFF00000
0FFFF00000
0FFFF00000
1FFFE00000
1FFFE00000
1FFFE00000
3FFFE00000
3FFFE00000
3FFFE00000
3FFFC00000
7FFFC00000
7FFFC00000
7FFFC00000
7FFFC00000
7FFFC00000
FFFFC00000
7FFF800000
ENDCHAR
STARTCHAR 0051
ENCODING 81
SWIDTH 615 0
DWIDTH 41 0
BBX 36 49 5 -3
BITMAP
00007F8000
0007FFE000
000FFFF000
001FFFF800
003FFFFC00
003FFFFE00
007FFFFE00
00FFFFFF00
01FFFFFF80
01FFFFFF80
03FFFFFFC0
03FFFFFFC0
07FF87FFC0
07FF07FFE0
0FFE03FFE0
0FFE01FFE0
0FFE01FFE0
1FFE00FFE0
1FFC00FFE0
3FFC00FFE0
3FFC00FFE0
3FFC00FFC0
7FFC00FFC0
7FF801FFC0
7FFC01FFC0
FFFC01FF80
FFFF07FF80
FFFFFFFF80
FFFFFFFF00
FFFFFFFF00
FFFFFFFE00
FFFFFFFE00
FFFFFFFC00
FFFFFFF800
FFFFFFF800
FFFFFFF800
FFFFFFFC00
7FFFFFFE00
7FFFFFFE00
3FFFFFFF00
1FFFFFFF80
0FFFFFFF80
07FFFFFFC0
01FFFFFFC0
003F3FFFE0
00001FFFF0
00001FFFE0
00000FFC00
0000040000
ENDCHAR
STARTCHAR 0052
ENCODING 82
SWIDTH 585 0
DWIDTH 39 0
BBX 35 47 5 -1
BITMAP
00003E0000
0003FFC000
00FFFFF000
03FFFFFC00
07FFFFFF00
07FFFFFF80
0FFFFFFFC0
0FFFFFFFC0
0FFFE07FC0
0FFFE01FC0
0FFFE01FC0
0FFFE01FC0
0FFFE01FE0
1FFFE01FE0
1FFFE01FC0
1FFFE03FC0
1FFFE07FC0
1FFFE0FF80
1FFFF1FF80
1FFFF7FF00
1FFFFFFF00
1FFFFFFE00
3FFFFFFC00
3FFFFFF000
3FFFFFC000
3FFFFFC000
3FFFFFE000
3FFFFFE000
3FFFFFF000
7FFFFFF000
7FFFBFF000
7FFFBFF800
7FFF9FF800
7FFF9FFC00
FFFF8FFC00
FFFF0FFC00
FFFF0FFE00
FFFF0FFE00
FFFF07FE00
FFFF07FF00
FFFF07FF00
FFFF07FF80
FFFF03FF80
FFFF03FF80
FFFE03FF80
FFFE03F800
7FF8000000
ENDCHAR
STARTCHAR 0053
ENCODING 83
SWIDTH 495 0
DWIDTH 33 0
BBX 40 47 2 -1
BITMAP
000003FFC0
00003FFFFF
0000FFFFFF
0003FFFFFE
0003FFFFFC
0007FFFFFC
000FFFFFF8
000FFFFFF0
001FFFFFF0
001FFFFFE0
003FFFFFC0
007FFFFFC0
007FFFFF80
00FFFFFF00
00FFFFFF00
00FFFFFE00
01FFFFFE00
01FFE03C00
01FFE00C00
00FFE00000
00FFFC0000
00FFFF0000
00FFFFC000
007FFFF000
007FFFFC00
003FFFFE00
0007FFFE00
0000FFFF00
00003FFF00
00000FFF00
000007FF00
00000FFF00
0E000FFF00
1F003FFF00
3F9FFFFF00
7FFFFFFE00
7FFFFFFE00
7FFFFFFE00
7FFFFFFC00
FFFFFFF800
7FFFFFF800
3FFFFFF000
3FFFFF8000
1FFFFF0000
07FFFC0000
01FFF00000
001F000000
ENDCHAR
STARTCHAR 0054
ENCODING 84
SWIDTH 570 0
DWIDTH 38 0
BBX 37 45 8 0
BITMAP
007FFFFFC0
1FFFFFFFF0
3FFFFFFFF8
3FFFFFFFF8
3FFFFFFFF8
3FFFFFFFF8
3FFFFFFFF8
3FFFFFFFF8
7FFFFFFFF8
7FFFFFFFF8
7FFFFFFFF8
FFFFFFFFF0
FFFFFFFE60
FFFFFFE000
FF83FF8000
F007FF0000
0007FE0000
0007FE0000
000FFC0000
000FFC0000
000FFC0000
000FFC0000
001FF80000
001FF80000
001FF80000
001FF80000
001FF80000
003FF00000
003FF00000
003FF00000
003FF00000
007FE00000
007FE00000
007FE00000
007FE00000
007FC00000
00FFC00000
00FFC00000
00FFC00000
00FFC00000
01FF800000
01FF800000
01FF800000
01FF800000
01FF000000
ENDCHAR
STARTCHAR 0055
ENCODING 85
SWIDTH 540 0
DWIDTH 36 0
BBX 39 45 5 1
BITMAP
0038000000
003FC003FE
007FF007FE
007FE00FFE
00FFE00FFE
00FFC007FE
01FF8007FE
01FF800FFC
01FF800FFC
03FF800FFC
03FF800FFC
07FF001FF8
07FF001FF8
0FFE003FF8
0FFE003FF8
0FFE003FF8
1FFE007FF0
1FFC007FF0
3FFC007FF0
3FFC00FFF0
3FFC00FFF0
7FFC00FFF0
7FFC01FFF0
7FFE01FFE0
7FFE03FFE0
7FFF03FFC0
7FFFE7FFC0
FFFFFFFF80
FFFFFFFF80
FFFFFFFF00
FFFFFFFF00
FFFFFFFE00
FFFFFFFE00
FFFFFFFC00
7FFFFFF800
7FFFFFF800
7FFFFFF000
7FFFFFE000
3FFFFFC000
3FFFFF8000
3FFFFF0000
1FFFFE0000
07FFFC0000
01FFF00000
003F000000
ENDCHAR
STARTCHAR 0056
ENCODING 86
SWIDTH 585 0
DWIDTH 39 0
BBX 38 42 10 2
BITMAP
2000000FF8
FE0000FFFC
FFE001FFF8
FFFE01FFF8
3FFF01FFF0
3FFF81FFF0
3FFF81FFF0
3FFF83FFF0
3FFF83FFE0
3FFF83FFE0
3FFF83FFC0
3FFF87FFC0
3FFF87FF80
1FFF87FF80
1FFF8FFF80
1FFF8FFF00
1FFF8FFF00
1FFF9FFE00
0FFF9FFE00
0FFF9FFC00
0FFFBFFC00
07FFBFF800
07FFFFF800
07FFFFF000
03FFFFF000
03FFFFF000
03FFFFE000
01FFFFE000
01FFFFC000
00FFFFC000
00FFFFC000
007FFF8000
007FFF8000
003FFF0000
003FFF0000
003FFE0000
001FFE0000
001FFE0000
000FFC0000
000FFC0000
0007FC0000
0007F80000
ENDCHAR
STARTCHAR 0057
ENCODING 87
SWIDTH 720 0
DWIDTH 48 0
BBX 48 46 9 0
BITMAP
000000000200
1FE000000786
3FF800000FFF
7FFC01E00FFE
7FFC03E01FFE
7FFC03E01FFC
FFFC03E03FF8
FFFC03E07FF8
FFFC07E07FF0
FFFE07F0FFF0
FFFE07F0FFE0
FFFE0FF1FFE0
7FFE0FF1FFC0
7FFE0FF3FFC0
7FFF1FF3FFC0
7FFF1FF7FFC0
7FFF1FFFFF80
7FFF3FFFFF80
3FFFBFFFFF80
3FFFFFFFFF00
3FFFFFFFFF00
3FFFFFFFFE00
3FFFFFFFFE00
1FFFFFFFFC00
1FFFFFFFFC00
1FFFFFFFFC00
1FFFFFFFF800
0FFFFFFFF800
0FFFFBFFF000
0FFFF3FFF000
07FFE3FFF000
07FFE3FFE000
07FFE3FFE000
07FFC3FFE000
03FF83FFE000
03FF03FFC000
03FF03FFC000
01FF01FF8000
01FE01FF8000
01FE01FF8000
00FC01FF0000
00FC01FE0000
00F801FE0000
007801C00000
007000000000
002000000000
ENDCHAR
STARTCHAR 0058
ENCODING 88
SWIDTH 570 0
DWIDTH 38 0
BBX 43 44 4 1
BITMAP
00000000FFC0
0047C000FFE0
00FFE001FFE0
01FFC003FFC0
03FFE007FFC0
07FFE00FFF80
07FFE00FFF00
07FFF01FFE00
07FFF03FFE00
07FFF03FFC00
07FFF87FF800
03FFF87FF800
03FFF8FFF000
03FFF9FFF000
01FFF9FFE000
00FFFFFFC000
00FFFFFFC000
007FFFFF8000
003FFFFF8000
003FFFFF0000
001FFFFE0000
001FFFFC0000
000FFFFC0000
000FFFF80000
000FFFF00000
000FFFF00000
003FFFF80000
003FFFF80000
007FFFF80000
00FFFFF80000
00FFFFF80000
01FFFFF80000
03FFFFF80000
07FF9FFC0000
07FF9FFC0000
0FFF1FFC0000
1FFF0FFC0000
1FFE0FFE0000
3FFE07FE0000
3FFE07FE0000
7FFC03FC0000
7FFC01C00000
FFF800000000
FE0000000000
ENDCHAR
STARTCHAR 0059
ENCODING 89
SWIDTH 600 0
DWIDTH 40 0
BBX 39 46 10 0
BITMAP
000000010E
0000000FFE
00E0001FFE
0BE0001FFC
7FF0001FF8
FFF0003FF8
FFF0007FF0
FFF800FFE0
FFF800FFE0
FFF801FFC0
7FFC03FF80
7FFC03FF00
7FFC07FF00
3FFC0FFE00
3FFE1FFC00
3FFE1FFC00
1FFE3FF800
1FFE7FF000
1FFEFFF000
1FFEFFE000
0FFFFFC000
0FFFFFC000
0FFFFF8000
07FFFF0000
07FFFF0000
07FFFE0000
07FFFC0000
03FFF80000
03FFF80000
03FFF00000
01FFE00000
01FFE00000
01FFC00000
00FFC00000
00FFC00000
00FFC00000
01FFC00000
01FFC00000
01FFC00000
01FFC00000
01FFC00000
03FF800000
03FF800000
03FF800000
03FF000000
03FC000000
ENDCHAR
STARTCHAR 005A
ENCODING 90
SWIDTH 600 0
DWIDTH 40 0
BBX 35 46 8 0
BITMAP
00007FF000
0007FFFFE0
00FFFFFFC0
03FFFFFF80
07FFFFFF00
0FFFFFFF00
1FFFFFFE00
3FFFFFFC00
3FFFFFF800
7FFFFFF000
7FFFFFF000
FFFFFFE000
FF00FFC000
0001FF8000
0001FF8000
0003FF0000
0003FF0000
0007FE0000
000FFC0000
000FFC0000
001FF80000
001FF80000
003FF00000
003FF00000
007FE00000
007FE00000
00FFE00000
01FFC00000
01FFC00000
03FF800000
03FF800000
07FF000000
07FE000000
0FFC07EF80
1FFFFFFF80
1FFFFFFF80
3FFFFFFF80
3FFFFFFF00
7FFFFFFF00
7FFFFFFE00
7FFFFFFC00
FFFFFFF800
03FFFFF000
007FFFC000
001FFF0000
0000E00000
ENDCHAR
STARTCHAR 005B
ENCODING 91
SWIDTH 345 0
DWIDTH 23 0
BBX 35 64 -1 -10
BITMAP
000000FFE0
0003FFFFC0
0007FFFFC0
0007FFFFC0
0007FFFFC0
0007FFFFC0
000FFFFFC0
000FFFFF80
000FFFFF80
000FFC0000
000FF80000
000FF80000
000FF80000
001FF80000
001FF80000
001FF00000
003FF00000
003FF00000
003FF00000
003FF00000
003FE00000
007FE00000
007FE00000
007FE00000
007FC00000
00FFC00000
00FFC00000
00FFC00000
00FFC00000
00FFC00000
01FF800000
01FF800000
01FF800000
01FF800000
03FF000000
03FF000000
03FF000000
03FF000000
03FE000000
07FE000000
07FE000000
07FE000000
07FE000000
07FE000000
0FFC000000
0FFC000000
0FFC000000
0FFC000000
1FF8000000
1FF8000000
1FF8000000
1FF8000000
3FF8000000
3FF0000000
3FFFFE0000
3FFFFE0000
7FFFFE0000
7FFFFE0000
7FFFFC0000
7FFFFC0000
7FFFFC0000
7FFFFC0000
FFFFFC0000
3F80000000
ENDCHAR
STARTCHAR 005C
ENCODING 92
SWIDTH 450 0
DWIDTH 30 0
BBX 18 54 11 -4
BITMAP
70F000
7FF000
FFF000
FFF000
FFF800
FFF800
FFF800
FFF800
FFF800
FFF800
FFF800
7FF800
7FF800
7FFC00
7FFC00
7FFC00
7FFC00
7FFC00
3FFC00
3FFC00
3FFC00
3FFC00
3FFC00
1FFC00
1FFC00
1FFC00
1FFE00
1FFE00
0FFE00
0FFE00
0FFE00
0FFE00
0FFE00
07FE00
07FE00
07FF00
07FF00
07FF00
03FF00
03FF00
03FF00
03FF00
03FF80
01FF80
01FF80
01FF80
01FF80
00FF80
00FFC0
00FFC0
007FC0
007FC0
007080
002000
ENDCHAR
STARTCHAR 005D
ENCODING 93
SWIDTH 345 0
DWIDTH 23 0
BBX 34 64 0 -10
BITMAP
000067FFC0
000FFFFFC0
000FFFFF80
000FFFFF80
000FFFFF80
000FFFFF80
001FFFFF80
001FFFFF00
001FFFFF00
000FC3FF00
000003FF00
000007FF00
000007FE00
000007FE00
000007FE00
000007FE00
00000FFC00
00000FFC00
00000FFC00
00000FFC00
00001FF800
00001FF800
00001FF800
00001FF800
00001FF800
00001FF000
00003FF000
00003FF000
00003FF000
00003FE000
00007FE000
00007FE000
00007FE000
00007FE000
0000FFC000
0000FFC000
0000FFC000
0000FFC000
0000FFC000
0000FF8000
0001FF8000
0001FF8000
0001FF8000
0001FF0000
0003FF0000
0003FF0000
0003FF0000
0003FE0000
0003FE0000
0007FE0000
0007FE0000
0007FE0000
0007FC0000
0007FC0000
00FFFC0000
7FFFFC0000
7FFFFC0000
FFFFFC0000
FFFFF80000
FFFFF80000
FFFFF80000
FFFFF80000
FFFFF00000
1B00000000
ENDCHAR
STARTCHAR 005E
ENCODING 94
SWIDTH 495 0
DWIDTH 33 0
BBX 31 28 6 21
BITMAP
00000400
00003F80
00007F80
0000FF80
0000FFC0
0001FFC0
0003FFC0
0007FFC0
000FFFC0
001FFFE0
003FFFE0
003FFFE0
007FDFE0
00FFDFF0
01FF9FF0
03FF9FF0
03FF1FF0
07FF1FF8
0FFE1FF8
1FFE1FF8
1FFC1FF8
3FFC1FFC
3FF81FFC
7FF81FFC
7FF01FFE
FFF01FFE
FFE01FFC
400001E0
ENDCHAR
STARTCHAR 005F
ENCODING 95
SWIDTH 390 0
DWIDTH 26 0
BBX 25 8 0 -8
BITMAP
7FFFFF00
7FFFFF80
7FFFFF00
FFFFFF00
FFFFFF00
FFFFFF00
FFFFFE00
FFFFFE00
ENDCHAR
STARTCHAR 0060
ENCODING 96
SWIDTH 225 0
DWIDTH 15 0
BBX 12 11 13 47
BITMAP
7F80
FF80
FFC0
7FC0
3FC0
3FE0
1FE0
0FE0
0FF0
07F0
0780
ENDCHAR
STARTCHAR 0061
ENCODING 97
SWIDTH 630 0
DWIDTH 42 0
BBX 40 47 1 -2
BITMAP
00000003C0
0000001FC0
0000001FE0
0000003FE0
0000003FE0
0000007FE0
000000FFE0
000000FFE0
000001FFE0
000001FFE0
000003FFE0
000003FFE0
000007FFE0
00000FFFE0
00000FFFE0
00001FFFE0
00001FFFE0
00003FFFF0
00007FFFF0
00007FFFF0
0000FFFFF0
0001FFFFF0
0001FFFFF0
0003FFFFF0
0007F9FFF0
0007F0FFF0
000FE0FFF0
001FC0FFF0
001FC0FFF8
003F80FFF8
003F07FFF8
007FFFFFF8
00FFFFFFF8
00FFFFFFF8
01FFFFFFFC
03FFFFFFFC
03FFC1FFFC
07FF01FFFC
0FFE01FFFC
0FFE01FFFE
1FFC01FFFE
3FFC01FFFE
3FF801FFFF
7FF801FFFF
FFF800FFFF
FFE000E000
C000000000
ENDCHAR
STARTCHAR 0062
ENCODING 98
SWIDTH 510 0
DWIDTH 34 0
BBX 30 46 7 0
BITMAP
007F0000
01FFFE00
0FFFFF80
1FFFFFC0
1FFFFFE0
1FFFFFE0
1FFFFFE0
3FFFFFF0
3FFFFFF0
3FFFFFF0
3FFEFFF8
3FFC3FF0
3FF81FF0
3FF81FF0
1FF81FE0
1FF81FE0
3FF81FE0
3FF83FC0
3FFC7FC0
3FFFFF80
3FFFFE00
3FFFFC00
3FFFFF00
3FFFFFC0
7FFFFFE0
7FFFFFF0
7FFFFFF0
7FFEFFF8
7FFC1FF8
7FF81FFC
7FF81FFC
7FF81FFC
7FF83FFC
FFF87FF8
FFF8FFF8
FFF9FFF8
FFFFFFF0
FFFFFFE0
FFFFFFE0
FFFFFF80
FFFFFF00
FFFFFE00
FFFFFC00
FFFFE000
FFF80000
08000000
ENDCHAR
STARTCHAR 0063
ENCODING 99
SWIDTH 480 0
DWIDTH 32 0
BBX 35 44 5 1
BITMAP
00000FF800
00007FFE00
0003FFFF80
000FFFFFC0
003FFFFFE0
007FFFFFE0
00FFFFFFE0
01FFFFFFE0
03FFFFFFC0
03FFFFFFC0
07FFFFFFC0
0FFFFFFF80
0FFFFF8D00
1FFFF80000
1FFFE00000
3FFF800000
3FFF000000
3FFF000000
3FFE000000
3FFE000000
7FFE000000
7FFC000000
7FFE000000
7FFE000000
FFFF000C00
FFFF83FC00
FFFFFFFC00
FFFFFFFC00
FFFFFFFC00
FFFFFFF800
FFFFFFF800
FFFFFFF800
FFFFFFF800
7FFFFFF000
7FFFFFF000
7FFFFFF000
7FFFFFF000
3FFFFFE000
3FFFFFC000
3FFFFF8000
1FFFFF0000
1FFFFC0000
03FFF80000
003FC00000
ENDCHAR
STARTCHAR 0064
ENCODING 100
SWIDTH 450 0
DWIDTH 30 0
BBX 29 46 7 0
BITMAP
00F00000
03FF8000
0FFFF000
1FFFFC00
1FFFFF00
1FFFFF00
3FFFFF80
3FFFFFC0
3FFFFFC0
3FFFFFE0
3FFFFFE0
7FFFFFF0
7FFFFFF0
7FFC7FF0
7FF81FF0
7FF80FF8
7FF80FF8
7FF00FF8
7FF00FF8
7FF00FF0
FFF01FF0
FFF01FF0
FFF03FE0
FFF07FE0
FFF0FFC0
FFE1FFC0
FFE3FF80
FFF7FF00
FFFFFF00
FFFFFE00
FFFFFC00
FFFFF800
FFFFF800
FFFFF000
FFFFE000
FFFFC000
FFFF8000
FFFF0000
FFFE0000
FFFC0000
FFF80000
FFE00000
FF800000
FE000000
F0000000
C0000000
ENDCHAR
STARTCHAR 0065
ENCODING 101
SWIDTH 495 0
DWIDTH 33 0
BBX 27 47 8 0
BITMAP
000F0000
00FFFF80
07FFFFE0
1FFFFFC0
3FFFFFC0
3FFFFFC0
3FFFFF80
1FFFFF80
1FFFFF00
1FFFFF00
1FFFFE00
1FFFFE00
1FFFFE00
3FFFFE00
3FFFFC00
3FFC0000
3FF80000
3FF80000
3FF80000
3FFC3800
3FFFF800
3FFFF800
3FFFF000
3FFFF000
3FFFF000
3FFFF800
3FFF0000
3FF80000
3FF80000
3FF80380
3FFFFF80
3FFFFF80
7FFFFF80
3FFFFF80
3FFFFF80
3FFFFF80
7FFFFF80
7FFFFF80
7FFFFF80
7FFFFF80
7FFFFF80
7FFFFF80
FFFFFE00
FFFFE000
7FFE0000
7FC00000
78000000
ENDCHAR
STARTCHAR 0066
ENCODING 102
SWIDTH 495 0
DWIDTH 33 0
BBX 38 47 3 0
BITMAP
0000003FE0
00047FFFFC
001FFFFFFC
00FFFFFFFC
01FFFFFFFC
01FFFFFFFC
01FFFFFFFC
03FFFFFFFC
03FFFFFFFC
03FFFFFFFC
03FFFFF818
03FFF80000
07FFC00000
07FFC00000
07FF800000
07FF800000
07FF800000
0FFF860000
0FFFBF0000
0FFFFF0000
0FFFFE0000
0FFFFE0000
0FFFFE0000
1FFFFE0000
1FFFFC0000
1FFFFC0000
1FFFFC0000
3FFE0C0000
3FFC000000
3FFC000000
3FF8000000
7FF8000000
7FF8000000
7FF8000000
7FF0000000
7FF0000000
7FF0000000
FFF0000000
FFF0000000
FFF0000000
FFF0000000
FFF0000000
FFF0000000
FFF0000000
FFF0000000
FFF0000000
F800000000
ENDCHAR
STARTCHAR 0067
ENCODING 103
SWIDTH 495 0
DWIDTH 33 0
BBX 37 45 3 1
BITMAP
0000077000
00001FFF00
00003FFFC0
00007FFFE0
0000FFFFF0
0001FFFFF0
0003FFFFF0
0007FFFFF8
000FFFFFF0
001FFFFFE0
001FFF3FC0
003FF80900
007FE00000
007FC00000
00FF800000
00FF800000
01FF000000
01FE000000
03FE000000
03FC0007C0
07FC01FFE0
07FC0FFFC0
07F81FFFC0
0FF80FFFC0
0FF80FFFC0
1FF80FFFC0
1FF80FFF80
1FF80FFF80
3FF81FFF80
3FF81FFF80
3FF81FFF00
7FFE7FFF00
7FFFFFFF00
7FFFFFFF00
7FFFFFFE00
FFFFFFFE00
FFFFFFFE00
7FFFFFF800
7FFFFFF000
7FFFFFC000
3FFFFF0000
1FFFFC0000
1FFFF00000
0FFF800000
03FC000000
ENDCHAR
STARTCHAR 0068
ENCODING 104
SWIDTH 555 0
DWIDTH 37 0
BBX 43 44 2 1
BITMAP
00003FE00000
0003FFE00060
000FFFC07FE0
000FFF80FFE0
001FFF81FFE0
000FFFC1FFE0
000FFF81FFC0
000FFF83FFC0
001FFF83FFC0
001FFF03FFC0
001FFF07FF80
003FFF07FF80
003FFE07FF80
003FFE0FFF00
007FFE0FFF00
007FFE0FFF00
007FFE1FFF00
00FFFFFFFE00
00FFFFFFFE00
00FFFFFFFE00
01FFFFFFFC00
01FFFFFFFC00
01FFFFFFFC00
01FFFFFFF800
03FFFFFFFC00
03FFFFFFFC00
03FFFFFFFC00
07FFFFFFFC00
07FFFFFFF800
07FFEFFFF800
0FFFE1FFF800
0FFFC1FFF000
0FFFC1FFF000
0FFFC1FFF000
1FFFC1FFE000
1FFF83FFE000
1FFF83FFE000
3FFF87FFC000
3FFF87FFC000
3FFF87FFC000
7FFF07FF8000
7FFF07FF8000
FFFE0FF00000
9FFE0F800000
ENDCHAR
STARTCHAR 0069
ENCODING 105
SWIDTH 330 0
DWIDTH 22 0
BBX 29 45 2 0
BITMAP
0001FFC0
0003FFF8
0007FFF0
0007FFE0
0007FFE0
0007FFE0
000FFFC0
000FFFC0
000FFF80
001FFF80
001FFF80
003FFF00
003FFF00
003FFF00
003FFF00
007FFE00
007FFE00
007FFE00
00FFFE00
00FFFC00
00FFFC00
01FFFC00
01FFF800
01FFF800
01FFF800
03FFF800
03FFF800
03FFF000
07FFF000
07FFF000
07FFF000
07FFF000
07FFE000
0FFFE000
0FFFE000
0FFFE000
1FFFE000
1FFF8000
1FFF8000
3FFF8000
3FFF8000
7FFF0000
7FFE0000
FFE00000
F8000000
ENDCHAR
STARTCHAR 006A
ENCODING 106
SWIDTH 450 0
DWIDTH 30 0
BBX 34 45 3 0
BITMAP
000007FBC0
000007FFC0
00000FFFC0
00000FFFC0
00001FFFC0
00001FFFC0
00003FFFC0
00003FFFC0
00007FFFC0
00007FFF80
00007FFF80
0000FFFF80
0000FFFF80
0000FFFF80
0000FFFF80
0001FFFF80
0001FFFF80
0001FFFF00
0001FFFF00
0001FFFF00
0001FFFF00
0001FFFF00
0001FFFE00
0001FFFE00
0001FFFE00
0001FFFE00
0001FFFC00
0001FFFC00
0001FFFC00
0001FFF800
0FE1FFF800
7FE1FFF800
7FF1FFF000
7FF1FFF000
7FF3FFE000
FFF9FFC000
FFFFFFC000
FFFFFF8000
7FFFFF0000
7FFFFE0000
3FFFFC0000
3FFFF80000
0FFFE00000
07FFC00000
00FF000000
ENDCHAR
STARTCHAR 006B
ENCODING 107
SWIDTH 555 0
DWIDTH 37 0
BBX 43 46 1 0
BITMAP
000000100C00
003FFFF01E00
007FFFF03E00
003FFFE07F00
003FFFE0FFE0
003FFFE1FFE0
003FFFC3FFC0
007FFFC7FFC0
007FFFCFFF80
007FFFCFFF00
00FFFF9FFE00
00FFFFBFFC00
00FFFFBFF800
00FFFFFFF000
01FFFFFFE000
01FFFFFFC000
01FFFFFF8000
01FFFFFF0000
01FFFFFF0000
03FFFFFE0000
03FFFFFC0000
03FFFFF80000
07FFFFF80000
07FFFFF00000
07FFFFE00000
07FFFFE00000
0FFFFFF00000
0FFFFFF80000
0FFFFFFC0000
0FFFFFFC0000
1FFFFFFE0000
1FFFFFFF0000
1FFFFFFF0000
1FFFFFFF8000
3FFFF3FF8000
3FFFF3FFC000
3FFFE3FFC000
3FFFE1FFE000
3FFFC1FFE000
3FFFE0FFE000
7FFFE0FFE000
7FFFE07FF000
7FFFE07FF000
7FFFC07C2000
FFFF80780000
001C00700000
ENDCHAR
STARTCHAR 006C
ENCODING 108
SWIDTH 510 0
DWIDTH 34 0
BBX 34 46 1 0
BITMAP
00000FFF80
0000FFFF80
0001FFFF00
0001FFFF00
0003FFFE00
0003FFFE00
0003FFFE00
0007FFFC00
0007FFFC00
0007FFFC00
000FFFF800
000FFFF800
000FFFF000
000FFFF000
001FFFF000
001FFFE000
001FFFE000
003FFFE000
003FFFC000
003FFFC000
007FFF8000
007FFF8000
00FFFF8000
00FFFF0000
00FFFF0000
01FFFF0000
01FFFE0000
03FFFE0000
03FFFC0000
03FFFC0000
07FFFC0000
07FFFFFFC0
07FFFFFFC0
0FFFFFFF80
0FFFFFFF80
0FFFFFFF80
0FFFFFFF80
1FFFFFFF80
1FFFFFFF00
1FFFFFFF00
1FFFFFFF80
1FFFFFFF80
3FFFFFFF00
3FFFFFE000
7FF8000000
F800000000
ENDCHAR
STARTCHAR 006D
ENCODING 109
SWIDTH 645 0
DWIDTH 43 0
BBX 45 47 1 -1
BITMAP
000060000000
0001E0000038
0001F00000F8
0001F00001F8
0001F80003F8
0001F80003F8
0003FC0007F8
0003FC000FF8
0003FC001FF8
0007FE001FF8
0007FE003FF0
000FFF007FF0
000FFF00FFF0
000FFF00FFF0
001FFF81FFF0
001FFF83FFF0
003FFFC7FFF0
003FFFCFFFF0
003FFFDFFFF0
007FFFFFFFF0
007FFFFFFFF0
007FFFFFFFF0
00FFFFFFFFF0
00FFFFFFFFE0
00FFFFFFFFE0
01FFFFFFFFE0
01FFFDFBFFE0
01FFF9FFFFE0
03FFF0F7FFE0
03FFF0E7FFE0
03FFE007FFE0
07FFC00FFFE0
07FFC00FFFE0
0FFF800FFFC0
0FFF801FFFC0
0FFF001FFFC0
1FFF001FFFC0
1FFE003FFFC0
1FFE003FFFC0
3FFC003FFFC0
3FFC003FFFC0
7FF8003FFFC0
7FF8007FFFC0
7FF0007FFF80
7FF00037F000
FDE000000000
800000000000
ENDCHAR
STARTCHAR 006E
ENCODING 110
SWIDTH 555 0
DWIDTH 37 0
BBX 45 44 1 1
BITMAP
000020000200
0001FF801FE0
0007FFE0FFF0
0007FFE0FFF8
0007FFE1FFF0
000FFFC1FFF0
000FFFC1FFF0
000FFFC1FFE0
001FFFC3FFE0
001FFF83FFE0
001FFF83FFC0
003FFFC3FFC0
003FFFC7FFC0
007FFFC7FF80
007FFFC7FF80
007FFFC7FF80
00FFFFCFFF00
00FFFFCFFF00
00FFFFCFFF00
01FFFFCFFE00
01FFFFDFFE00
01FFFFDFFE00
03FFFFDFFC00
03FFFFDFFC00
03FFFFFFFC00
03FFFFFFFC00
07FFFFFFF800
07FFDFFFF800
07FFDFFFF800
07FFDFFFF000
0FFF8FFFF000
0FFF8FFFF000
0FFF8FFFF000
1FFF8FFFE000
1FFF0FFFE000
1FFF0FFFE000
1FFF0FFFE000
3FFE0FFFC000
3FFE07FFC000
3FFE0FFFC000
7FFE0FFFC000
7FFE0FFFC000
7FFC0FFF8000
FFE007FC0000
ENDCHAR
STARTCHAR 006F
ENCODING 111
SWIDTH 525 0
DWIDTH 35 0
BBX 35 47 5 0
BITMAP
0000700000
0001FC0000
0003FF0000
0007FF8000
000FFFE000
000FFFF000
001FFFF800
003FFFFC00
007FFFFE00
007FFFFE00
00FFFFFF00
01FFFFFF00
01FFFFFF80
03FFFFFF80
07FFFFFF80
07FFFFFFC0
0FFFFFFFC0
0FFFFFFFC0
1FFF87FFC0
1FFF03FFC0
3FFE03FFC0
3FFC03FFE0
7FFC03FFE0
7FF803FFE0
7FF803FFC0
7FF807FFC0
7FF807FFC0
7FFC0FFFC0
FFFC1FFFC0
FFFF3FFF80
FFFFFFFF80
FFFFFFFF80
FFFFFFFF00
FFFFFFFF00
7FFFFFFE00
7FFFFFFE00
7FFFFFFC00
7FFFFFFC00
7FFFFFF800
7FFFFFF800
3FFFFFF000
3FFFFFF000
1FFFFFE000
0FFFFFC000
07FFFF0000
01FFFC0000
007FF00000
ENDCHAR
STARTCHAR 0070
ENCODING 112
SWIDTH 495 0
DWIDTH 33 0
BBX 37 46 1 0
BITMAP
000003C000
0001FFF800
000FFFFF00
000FFFFFC0
001FFFFFE0
001FFFFFE0
001FFFFFF0
001FFFFFF0
003FFFFFF8
003FFFFFF8
003FFDFFF8
003FF81FF8
007FF80FF8
007FF807F8
007FF807F8
00FFF80FF8
00FFF80FF8
00FFF81FF8
00FFF83FF0
01FFF83FF0
01FFF8FFF0
01FFFFFFF0
03FFFFFFF0
03FFFFFFC0
03FFFFFF80
07FFFFFF00
07FFFFFE00
07FFFFF800
07FFF00000
0FFFF00000
0FFFF00000
0FFFF00000
1FFFE00000
1FFFE00000
1FFFE00000
3FFFE00000
3FFFE00000
3FFFE00000
3FFFC00000
7FFFC00000
7FFFC00000
7FFFC00000
7FFFC00000
7FFFC00000
FFFFC00000
7FFF800000
ENDCHAR
STARTCHAR 0071
ENCODING 113
SWIDTH 615 0
DWIDTH 41 0
BBX 36 49 5 -3
BITMAP
00007F8000
0007FFE000
000FFFF000
001FFFF800
003FFFFC00
003FFFFE00
007FFFFE00
00FFFFFF00
01FFFFFF80
01FFFFFF80
03FFFFFFC0
03FFFFFFC0
07FF87FFC0
07FF07FFE0
0FFE03FFE0
0FFE01FFE0
0FFE01FFE0
1FFE00FFE0
1FFC00FFE0
3FFC00FFE0
3FFC00FFE0
3FFC00FFC0
7FFC00FFC0
7FF801FFC0
7FFC01FFC0
FFFC01FF80
FFFF07FF80
FFFFFFFF80
FFFFFFFF00
FFFFFFFF00
FFFFFFFE00
FFFFFFFE00
FFFFFFFC00
FFFFFFF800
FFFFFFF800
FFFFFFF800
FFFFFFFC00
7FFFFFFE00
7FFFFFFE00
3FFFFFFF00
1FFFFFFF80
0FFFFFFF80
07FFFFFFC0
01FFFFFFC0
003F3FFFE0
00001FFFF0
00001FFFE0
00000FFC00
0000040000
ENDCHAR
STARTCHAR 0072
ENCODING 114
SWIDTH 585 0
DWIDTH 39 0
BBX 35 47 5 -1
BITMAP
00003E0000
0003FFC000
00FFFFF000
03FFFFFC00
07FFFFFF00
07FFFFFF80
0FFFFFFFC0
0FFFFFFFC0
0FFFE07FC0
0FFFE01FC0
0FFFE01FC0
0FFFE01FC0
0FFFE01FE0
1FFFE01FE0
1FFFE01FC0
1FFFE03FC0
1FFFE07FC0
1FFFE0FF80
1FFFF1FF80
1FFFF7FF00
1FFFFFFF00
1FFFFFFE00
3FFFFFFC00
3FFFFFF000
3FFFFFC000
3FFFFFC000
3FFFFFE000
3FFFFFE000
3FFFFFF000
7FFFFFF000
7FFFBFF000
7FFFBFF800
7FFF9FF800
7FFF9FFC00
FFFF8FFC00
FFFF0FFC00
FFFF0FFE00
FFFF0FFE00
FFFF07FE00
FFFF07FF00
FFFF07FF00
FFFF07FF80
FFFF03FF80
FFFF03FF80
FFFE03FF80
FFFE03F800
7FF8000000
ENDCHAR
STARTCHAR 0073
ENCODING 115
SWIDTH 495 0
DWIDTH 33 0
BBX 40 47 2 -1
BITMAP
000003FFC0
00003FFFFF
0000FFFFFF
0003FFFFFE
0003FFFFFC
0007FFFFFC
000FFFFFF8
000FFFFFF0
001FFFFFF0
001FFFFFE0
003FFFFFC0
007FFFFFC0
007FFFFF80
00FFFFFF00
00FFFFFF00
00FFFFFE00
01FFFFFE00
01FFE03C00
01FFE00C00
00FFE00000
00FFFC0000
00FFFF0000
00FFFFC000
007FFFF000
007FFFFC00
003FFFFE00
0007FFFE00
0000FFFF00
00003FFF00
00000FFF00
000007FF00
00000FFF00
0E000FFF00
1F003FFF00
3F9FFFFF00
7FFFFFFE00
7FFFFFFE00
7FFFFFFE00
7FFFFFFC00
FFFFFFF800
7FFFFFF800
3FFFFFF000
3FFFFF8000
1FFFFF0000
07FFFC0000
01FFF00000
001F000000
ENDCHAR
STARTCHAR 0074
ENCODING 116
SWIDTH 570 0
DWIDTH 38 0
BBX 37 45 8 0
BITMAP
007FFFFFC0
1FFFFFFFF0
3FFFFFFFF8
3FFFFFFFF8
3FFFFFFFF8
3FFFFFFFF8
3FFFFFFFF8
3FFFFFFFF8
7FFFFFFFF8
7FFFFFFFF8
7FFFFFFFF8
FFFFFFFFF0
FFFFFFFE60
FFFFFFE000
FF83FF8000
F007FF0000
0007FE0000
0007FE0000
000FFC0000
000FFC0000
000FFC0000
000FFC0000
001FF80000
001FF80000
001FF80000
001FF80000
001FF80000
003FF00000
003FF00000
003FF00000
003FF00000
007FE00000
007FE00000
007FE00000
007FE00000
007FC00000
00FFC00000
00FFC00000
00FFC00000
00FFC00000
01FF800000
01FF800000
01FF800000
01FF800000
01FF000000
ENDCHAR
STARTCHAR 0075
ENCODING 117
SWIDTH 540 0
DWIDTH 36 0
BBX 39 45 5 1
BITMAP
0038000000
003FC003FE
007FF007FE
007FE00FFE
00FFE00FFE
00FFC007FE
01FF8007FE
01FF800FFC
01FF800FFC
03FF800FFC
03FF800FFC
07FF001FF8
07FF001FF8
0FFE003FF8
0FFE003FF8
0FFE003FF8
1FFE007FF0
1FFC007FF0
3FFC007FF0
3FFC00FFF0
3FFC00FFF0
7FFC00FFF0
7FFC01FFF0
7FFE01FFE0
7FFE03FFE0
7FFF03FFC0
7FFFE7FFC0
FFFFFFFF80
FFFFFFFF80
FFFFFFFF00
FFFFFFFF00
FFFFFFFE00
FFFFFFFE00
FFFFFFFC00
7FFFFFF800
7FFFFFF800
7FFFFFF000
7FFFFFE000
3FFFFFC000
3FFFFF8000
3FFFFF0000
1FFFFE0000
07FFFC0000
01FFF00000
003F000000
ENDCHAR
STARTCHAR 0076
ENCODING 118
SWIDTH 585 0
DWIDTH 39 0
BBX 38 42 10 2
BITMAP
2000000FF8
FE0000FFFC
FFE001FFF8
FFFE01FFF8
3FFF01FFF0
3FFF81FFF0
3FFF81FFF0
3FFF83FFF0
3FFF83FFE0
3FFF83FFE0
3FFF83FFC0
3FFF87FFC0
3FFF87FF80
1FFF87FF80
1FFF8FFF80
1FFF8FFF00
1FFF8FFF00
1FFF9FFE00
0FFF9FFE00
0FFF9FFC00
0FFFBFFC00
07FFBFF800
07FFFFF800
07FFFFF000
03FFFFF000
03FFFFF000
03FFFFE000
01FFFFE000
01FFFFC000
00FFFFC000
00FFFFC000
007FFF8000
007FFF8000
003FFF0000
003FFF0000
003FFE0000
001FFE0000
001FFE0000
000FFC0000
000FFC0000
0007FC0000
0007F80000
ENDCHAR
STARTCHAR 0077
ENCODING 119
SWIDTH 720 0
DWIDTH 48 0
BBX 48 46 9 0
BITMAP
000000000200
1FE000000786
3FF800000FFF
7FFC01E00FFE
7FFC03E01FFE
7FFC03E01FFC
FFFC03E03FF8
FFFC03E07FF8
FFFC07E07FF0
FFFE07F0FFF0
FFFE07F0FFE0
FFFE0FF1FFE0
7FFE0FF1FFC0
7FFE0FF3FFC0
7FFF1FF3FFC0
7FFF1FF7FFC0
7FFF1FFFFF80
7FFF3FFFFF80
3FFFBFFFFF80
3FFFFFFFFF00
3FFFFFFFFF00
3FFFFFFFFE00
3FFFFFFFFE00
1FFFFFFFFC00
1FFFFFFFFC00
1FFFFFFFFC00
1FFFFFFFF800
0FFFFFFFF800
0FFFFBFFF000
0FFFF3FFF000
07FFE3FFF000
07FFE3FFE000
07FFE3FFE000
07FFC3FFE000
03FF83FFE000
03FF03FFC000
03FF03FFC000
01FF01FF8000
01FE01FF8000
01FE01FF8000
00FC01FF0000
00FC01FE0000
00F801FE0000
007801C00000
007000000000
002000000000
ENDCHAR
STARTCHAR 0078
ENCODING 120
SWIDTH 570 0
DWIDTH 38 0
BBX 43 44 4 1
BITMAP
00000000FFC0
0047C000FFE0
00FFE001FFE0
01FFC003FFC0
03FFE007FFC0
07FFE00FFF80
07FFE00FFF00
07FFF01FFE00
07FFF03FFE00
07FFF03FFC00
07FFF87FF800
03FFF87FF800
03FFF8FFF000
03FFF9FFF000
01FFF9FFE000
00FFFFFFC000
00FFFFFFC000
007FFFFF8000
003FFFFF8000
003FFFFF0000
001FFFFE0000
001FFFFC0000
000FFFFC0000
000FFFF80000
000FFFF00000
000FFFF00000
003FFFF80000
003FFFF80000
007FFFF80000
00FFFFF80000
00FFFFF80000
01FFFFF80000
03FFFFF80000
07FF9FFC0000
07FF9FFC0000
0FFF1FFC0000
1FFF0FFC0000
1FFE0FFE0000
3FFE07FE0000
3FFE07FE0000
7FFC03FC0000
7FFC01C00000
FFF800000000
FE0000000000
ENDCHAR
STARTCHAR 0079
ENCODING 121
SWIDTH 600 0
DWIDTH 40 0
BBX 39 46 10 0
BITMAP
000000010E
0000000FFE
00E0001FFE
0BE0001FFC
7FF0001FF8
FFF0003FF8
FFF0007FF0
FFF800FFE0
FFF800FFE0
FFF801FFC0
7FFC03FF80
7FFC03FF00
7FFC07FF00
3FFC0FFE00
3FFE1FFC00
3FFE1FFC00
1FFE3FF800
1FFE7FF000
1FFEFFF000
1FFEFFE000
0FFFFFC000
0FFFFFC000
0FFFFF8000
07FFFF0000
07FFFF0000
07FFFE0000
07FFFC0000
03FFF80000
03FFF80000
03FFF00000
01FFE00000
01FFE00000
01FFC00000
00FFC00000
00FFC00000
00FFC00000
01FFC00000
01FFC00000
01FFC00000
01FFC00000
01FFC00000
03FF800000
03FF800000
03FF800000
03FF000000
03FC000000
ENDCHAR
STARTCHAR 007A
ENCODING 122
SWIDTH 600 0
DWIDTH 40 0
BBX 35 46 8 0
BITMAP
00007FF000
0007FFFFE0
00FFFFFFC0
03FFFFFF80
07FFFFFF00
0FFFFFFF00
1FFFFFFE00
3FFFFFFC00
3FFFFFF800
7FFFFFF000
7FFFFFF000
FFFFFFE000
FF00FFC000
0001FF8000
0001FF8000
0003FF0000
0003FF0000
0007FE0000
000FFC0000
000FFC0000
001FF80000
001FF80000
003FF00000
003FF00000
007FE00000
007FE00000
00FFE00000
01FFC00000
01FFC00000
03FF800000
03FF800000
07FF000000
07FE000000
0FFC07EF80
1FFFFFFF80
1FFFFFFF80
3FFFFFFF80
3FFFFFFF00
7FFFFFFF00
7FFFFFFE00
7FFFFFFC00
FFFFFFF800
03FFFFF000
007FFFC000
001FFF0000
0000E00000
ENDCHAR
STARTCHAR 007B
ENCODING 123
SWIDTH 345 0
DWIDTH 23 0
BBX 27 64 6 -8
BITMAP
00000180
00000780
00001FC0
00001FC0
00003FC0
00007FC0
0000FFE0
0001FFE0
0003FFC0
0003FF80
0007FE00
0007FC00
000FF800
000FF800
000FF000
001FE000
001FE000
003FC000
003FC000
007F8000
007F8000
00FF8000
00FF0000
01FF0000
01FE0000
01FE0000
03FE0000
1FFC0000
3FFC0000
7FF80000
7FF80000
FFF80000
FFF80000
FFFC0000
FFFC0000
7FFC0000
07FC0000
07FC0000
07FC0000
07FC0000
07F80000
07F80000
07F80000
0FF80000
0FF80000
0FF80000
0FF00000
0FF00000
0FF00000
0FF00000
1FF00000
1FF00000
1FF00000
1FF00000
1FF80000
1FFE0000
1FFE0000
0FFE0000
0FFE0000
07FC0000
03FC0000
01F80000
00F80000
00100000
ENDCHAR
STARTCHAR 007C
ENCODING 124
SWIDTH 180 0
DWIDTH 12 0
BBX 23 67 0 -10
BITMAP
000300
0003FE
0007FE
0007FE
0007FC
0007FC
000FFC
000FFC
000FFC
001FF8
001FF8
001FF8
001FF8
003FF8
003FF0
003FF0
003FF0
003FF0
003FF0
007FE0
007FE0
007FE0
007FE0
00FFE0
00FFC0
00FFC0
00FFC0
00FF80
01FF80
01FF80
01FF80
01FF80
01FF00
03FF00
03FF00
03FF00
03FF00
07FF00
07FE00
07FE00
07FE00
07FC00
0FFC00
0FFC00
0FFC00
0FFC00
0FFC00
1FF800
1FF800
1FF800
1FF800
1FF000
1FF000
3FF000
3FF000
3FF000
3FE000
7FE000
7FE000
7FE000
7FC000
7FC000
FFC000
FFC000
FF8000
FF8000
FF8000
ENDCHAR
STARTCHAR 007D
ENCODING 125
SWIDTH 345 0
DWIDTH 23 0
BBX 27 64 1 -8
BITMAP
0001C000
0003E000
0007F000
0007F800
000FFC00
000FFE00
000FFE00
000FFF00
000FFF00
0003FF00
0001FF00
0001FF00
0001FF00
0003FE00
0003FE00
0001FE00
0001FE00
0003FE00
0003FE00
0003FE00
0003FC00
0003FC00
0003FC00
0007FC00
0007FC00
0007FC00
0007FC00
0007FC00
0007FFC0
0007FFE0
0007FFE0
0003FFE0
0003FFC0
0003FFC0
0003FFC0
0007FF80
0007FE00
000FF800
000FF000
001FF000
001FE000
001FE000
003FC000
003FC000
003F8000
007F8000
007F0000
00FF0000
01FE0000
01FE0000
03FE0000
07FC0000
07FC0000
1FFC0000
3FF80000
7FF00000
FFE00000
FFC00000
FFC00000
7F800000
7F000000
7E000000
3C000000
20000000
ENDCHAR
STARTCHAR 007E
ENCODING 126
SWIDTH 480 0
DWIDTH 32 0
BBX 32 15 5 16
BITMAP
00FC03FF
03FE03FF
07FF03FF
0FFF87FF
1FFFFFFE
3FFFFFFE
3FFFFFFE
7FFFFFFE
7FFFFFFC
7FFFFFF8
7FFFFFF0
FF9FFFE0
FF0FFFC0
FF07FF80
FF01FE00
ENDCHAR
STARTCHAR 00A0
ENCODING 160
SWIDTH 300 0
DWIDTH 20 0
BBX 0 0 0 0
BITMAP
ENDCHAR
STARTCHAR 00A1
ENCODING 161
SWIDTH 285 0
DWIDTH 19 0
BBX 24 50 -1 -13
BITMAP
0000FC
0003FF
0003FF
0007FF
000FFF
000FFF
000FFE
001FFE
001FFE
000FFC
0007F8
0001F0
000000
000000
000000
000000
001F00
003FC0
007FE0
007FE0
007FE0
00FFE0
00FFE0
00FFE0
01FFE0
01FFC0
01FFC0
03FFC0
03FFC0
03FFC0
07FFC0
07FFC0
0FFFC0
0FFFC0
0FFF80
1FFF80
1FFF80
1FFF80
3FFF80
3FFF80
3FFF80
7FFF80
7FFF80
7FFF80
7FFF80
FFFF80
FFFF80
FFFF80
FFFF80
0FFF00
ENDCHAR
STARTCHAR 00A2
ENCODING 162
SWIDTH 495 0
DWIDTH 33 0
BBX 35 57 5 -6
BITMAP
0000003F00
0000003FE0
0000007FE0
0000007FC0
0000007FC0
000000FF80
000001FF80
0000FFFF80
0003FFFF00
0007FFFF80
001FFFFFC0
003FFFFFC0
007FFFFFC0
00FFFFFFE0
00FFFFFFC0
01FFFFFFC0
03FFFFFFC0
07FFFFFFC0
07FFFFFF80
0FFFFFFF80
0FFFFFFF80
1FFFFFFF00
1FFF7FFF00
3FFCFFC600
3FF8FF8000
3FF8FF8000
7FF1FF0000
7FE1FF0000
7FE3FE0000
7FE3FE0000
FFE7FE0000
FFC7FC0000
FFCFFC0000
FFEFF80000
FFEFF80000
FFFFF00000
FFFFF00000
FFFFF0F800
FFFFFFF800
FFFFFFF800
FFFFFFF800
FFFFFFF800
7FFFFFF800
7FFFFFF800
3FFFFFF800
1FFFFFF000
1FFFFFE000
07FFFFC000
03FFFF0000
03FFFC0000
07FFC00000
07FC000000
0FF8000000
0FF8000000
0FF0000000
0FF0000000
01E0000000
ENDCHAR
STARTCHAR 00A3
ENCODING 163
SWIDTH 540 0
DWIDTH 36 0
BBX 41 46 2 0
BITMAP
000000060000
0000007FC000
000001FFF000
000003FFFC00
000007FFFE00
00001FFFFE00
00003FFFFE00
00007FFFFF00
00007FFFFF00
0000FFFFFF80
0000FFEFFF80
0001FFE7FF00
0003FFE7FF00
0003FFC3FF00
0007FF83FE00
0007FF83F000
000FFF800000
000FFF000000
000FFF000000
001FFF000000
07FFFFFF8000
07FFFFFF8000
0FFFFFFF8000
0FFFFFFF8000
0FFFFFFF8000
1FFFFFFF8000
1FFFFFFF0000
003FFC180000
007FFC000000
007FFC000000
007FFC000000
007FF8000000
007FF8000000
007FF8000000
00FFF8000000
3FFFFFFBF000
3FFFFFFFF000
7FFFFFFFE000
7FFFFFFFE000
7FFFFFFFC000
7FFFFFFFC000
7FFFFFFFC000
FFFFFFFF8000
7FFFFFFF8000
0FFFFFFF0000
0081FFE00000
ENDCHAR
STARTCHAR 00A4
ENCODING 164
SWIDTH 435 0
DWIDTH 29 0
BBX 31 27 4 10
BITMAP
00300060
007800F0
00FC03F8
03FFFBF8
07FFFFFC
0FFFFFFE
0FFFFFFE
0FFFFFFC
07FFFFF0
03FE3FE0
03FC1FC0
03F81FC0
03F01FC0
03F01F80
07F01F80
07F03F80
07F03F80
07F07F80
0FF8FFC0
3FFFFFE0
7FFFFFF0
FFFFFFF0
7FFFFFE0
3FFFFF80
1F843F00
0F001E00
06001C00
ENDCHAR
STARTCHAR 00A5
ENCODING 165
SWIDTH 600 0
DWIDTH 40 0
BBX 43 46 6 0
BITMAP
0000000010E0
00000000FFE0
000E0001FFE0
00BE0001FFC0
07FF0001FF80
0FFF0003FF80
0FFF0007FF00
0FFF800FFE00
0FFF800FFE00
0FFF801FFC00
07FFC03FF800
07FFC03FF000
07FFC07FF000
03FFC0FFE000
03FFE1FFC000
03FFE1FFC000
01FFE3FF8000
01FFE7FF0000
01FFEFFF0000
01FFEFFE0000
07FFFFFF8000
0FFFFFFF8000
0FFFFFFF8000
1FFFFFFF8000
1FFFFFFF8000
1FFFFFFF8000
1FFFFFFF8000
3FFFFFFF0000
3FFFFF800000
063FFF000000
001FFE000000
1FFFFFFE0000
3FFFFFFF0000
3FFFFFFE0000
3FFFFFFE0000
7FFFFFFE0000
7FFFFFFE0000
7FFFFFFE0000
7FFFFFFC0000
FFFFFE000000
081FFC000000
003FF8000000
003FF8000000
003FF8000000
003FF0000000
003FC0000000
ENDCHAR
STARTCHAR 00A6
ENCODING 166
SWIDTH 180 0
DWIDTH 12 0
BBX 23 67 0 -10
BITMAP
0003FE
0003FE
0007FE
0007FE
000FFC
000FFC
000FFC
000FFC
000FFC
001FF8
001FF8
001FF8
001FF8
001FF8
003FF0
003FF0
003FF0
003FF0
003FF0
007FF0
007FE0
007FE0
007FE0
007FE0
007FC0
007FC0
00FFC0
00FF80
00FF80
00FF80
000000
000000
000000
000000
000000
000000
000000
000000
07FC00
07FE00
07FC00
07FC00
0FFC00
0FFC00
0FFC00
0FF800
1FF800
1FF800
1FF800
1FF800
1FF800
3FF000
3FF000
3FF000
3FF000
3FF000
7FE000
7FE000
7FE000
7FE000
FFC000
FFC000
FFC000
FFC000
FFC000
FF8000
FF8000
ENDCHAR
STARTCHAR 00A7
ENCODING 167
SWIDTH 495 0
DWIDTH 33 0
BBX 32 57 6 -5
BITMAP
00001F80
0000FFF0
0003FFF8
0007FFFC
001FFFFE
003FFFFE
007FFFFF
007FFFFF
00FFFFFE
00FFFFFE
00FFFFFE
01FFFC7C
01FFF038
01FFE000
01FFE000
01FFE000
01FFE000
03FFF800
07FFFE00
07FFFFC0
0FFFFFF0
0FFFFFF8
1FFFFFFC
3FFFFFFC
3FFFFFFE
7FFFFFFE
7FFC1FFF
FFE00FFF
FFE00FFF
FFE00FFE
FFF03FFE
FFFFFFFC
FFFFFFFC
7FFFFFF8
3FFFFFF8
1FFFFFF0
0FFFFFE0
03FFFFE0
007FFFC0
001FFF80
000FFF00
0007FF00
0007FF00
0007FF80
380FFF00
7C3FFF00
7FFFFF00
FFFFFF00
FFFFFE00
FFFFFE00
FFFFFC00
FFFFFC00
7FFFF800
7FFFE000
3FFF8000
0FFE0000
03F80000
ENDCHAR
STARTCHAR 00A8
ENCODING 168
SWIDTH 300 0
DWIDTH 20 0
BBX 18 7 12 47
BITMAP
3C0780
7E0FC0
FE1FC0
FE1FC0
FE1FC0
FC1F80
780F00
ENDCHAR
STARTCHAR 00A9
ENCODING 169
SWIDTH 660 0
DWIDTH 44 0
BBX 44 43 5 2
BITMAP
0000003F0000
00000FFFF000
0000FFFFFC00
0003FFFFFF00
000FFFFFFF80
003FFFFFFFC0
007FFFFFFFC0
00FFFC03FFE0
01FFE000FFE0
01FF80007FE0
03FE00003FE0
07FC07F01FF0
07F80FFC0FF0
0FF01FFE0FF0
0FE03FFE0FF0
1FC07FFC07F0
1F80FFFC07F0
3F80FFFC07F0
3F01FFFC07F0
3F01FC0007F0
7F03FC0007F0
7E03F8000FF0
7E03F8000FE0
7E03F0000FE0
7E03F0000FE0
FE07F8001FC0
FF07FC001FC0
FF03FFF01F80
FF03FFF03F80
FF03FFF03F00
FF81FFF07E00
7F80FFC07E00
7FC03F00FC00
7FE00003F800
7FF0000FF000
3FF8007FE000
3FFFFFFFC000
1FFFFFFF8000
1FFFFFFE0000
0FFFFFF80000
03FFFFF00000
00FFFFC00000
0007FE000000
ENDCHAR
STARTCHAR 00AA
ENCODING 170
SWIDTH 330 0
DWIDTH 22 0
BBX 20 23 6 22
BITMAP
000380
000780
000F80
000F80
001F80
001F80
003F80
003FC0
007FC0
00FFC0
00FFC0
01FFC0
03CFC0
038FC0
070FC0
0FFFC0
0FFFC0
1FFFE0
3F1FE0
3E1FE0
7E1FE0
FC0FF0
FC0CE0
ENDCHAR
STARTCHAR 00AB
ENCODING 171
SWIDTH 465 0
DWIDTH 31 0
BBX 33 30 4 1
BITMAP
0000400080
0001C00180
0007C00780
000FC00F80
001F801F00
003F807F00
00FF80FF00
01FF03FF00
03FF07FF00
07FF1FFE00
0FFF3FFE00
1FFEFFFE00
3FF8FFF000
7FC0FF0000
7F01FC0000
FE01FC0000
FF01FF0000
FFC1FFC000
FFF8FFF000
FFFC7FF800
3FFC7FF800
1FFC3FF000
0FFC1FF000
07FC1FF000
03F80FF000
01F807F000
00F803F000
007803E000
003001E000
0010006000
ENDCHAR
STARTCHAR 00AC
ENCODING 172
SWIDTH 480 0
DWIDTH 32 0
BBX 32 18 5 11
BITMAP
07F1FCC0
3FFFFFFF
3FFFFFFE
3FFFFFFE
3FFFFFFE
7FFFFFFE
7FFFFFFE
7FFFFFFE
7FFFFFFC
FFFFFFFC
1C000FFC
00000FFC
00001FF8
00001FF8
00001FF8
00001FF8
00001FF0
00000110
ENDCHAR
STARTCHAR 00AD
ENCODING 173
SWIDTH 390 0
DWIDTH 26 0
BBX 26 11 5 18
BITMAP
07C7DC00
3FFFFFC0
3FFFFF80
3FFFFF80
7FFFFF80
7FFFFF80
7FFFFF80
7FFFFF80
FFFFFF00
FFFFFF00
38000000
ENDCHAR
STARTCHAR 00AE
ENCODING 174
SWIDTH 450 0
DWIDTH 30 0
BBX 28 28 8 19
BITMAP
001FFC00
00FFFE00
01FFFF80
07FFFFC0
07F00FE0
0FC003E0
1F8F81F0
3F3FE0F0
3E3EF0F0
7C3E70F0
7C7C70F0
787CE0F0
F87FE0F0
F07F80F0
F07F81F0
F07FC1F0
F07DC1F0
F0FDE3E0
F8FDE7E0
F8FCE7C0
FC788F80
FE003F80
7F807F00
7FFFFE00
3FFFFC00
1FFFF800
07FFE000
007E0000
ENDCHAR
STARTCHAR 00AF
ENCODING 175
SWIDTH 315 0
DWIDTH 21 0
BBX 21 7 11 47
BITMAP
0F1E80
7FFFF8
7FFFF8
7FFFF0
7FFFF0
FFFFF0
300000
ENDCHAR
STARTCHAR 00B0
ENCODING 176
SWIDTH 315 0
DWIDTH 21 0
BBX 20 22 9 26
BITMAP
001C00
01FF00
07FF80
0FFFC0
1FFFE0
3FFFF0
3F8FF0
7F07F0
7E07F0
FE07F0
FC07F0
FC07F0
FC07E0
FC0FE0
FE0FC0
FE1FC0
FFFF80
7FFF00
7FFE00
3FFC00
1FF000
0FC000
ENDCHAR
STARTCHAR 00B1
ENCODING 177
SWIDTH 465 0
DWIDTH 31 0
BBX 34 39 2 -1
BITMAP
00007FC000
00007FC000
00007FC000
0000FFC000
0000FF8000
0000FF8000
0000FF8000
0000FF8000
0001FF8000
0001FF8400
07FFFFFFC0
07FFFFFFC0
0FFFFFFFC0
0FFFFFFFC0
0FFFFFFFC0
0FFFFFFF80
0FFFFFFF80
1FFFFFFF80
1FFFFFFF80
0007FC0800
0007FC0000
0007FC0000
000FFC0000
000FFC0000
000FFC0000
000FF80000
000FF80000
000FF80000
0000000000
0000000000
000FF06000
FFFFFFFC00
FFFFFFF800
FFFFFFF800
FFFFFFF800
FFFFFFF800
FFFFFFF000
FFFFFFF000
0078000000
ENDCHAR
STARTCHAR 00B2
ENCODING 178
SWIDTH 270 0
DWIDTH 18 0
BBX 17 23 7 23
BITMAP
01F000
03FC00
07FE00
1FFE00
1FFE00
1F7E00
0E3E00
003E00
003C00
007C00
007800
00F000
01F000
03F780
03FF80
07FF00
0FFF00
1FFE00
1FFE00
7FFC00
FFFC00
3FC000
020000
ENDCHAR
STARTCHAR 00B3
ENCODING 179
SWIDTH 240 0
DWIDTH 16 0
BBX 15 22 7 23
BITMAP
03F8
0FF8
0FF8
0FF0
00F0
01E0
03E0
07F0
0FFC
1FFE
1FFE
07FE
001E
001E
001E
001E
003E
C0FC
FFFC
FFF8
7FF0
1FC0
ENDCHAR
STARTCHAR 00B4
ENCODING 180
SWIDTH 225 0
DWIDTH 15 0
BBX 15 11 12 47
BITMAP
01FC
07FE
07FC
0FF8
1FF0
3FE0
7FC0
7F80
FE00
FE00
3C00
ENDCHAR
STARTCHAR 00B5
ENCODING 181
SWIDTH 540 0
DWIDTH 36 0
BBX 41 46 0 -10
BITMAP
000000001E00
007FE003FE00
007FE007FE00
00FFE007FF00
00FFE007FF00
00FFC007FF00
00FFC007FF00
01FFC007FF80
01FFC007FF80
01FF800FFF80
01FF800FFF80
03FF800FFF80
03FF801FFF00
03FF801FFF00
03FF801FFF00
03FF803FFF00
07FF807FFE00
07FFC07FFE00
07FFC1FFFE00
07FFC3FFFC00
0FFFFFFFFC00
0FFFFFFFFC00
0FFFFFFFF800
0FFFFFFFF800
0FFFFFFFF000
1FFFFFFFE000
1FFFFFFFE000
1FFFFFFFC000
1FFFFFFF8000
1FFFFFFF8000
3FFFFFFF0000
3FFFFFFC0000
3FFFFFF80000
3FF7FFC00000
3FF0FE000000
7FE000000000
7FE000000000
7FE000000000
7FE000000000
7FE000000000
FFE000000000
FFC000000000
FFC000000000
FFC000000000
FF8000000000
FF8000000000
ENDCHAR
STARTCHAR 00B6
ENCODING 182
SWIDTH 390 0
DWIDTH 26 0
BBX 28 52 7 -4
BITMAP
000FFFF0
007FFFE0
01FFFFE0
03FFFFE0
07FFFFE0
0FFFFFE0
1FFFFFE0
1FFFFFC0
3FFFFFC0
3FFF0FC0
3FFF0FC0
3FFF1FC0
3FFF1F80
7FFE1F80
7FFE3F80
7FFE3F80
7FFE3F80
7FFC3F00
FFFC7F00
FFFC7F00
FFFC7F00
FFFC7F00
FFFC7E00
7FF8FE00
7FF8FE00
7FF8FE00
3FF8FC00
07F8FC00
07F1FC00
07F1FC00
07F1F800
07F1F800
07F3F800
0FE3F800
0FE3F800
0FE3F800
0FE3F000
0FE7F000
1FC7F000
1FC7F000
1FC7E000
1FCFE000
1FCFE000
3F8FE000
3F8FE000
3F8FC000
3F8FC000
7F8FC000
7F1FC000
7F1FC000
7F1F8000
7E1F0000
ENDCHAR
STARTCHAR 00B7
ENCODING 183
SWIDTH 210 0
DWIDTH 14 0
BBX 12 13 6 17
BITMAP
01C0
0FE0
3FF0
7FF0
7FF0
FFF0
FFF0
FFF0
FFE0
FFE0
7FC0
3F00
1C00
ENDCHAR
STARTCHAR 00B8
ENCODING 184
SWIDTH 300 0
DWIDTH 20 0
BBX 19 14 -1 -11
BITMAP
00FC00
01FC00
01FE00
01FE00
01FF00
00FF80
007FC0
001FE0
301FE0
7F1FE0
FFFFC0
FFFFC0
7FFF80
1FFE00
ENDCHAR
STARTCHAR 00B9
ENCODING 185
SWIDTH 225 0
DWIDTH 15 0
BBX 12 21 10 25
BITMAP
03E0
0FF0
1FF0
7FE0
FFE0
FFE0
77E0
27E0
0FE0
0FC0
1FC0
1FC0
1FC0
3FC0
3FC0
3F80
7F80
7F80
7F80
FF80
7FC0
ENDCHAR
STARTCHAR 00BA
ENCODING 186
SWIDTH 270 0
DWIDTH 18 0
BBX 17 24 8 23
BITMAP
00C000
01F000
03F800
07FE00
07FE00
0FFF00
1FFF00
1FFF80
3FFF80
7F1F80
7E1F80
7E1F80
FE1F80
FE3F80
FE3F80
FFFF00
FFFF00
FFFF00
FFFE00
7FFE00
7FFC00
3FF800
1FF000
078000
ENDCHAR
STARTCHAR 00BB
ENCODING 187
SWIDTH 465 0
DWIDTH 31 0
BBX 33 30 2 1
BITMAP
0300000000
0780040000
07C00E0000
07E00F0000
07F00F8000
07F01FC000
07F81FE000
0FFC1FF000
0FFC1FF800
0FFE1FFC00
0FFF3FFE00
07FF3FFF80
01FF8FFF80
00FF81FF80
003F807F00
003F803F00
00FF00FF00
07FF07FF00
3FFF1FFC00
3FFE7FF800
7FF87FF000
7FE0FFE000
7FC0FFC000
7F80FF8000
FE00FF0000
FC01FE0000
F801FC0000
E001F00000
C001E00000
8003800000
ENDCHAR
STARTCHAR 00BC
ENCODING 188
SWIDTH 555 0
DWIDTH 37 0
BBX 39 47 4 0
BITMAP
0000000078
000F8000FE
003FC001FE
007FC001FC
01FF8003FC
03FF8007F8
03FF800FF0
01DF800FF0
009F801FE0
003F803FC0
003F003F80
007F007F80
007F00FF00
007F01FE00
00FF03FC00
00FF03FC00
00FE07F800
01FE0FF000
01FE1FE000
01FE3FC000
03FE3FC000
01FF7F8000
0000FF0000
0001FE0000
0003FC1F00
0003F83E00
0007F83E00
000FF03C00
001FE07C00
003FC07800
003F80F800
007F80F000
00FF01F7E0
01FE01FFE0
03FC03FFE0
03F803FFE0
07F007FFC0
0FF0071E00
1FE0001E00
3FC0003E00
7F80003E00
7F00007C00
FE00007C00
FC0000FC00
780000FC00
000001FC00
000001F800
ENDCHAR
STARTCHAR 00BD
ENCODING 189
SWIDTH 555 0
DWIDTH 37 0
BBX 39 45 4 2
BITMAP
0000000078
000F8000FE
003FC001FE
007FC001FC
01FF8003FC
03FF8007F8
03FF800FF0
01DF800FF0
009F801FE0
003F803FC0
003F003F80
007F007F80
007F00FF00
007F01FE00
00FF03FC00
00FF03FC00
00FE07F800
01FE0FF000
01FE1FE000
01FE3FC000
03FE3FC000
01FF7F8000
0000FF0000
0001FE7E00
0003FCFF00
0003F9FF80
0007FFFF80
000FF7FF80
001FE7DF80
003FC30F80
003F820F00
007F801F00
00FF001E00
01FE003E00
03FC003C00
03F8007800
07F000FFE0
0FF001FFC0
1FE001FFC0
3FC003FF80
7F8007FF80
7F000FFF80
FE003FFF00
FC003FFE00
78000FF000
ENDCHAR
STARTCHAR 00BE
ENCODING 190
SWIDTH 555 0
DWIDTH 37 0
BBX 39 47 4 0
BITMAP
0000000078
007F0000FE
01FF0001FE
01FF0001FC
01FE0003FC
001E0007F8
003C000FF0
007C000FF0
00FE001FE0
01FF803FC0
03FFC03F80
03FFC07F80
00FFC0FF00
0003C1FE00
0003C3FC00
0003C3FC00
0003C7F800
0007CFF000
181F9FE000
1FFFBFC000
1FFF3FC000
0FFE7F8000
03F8FF0000
0001FE0000
0003FC1F00
0003F83E00
0007F83E00
000FF03C00
001FE07C00
003FC07800
003F80F800
007F80F000
00FF01F7E0
01FE01FFE0
03FC03FFE0
03F803FFE0
07F007FFC0
0FF0071E00
1FE0001E00
3FC0003E00
7F80003E00
7F00007C00
FE00007C00
FC0000FC00
780000FC00
000001FC00
000001F800
ENDCHAR
STARTCHAR 00BF
ENCODING 191
SWIDTH 465 0
DWIDTH 31 0
BBX 30 48 0 -13
BITMAP
000003E0
00000FF8
00001FF8
00003FFC
00003FFC
00003FFC
00003FF8
00003FF8
00003FF0
00001FC0
00000F00
00000000
00000000
00000000
00000000
00007FE0
00007FE0
0000FFC0
0000FFC0
0001FFC0
0003FFC0
0007FFC0
001FFF80
007FFF80
01FFFF00
03FFFF00
07FFFC00
0FFFE000
0FFF0000
1FFE0000
1FF80000
3FF80000
3FF80000
3FF00000
7FF000E0
7FF001F0
7FF007F8
7FF81FF8
FFFFFFF8
FFFFFFF8
FFFFFFF0
FFFFFFF0
FFFFFFE0
7FFFFFC0
7FFFFF80
3FFFFF00
0FFFFE00
003FF800
ENDCHAR
STARTCHAR 00C0
ENCODING 192
SWIDTH 630 0
DWIDTH 42 0
BBX 40 60 1 -2
BITMAP
000001FE00
000003FE00
000003FF00
000001FF00
000000FF80
000000FF80
0000007F80
0000003FC0
0000001FC0
0000001FC0
0000001E00
0000000000
0000000000
00000003C0
0000001FC0
0000001FE0
0000003FE0
0000003FE0
0000007FE0
000000FFE0
000000FFE0
000001FFE0
000001FFE0
000003FFE0
000003FFE0
000007FFE0
00000FFFE0
00000FFFE0
00001FFFE0
00001FFFE0
00003FFFF0
00007FFFF0
00007FFFF0
0000FFFFF0
0001FFFFF0
0001FFFFF0
0003FFFFF0
0007F9FFF0
0007F0FFF0
000FE0FFF0
001FC0FFF0
001FC0FFF8
003F80FFF8
003F07FFF8
007FFFFFF8
00FFFFFFF8
00FFFFFFF8
01FFFFFFFC
03FFFFFFFC
03FFC1FFFC
07FF01FFFC
0FFE01FFFC
0FFE01FFFE
1FFC01FFFE
3FFC01FFFE
3FF801FFFF
7FF801FFFF
FFF800FFFF
FFE000E000
C000000000
ENDCHAR
STARTCHAR 00C1
ENCODING 193
SWIDTH 630 0
DWIDTH 42 0
BBX 44 60 1 -2
BITMAP
000000000FF0
000000001FF0
000000003FF0
000000007FE0
000000007F80
00000000FF00
00000001FE00
00000003FC00
00000003F800
00000007F000
00000000E000
000000000000
000000000000
00000003C000
0000001FC000
0000001FE000
0000003FE000
0000003FE000
0000007FE000
000000FFE000
000000FFE000
000001FFE000
000001FFE000
000003FFE000
000003FFE000
000007FFE000
00000FFFE000
00000FFFE000
00001FFFE000
00001FFFE000
00003FFFF000
00007FFFF000
00007FFFF000
0000FFFFF000
0001FFFFF000
0001FFFFF000
0003FFFFF000
0007F9FFF000
0007F0FFF000
000FE0FFF000
001FC0FFF000
001FC0FFF800
003F80FFF800
003F07FFF800
007FFFFFF800
00FFFFFFF800
00FFFFFFF800
01FFFFFFFC00
03FFFFFFFC00
03FFC1FFFC00
07FF01FFFC00
0FFE01FFFC00
0FFE01FFFE00
1FFC01FFFE00
3FFC01FFFE00
3FF801FFFF00
7FF801FFFF00
FFF800FFFF00
FFE000E00000
C00000000000
ENDCHAR
STARTCHAR 00C2
ENCODING 194
SWIDTH 630 0
DWIDTH 42 0
BBX 42 60 1 -2
BITMAP
000000006000
00000001F000
00000007F800
0000001FFC00
0000003FFE00
0000007FFF00
000001FFFF80
000003FF7FC0
000003FC3FC0
000003F81F80
000001800E00
000000000000
000000000000
00000003C000
0000001FC000
0000001FE000
0000003FE000
0000003FE000
0000007FE000
000000FFE000
000000FFE000
000001FFE000
000001FFE000
000003FFE000
000003FFE000
000007FFE000
00000FFFE000
00000FFFE000
00001FFFE000
00001FFFE000
00003FFFF000
00007FFFF000
00007FFFF000
0000FFFFF000
0001FFFFF000
0001FFFFF000
0003FFFFF000
0007F9FFF000
0007F0FFF000
000FE0FFF000
001FC0FFF000
001FC0FFF800
003F80FFF800
003F07FFF800
007FFFFFF800
00FFFFFFF800
00FFFFFFF800
01FFFFFFFC00
03FFFFFFFC00
03FFC1FFFC00
07FF01FFFC00
0FFE01FFFC00
0FFE01FFFE00
1FFC01FFFE00
3FFC01FFFE00
3FF801FFFF00
7FF801FFFF00
FFF800FFFF00
FFE000E00000
C00000000000
ENDCHAR
STARTCHAR 00C3
ENCODING 195
SWIDTH 630 0
DWIDTH 42 0
BBX 43 59 1 -2
BITMAP
0000001E07E0
0000003F87E0
0000007FCFE0
000000FFFFE0
000001FFFFE0
000001FFFFC0
000001FFFF80
000001F3FF00
000003F1FE00
000003E07800
000000000000
000000000000
00000003C000
0000001FC000
0000001FE000
0000003FE000
0000003FE000
0000007FE000
000000FFE000
000000FFE000
000001FFE000
000001FFE000
000003FFE000
000003FFE000
000007FFE000
00000FFFE000
00000FFFE000
00001FFFE000
00001FFFE000
00003FFFF000
00007FFFF000
00007FFFF000
0000FFFFF000
0001FFFFF000
0001FFFFF000
0003FFFFF000
0007F9FFF000
0007F0FFF000
000FE0FFF000
001FC0FFF000
001FC0FFF800
003F80FFF800
003F07FFF800
007FFFFFF800
00FFFFFFF800
00FFFFFFF800
01FFFFFFFC00
03FFFFFFFC00
03FFC1FFFC00
07FF01FFFC00
0FFE01FFFC00
0FFE01FFFE00
1FFC01FFFE00
3FFC01FFFE00
3FF801FFFF00
7FF801FFFF00
FFF800FFFF00
FFE000E00000
C00000000000
ENDCHAR
STARTCHAR 00C4
ENCODING 196
SWIDTH 630 0
DWIDTH 42 0
BBX 42 56 1 -2
BITMAP
000000380F80
0000007C1FC0
000000FE1FC0
000001FC3FC0
000001FC3F80
000001FC3F00
000000F80E00
000000000000
000000000000
00000003C000
0000001FC000
0000001FE000
0000003FE000
0000003FE000
0000007FE000
000000FFE000
000000FFE000
000001FFE000
000001FFE000
000003FFE000
000003FFE000
000007FFE000
00000FFFE000
00000FFFE000
00001FFFE000
00001FFFE000
00003FFFF000
00007FFFF000
00007FFFF000
0000FFFFF000
0001FFFFF000
0001FFFFF000
0003FFFFF000
0007F9FFF000
0007F0FFF000
000FE0FFF000
001FC0FFF000
001FC0FFF800
003F80FFF800
003F07FFF800
007FFFFFF800
00FFFFFFF800
00FFFFFFF800
01FFFFFFFC00
03FFFFFFFC00
03FFC1FFFC00
07FF01FFFC00
0FFE01FFFC00
0FFE01FFFE00
1FFC01FFFE00
3FFC01FFFE00
3FF801FFFF00
7FF801FFFF00
FFF800FFFF00
FFE000E00000
C00000000000
ENDCHAR
STARTCHAR 00C5
ENCODING 197
SWIDTH 630 0
DWIDTH 42 0
BBX 41 60 1 -2
BITMAP
000000004000
0000000FFC00
0000003FFE00
0000007FFF00
000000FFFF80
000001FC3F80
000003F81F80
000003F01F80
000003F01F80
000007F01F80
000007F03F80
000007F03F00
000007F87F00
000003FFFE00
000001FFF800
000001FFF000
0000007FE000
0000003FE000
0000007FE000
000000FFE000
000000FFE000
000001FFE000
000001FFE000
000003FFE000
000003FFE000
000007FFE000
00000FFFE000
00000FFFE000
00001FFFE000
00001FFFE000
00003FFFF000
00007FFFF000
00007FFFF000
0000FFFFF000
0001FFFFF000
0001FFFFF000
0003FFFFF000
0007F9FFF000
0007F0FFF000
000FE0FFF000
001FC0FFF000
001FC0FFF800
003F80FFF800
003F07FFF800
007FFFFFF800
00FFFFFFF800
00FFFFFFF800
01FFFFFFFC00
03FFFFFFFC00
03FFC1FFFC00
07FF01FFFC00
0FFE01FFFC00
0FFE01FFFE00
1FFC01FFFE00
3FFC01FFFE00
3FF801FFFF00
7FF801FFFF00
FFF800FFFF00
FFE000E00000
C00000000000
ENDCHAR
STARTCHAR 00C6
ENCODING 198
SWIDTH 735 0
DWIDTH 49 0
BBX 50 47 1 -1
BITMAP
000000007FFC00
0000000FFFFFC0
0000001FFFFFC0
0000001FFFFF80
0000003FFFFF80
0000003FFFFF00
0000007FFFFF00
000000FFFFFE00
000000FFFFFE00
000001FFFFFE00
000001FFFFFC00
000003FFFFFE00
000007FFFFFC00
000007FFFFF800
00000FFFF80000
00000FFFF80000
00001FFFF80000
00003FFFF80000
00003FFFF81000
00007FFFFBF800
00007FFFFFF000
0000FFFFFFF000
0001FFFFFFE000
0001FFFFFFE000
0003FDFFFFF000
0007F8FFFFF000
0007F0FFF00000
000FE0FFF00000
001FC0FFF00300
001F80FFFFFF00
003F80FFFFFF00
007F8FFFFFFF00
007FFFFFFFFF00
00FFFFFFFFFF00
01FFFFFFFFFF00
01FFFFFFFFFF00
03FFF9FFFFFF00
07FFC1FFFFFF00
07FF01FFFFFF00
0FFE01FFFFFF00
1FFC01FFFFFF00
1FFC01FFFFFE00
3FFC01FFFFF000
3FF801FFFF0000
7FF800FFC00000
FFF800FC000000
FF000080000000
ENDCHAR
STARTCHAR 00C7
ENCODING 199
SWIDTH 480 0
DWIDTH 32 0
BBX 35 56 5 -11
BITMAP
00000FF800
00007FFE00
0003FFFF80
000FFFFFC0
003FFFFFE0
007FFFFFE0
00FFFFFFE0
01FFFFFFE0
03FFFFFFC0
03FFFFFFC0
07FFFFFFC0
0FFFFFFF80
0FFFFF8D00
1FFFF80000
1FFFE00000
3FFF800000
3FFF000000
3FFF000000
3FFE000000
3FFE000000
7FFE000000
7FFC000000
7FFE000000
7FFE000000
FFFF000C00
FFFF83FC00
FFFFFFFC00
FFFFFFFC00
FFFFFFFC00
FFFFFFF800
FFFFFFF800
FFFFFFF800
FFFFFFF800
7FFFFFF000
7FFFFFF000
7FFFFFF000
7FFFFFF000
3FFFFFE000
3FFFFFC000
3FFFFF8000
1FFFFF0000
1FFFFC0000
03FFF80000
01FFC00000
03FC000000
03FC000000
01FE000000
01FF000000
00FF800000
003FC00000
601FC00000
FF3FC00000
FFFFC00000
FFFF800000
7FFF000000
1FFC000000
ENDCHAR
STARTCHAR 00C8
ENCODING 200
SWIDTH 495 0
DWIDTH 33 0
BBX 27 58 8 0
BITMAP
00FC0000
07FE0000
07FE0000
03FF0000
01FF0000
00FF8000
007F8000
007F8000
003FC000
001F0000
00000000
000F0000
00FFFF80
07FFFFE0
1FFFFFC0
3FFFFFC0
3FFFFFC0
3FFFFF80
1FFFFF80
1FFFFF00
1FFFFF00
1FFFFE00
1FFFFE00
1FFFFE00
3FFFFE00
3FFFFC00
3FFC0000
3FF80000
3FF80000
3FF80000
3FFC3800
3FFFF800
3FFFF800
3FFFF000
3FFFF000
3FFFF000
3FFFF800
3FFF0000
3FF80000
3FF80000
3FF80380
3FFFFF80
3FFFFF80
7FFFFF80
3FFFFF80
3FFFFF80
3FFFFF80
7FFFFF80
7FFFFF80
7FFFFF80
7FFFFF80
7FFFFF80
7FFFFF80
FFFFFE00
FFFFE000
7FFE0000
7FC00000
78000000
ENDCHAR
STARTCHAR 00C9
ENCODING 201
SWIDTH 495 0
DWIDTH 33 0
BBX 27 59 8 0
BITMAP
00003F80
0000FF80
0001FF00
0001FE00
0003FC00
0007F800
0007F800
000FF000
000FE000
001FC000
001F8000
00000000
000F0000
00FFFF80
07FFFFE0
1FFFFFC0
3FFFFFC0
3FFFFFC0
3FFFFF80
1FFFFF80
1FFFFF00
1FFFFF00
1FFFFE00
1FFFFE00
1FFFFE00
3FFFFE00
3FFFFC00
3FFC0000
3FF80000
3FF80000
3FF80000
3FFC3800
3FFFF800
3FFFF800
3FFFF000
3FFFF000
3FFFF000
3FFFF800
3FFF0000
3FF80000
3FF80000
3FF80380
3FFFFF80
3FFFFF80
7FFFFF80
3FFFFF80
3FFFFF80
3FFFFF80
7FFFFF80
7FFFFF80
7FFFFF80
7FFFFF80
7FFFFF80
7FFFFF80
FFFFFE00
FFFFE000
7FFE0000
7FC00000
78000000
ENDCHAR
STARTCHAR 00CA
ENCODING 202
SWIDTH 495 0
DWIDTH 33 0
BBX 27 58 8 1
BITMAP
0007C000
001FE000
003FF000
00FFFC00
01FFFE00
03FFFF00
07FDFF00
0FF8FF00
0FE07E00
0FC00000
06000000
000F0000
00FFFF80
07FFFFE0
1FFFFFC0
3FFFFFC0
3FFFFFC0
3FFFFF80
1FFFFF80
1FFFFF00
1FFFFF00
1FFFFE00
1FFFFE00
1FFFFE00
3FFFFE00
3FFFFC00
3FFC0000
3FF80000
3FF80000
3FF80000
3FFC3800
3FFFF800
3FFFF800
3FFFF000
3FFFF000
3FFFF000
3FFFF800
3FFF0000
3FF80000
3FF80000
3FF80380
3FFFFF80
3FFFFF80
7FFFFF80
3FFFFF80
3FFFFF80
3FFFFF80
7FFFFF80
7FFFFF80
7FFFFF80
7FFFFF80
7FFFFF80
7FFFFF80
FFFFFE00
FFFFE000
7FFE0000
7FC00000
78000000
ENDCHAR
STARTCHAR 00CB
ENCODING 203
SWIDTH 495 0
DWIDTH 33 0
BBX 27 55 8 0
BITMAP
00007C00
01E0FE00
03F0FE00
07F0FE00
0FF0FC00
0FE0FC00
0FE03000
07C00000
000F0000
00FFFF80
07FFFFE0
1FFFFFC0
3FFFFFC0
3FFFFFC0
3FFFFF80
1FFFFF80
1FFFFF00
1FFFFF00
1FFFFE00
1FFFFE00
1FFFFE00
3FFFFE00
3FFFFC00
3FFC0000
3FF80000
3FF80000
3FF80000
3FFC3800
3FFFF800
3FFFF800
3FFFF000
3FFFF000
3FFFF000
3FFFF800
3FFF0000
3FF80000
3FF80000
3FF80380
3FFFFF80
3FFFFF80
7FFFFF80
3FFFFF80
3FFFFF80
3FFFFF80
7FFFFF80
7FFFFF80
7FFFFF80
7FFFFF80
7FFFFF80
7FFFFF80
FFFFFE00
FFFFE000
7FFE0000
7FC00000
78000000
ENDCHAR
STARTCHAR 00CC
ENCODING 204
SWIDTH 330 0
DWIDTH 22 0
BBX 29 58 2 0
BITMAP
0001FE00
0003FF00
0001FF00
0001FF00
0000FF80
00007F80
00007FC0
00003FC0
00001FC0
00001FC0
00000E00
00000000
00000000
0001FFC0
0003FFF8
0007FFF0
0007FFE0
0007FFE0
0007FFE0
000FFFC0
000FFFC0
000FFF80
001FFF80
001FFF80
003FFF00
003FFF00
003FFF00
003FFF00
007FFE00
007FFE00
007FFE00
00FFFE00
00FFFC00
00FFFC00
01FFFC00
01FFF800
01FFF800
01FFF800
03FFF800
03FFF800
03FFF000
07FFF000
07FFF000
07FFF000
07FFF000
07FFE000
0FFFE000
0FFFE000
0FFFE000
1FFFE000
1FFF8000
1FFF8000
3FFF8000
3FFF8000
7FFF0000
7FFE0000
FFE00000
F8000000
ENDCHAR
STARTCHAR 00CD
ENCODING 205
SWIDTH 330 0
DWIDTH 22 0
BBX 34 58 2 0
BITMAP
0000003FC0
0000007FC0
000000FFC0
000000FF80
000001FF00
000003FC00
000007F800
000007F000
00000FE000
00001FC000
0000038000
0000000000
0000000000
0001FFC000
0003FFF800
0007FFF000
0007FFE000
0007FFE000
0007FFE000
000FFFC000
000FFFC000
000FFF8000
001FFF8000
001FFF8000
003FFF0000
003FFF0000
003FFF0000
003FFF0000
007FFE0000
007FFE0000
007FFE0000
00FFFE0000
00FFFC0000
00FFFC0000
01FFFC0000
01FFF80000
01FFF80000
01FFF80000
03FFF80000
03FFF80000
03FFF00000
07FFF00000
07FFF00000
07FFF00000
07FFF00000
07FFE00000
0FFFE00000
0FFFE00000
0FFFE00000
1FFFE00000
1FFF800000
1FFF800000
3FFF800000
3FFF800000
7FFF000000
7FFE000000
FFE0000000
F800000000
ENDCHAR
STARTCHAR 00CE
ENCODING 206
SWIDTH 330 0
DWIDTH 22 0
BBX 33 58 2 0
BITMAP
000000C000
000007E000
00000FF000
00003FF800
00007FFC00
0001FFFE00
0003FFFF00
0007FEFF80
000FF87F80
0007F03F00
0003001C00
0000000000
0000000000
0001FFC000
0003FFF800
0007FFF000
0007FFE000
0007FFE000
0007FFE000
000FFFC000
000FFFC000
000FFF8000
001FFF8000
001FFF8000
003FFF0000
003FFF0000
003FFF0000
003FFF0000
007FFE0000
007FFE0000
007FFE0000
00FFFE0000
00FFFC0000
00FFFC0000
01FFFC0000
01FFF80000
01FFF80000
01FFF80000
03FFF80000
03FFF80000
03FFF00000
07FFF00000
07FFF00000
07FFF00000
07FFF00000
07FFE00000
0FFFE00000
0FFFE00000
0FFFE00000
1FFFE00000
1FFF800000
1FFF800000
3FFF800000
3FFF800000
7FFF000000
7FFE000000
FFE0000000
F800000000
ENDCHAR
STARTCHAR 00CF
ENCODING 207
SWIDTH 330 0
DWIDTH 22 0
BBX 32 54 2 0
BITMAP
0000F01E
0001F83F
0003F87F
0003F87F
0003F87F
0003F07E
0001E03C
00000000
00000000
0001FFC0
0003FFF8
0007FFF0
0007FFE0
0007FFE0
0007FFE0
000FFFC0
000FFFC0
000FFF80
001FFF80
001FFF80
003FFF00
003FFF00
003FFF00
003FFF00
007FFE00
007FFE00
007FFE00
00FFFE00
00FFFC00
00FFFC00
01FFFC00
01FFF800
01FFF800
01FFF800
03FFF800
03FFF800
03FFF000
07FFF000
07FFF000
07FFF000
07FFF000
07FFE000
0FFFE000
0FFFE000
0FFFE000
1FFFE000
1FFF8000
1FFF8000
3FFF8000
3FFF8000
7FFF0000
7FFE0000
FFE00000
F8000000
ENDCHAR
STARTCHAR 00D0
ENCODING 208
SWIDTH 480 0
DWIDTH 32 0
BBX 33 46 5 0
BITMAP
000F000000
003FF80000
00FFFF0000
01FFFFC000
01FFFFF000
01FFFFF000
01FFFFF800
03FFFFFC00
03FFFFFC00
03FFFFFE00
03FFFFFE00
03FFFFFF00
07FFFFFF00
07FFC7FF00
07FF81FF00
07FFF8FF80
07FFF8FF80
0FFFF8FF80
7FFFF8FF80
7FFFF8FF80
7FFFF9FF00
FFFFF9FF00
FFFFFBFF00
FFFFF7FE00
FFFF0FFC00
FFFF1FFC00
7FFF3FF800
0FFF7FF000
0FFFFFF000
0FFFFFE000
0FFFFFC000
0FFFFF8000
0FFFFF8000
0FFFFF0000
0FFFFE0000
0FFFFC0000
0FFFF80000
0FFFF00000
0FFFE00000
0FFFC00000
0FFF800000
0FFE000000
0FF8000000
0FE0000000
0F00000000
0C00000000
ENDCHAR
STARTCHAR 00D1
ENCODING 209
SWIDTH 555 0
DWIDTH 37 0
BBX 45 56 1 1
BITMAP
0000001C0FC0
0000007F0FC0
000000FF9FC0
000001FFFFC0
000003FFFFC0
000003FFFF80
000003FFFF00
000003E7FE00
000007E3FC00
000007C0F000
000000000000
000000000000
000020000200
0001FF801FE0
0007FFE0FFF0
0007FFE0FFF8
0007FFE1FFF0
000FFFC1FFF0
000FFFC1FFF0
000FFFC1FFE0
001FFFC3FFE0
001FFF83FFE0
001FFF83FFC0
003FFFC3FFC0
003FFFC7FFC0
007FFFC7FF80
007FFFC7FF80
007FFFC7FF80
00FFFFCFFF00
00FFFFCFFF00
00FFFFCFFF00
01FFFFCFFE00
01FFFFDFFE00
01FFFFDFFE00
03FFFFDFFC00
03FFFFDFFC00
03FFFFFFFC00
03FFFFFFFC00
07FFFFFFF800
07FFDFFFF800
07FFDFFFF800
07FFDFFFF000
0FFF8FFFF000
0FFF8FFFF000
0FFF8FFFF000
1FFF8FFFE000
1FFF0FFFE000
1FFF0FFFE000
1FFF0FFFE000
3FFE0FFFC000
3FFE07FFC000
3FFE0FFFC000
7FFE0FFFC000
7FFE0FFFC000
7FFC0FFF8000
FFE007FC0000
ENDCHAR
STARTCHAR 00D2
ENCODING 210
SWIDTH 525 0
DWIDTH 35 0
BBX 35 58 5 0
BITMAP
007F800000
007FC00000
007FC00000
007FC00000
003FE00000
001FE00000
001FF00000
000FF00000
0007F00000
0007F00000
0003800000
0000700000
0001FC0000
0003FF0000
0007FF8000
000FFFE000
000FFFF000
001FFFF800
003FFFFC00
007FFFFE00
007FFFFE00
00FFFFFF00
01FFFFFF00
01FFFFFF80
03FFFFFF80
07FFFFFF80
07FFFFFFC0
0FFFFFFFC0
0FFFFFFFC0
1FFF87FFC0
1FFF03FFC0
3FFE03FFC0
3FFC03FFE0
7FFC03FFE0
7FF803FFE0
7FF803FFC0
7FF807FFC0
7FF807FFC0
7FFC0FFFC0
FFFC1FFFC0
FFFF3FFF80
FFFFFFFF80
FFFFFFFF80
FFFFFFFF00
FFFFFFFF00
7FFFFFFE00
7FFFFFFE00
7FFFFFFC00
7FFFFFFC00
7FFFFFF800
7FFFFFF800
3FFFFFF000
3FFFFFF000
1FFFFFE000
0FFFFFC000
07FFFF0000
01FFFC0000
007FF00000
ENDCHAR
STARTCHAR 00D3
ENCODING 211
SWIDTH 525 0
DWIDTH 35 0
BBX 35 58 5 0
BITMAP
000001FE00
000003FE00
000007FE00
00000FF800
00001FF000
00001FE000
00003FC000
00007F8000
00007F0000
0000FE0000
00001C0000
0000700000
0001FC0000
0003FF0000
0007FF8000
000FFFE000
000FFFF000
001FFFF800
003FFFFC00
007FFFFE00
007FFFFE00
00FFFFFF00
01FFFFFF00
01FFFFFF80
03FFFFFF80
07FFFFFF80
07FFFFFFC0
0FFFFFFFC0
0FFFFFFFC0
1FFF87FFC0
1FFF03FFC0
3FFE03FFC0
3FFC03FFE0
7FFC03FFE0
7FF803FFE0
7FF803FFC0
7FF807FFC0
7FF807FFC0
7FFC0FFFC0
FFFC1FFFC0
FFFF3FFF80
FFFFFFFF80
FFFFFFFF80
FFFFFFFF00
FFFFFFFF00
7FFFFFFE00
7FFFFFFE00
7FFFFFFC00
7FFFFFFC00
7FFFFFF800
7FFFFFF800
3FFFFFF000
3FFFFFF000
1FFFFFE000
0FFFFFC000
07FFFF0000
01FFFC0000
007FF00000
ENDCHAR
STARTCHAR 00D4
ENCODING 212
SWIDTH 525 0
DWIDTH 35 0
BBX 35 58 5 0
BITMAP
0000380000
00007E0000
0001FF8000
0003FFC000
000FFFE000
001FFFE000
003FFFF000
007F9FF800
007F07F800
007E03F000
0000000000
0000700000
0001FC0000
0003FF0000
0007FF8000
000FFFE000
000FFFF000
001FFFF800
003FFFFC00
007FFFFE00
007FFFFE00
00FFFFFF00
01FFFFFF00
01FFFFFF80
03FFFFFF80
07FFFFFF80
07FFFFFFC0
0FFFFFFFC0
0FFFFFFFC0
1FFF87FFC0
1FFF03FFC0
3FFE03FFC0
3FFC03FFE0
7FFC03FFE0
7FF803FFE0
7FF803FFC0
7FF807FFC0
7FF807FFC0
7FFC0FFFC0
FFFC1FFFC0
FFFF3FFF80
FFFFFFFF80
FFFFFFFF80
FFFFFFFF00
FFFFFFFF00
7FFFFFFE00
7FFFFFFE00
7FFFFFFC00
7FFFFFFC00
7FFFFFF800
7FFFFFF800
3FFFFFF000
3FFFFFF000
1FFFFFE000
0FFFFFC000
07FFFF0000
01FFFC0000
007FF00000
ENDCHAR
STARTCHAR 00D5
ENCODING 213
SWIDTH 525 0
DWIDTH 35 0
BBX 35 58 5 0
BITMAP
000001F800
000383F800
000FC3F800
001FFFF800
003FFFF800
007FFFF000
007FFFE000
007FFFC000
007EFF8000
007C7F0000
00FC000000
0000700000
0001FC0000
0003FF0000
0007FF8000
000FFFE000
000FFFF000
001FFFF800
003FFFFC00
007FFFFE00
007FFFFE00
00FFFFFF00
01FFFFFF00
01FFFFFF80
03FFFFFF80
07FFFFFF80
07FFFFFFC0
0FFFFFFFC0
0FFFFFFFC0
1FFF87FFC0
1FFF03FFC0
3FFE03FFC0
3FFC03FFE0
7FFC03FFE0
7FF803FFE0
7FF803FFC0
7FF807FFC0
7FF807FFC0
7FFC0FFFC0
FFFC1FFFC0
FFFF3FFF80
FFFFFFFF80
FFFFFFFF80
FFFFFFFF00
FFFFFFFF00
7FFFFFFE00
7FFFFFFE00
7FFFFFFC00
7FFFFFFC00
7FFFFFF800
7FFFFFF800
3FFFFFF000
3FFFFFF000
1FFFFFE000
0FFFFFC000
07FFFF0000
01FFFC0000
007FF00000
ENDCHAR
STARTCHAR 00D6
ENCODING 214
SWIDTH 525 0
DWIDTH 35 0
BBX 35 54 5 0
BITMAP
000E03E000
001F87F000
003F87F000
007F87F000
007F07E000
007F07E000
003E038000
0000700000
0001FC0000
0003FF0000
0007FF8000
000FFFE000
000FFFF000
001FFFF800
003FFFFC00
007FFFFE00
007FFFFE00
00FFFFFF00
01FFFFFF00
01FFFFFF80
03FFFFFF80
07FFFFFF80
07FFFFFFC0
0FFFFFFFC0
0FFFFFFFC0
1FFF87FFC0
1FFF03FFC0
3FFE03FFC0
3FFC03FFE0
7FFC03FFE0
7FF803FFE0
7FF803FFC0
7FF807FFC0
7FF807FFC0
7FFC0FFFC0
FFFC1FFFC0
FFFF3FFF80
FFFFFFFF80
FFFFFFFF80
FFFFFFFF00
FFFFFFFF00
7FFFFFFE00
7FFFFFFE00
7FFFFFFC00
7FFFFFFC00
7FFFFFF800
7FFFFFF800
3FFFFFF000
3FFFFFF000
1FFFFFE000
0FFFFFC000
07FFFF0000
01FFFC0000
007FF00000
ENDCHAR
STARTCHAR 00D7
ENCODING 215
SWIDTH 420 0
DWIDTH 28 0
BBX 29 27 5 10
BITMAP
00400080
00F003C0
01F807E0
03F80FE0
07FC1FF0
1FFE3FF8
1FFFFFF8
1FFFFFF0
0FFFFFE0
0FFFFFC0
07FFFF80
03FFFF00
01FFFE00
00FFF800
01FFFC00
03FFFC00
07FFFE00
0FFFFF00
3FFFFF80
7FFFFFC0
FFFFFFC0
FFF3FFC0
FFE1FF80
7F80FE00
3F00FC00
1E007800
08002000
ENDCHAR
STARTCHAR 00D8
ENCODING 216
SWIDTH 525 0
DWIDTH 35 0
BBX 46 48 0 -1
BITMAP
000003800FF8
00000FE01FFC
00001FF83FF8
00003FFC7FF0
00007FFEFFE0
00007FFFFFE0
0000FFFFFFC0
0001FFFFFF80
0003FFFFFF00
0003FFFFFE00
0007FFFFFC00
000FFFFFFC00
000FFFFFFC00
001FFFFFFC00
003FFFFFFC00
003FFFFFFE00
007FFFFFFE00
007FFFFFFE00
00FFF7FFFE00
00FFC7FFFE00
01FF8FFFFE00
01FF9FFFFF00
03FF3FF7FF00
03FE3FEFFF00
03FE7FCFFE00
03FEFF8FFE00
03FFFF8FFE00
07FFFF1FFE00
07FFFE3FFE00
07FFFC7FFC00
07FFF8FFFC00
07FFFFFFFC00
07FFFFFFF800
07FFFFFFF800
07FFFFFFF000
03FFFFFFF000
03FFFFFFE000
03FFFFFFE000
03FFFFFFC000
07FFFFFFC000
0FFFFFFF8000
0FFFFFFF8000
1FFFFFFF0000
3FFFFFFE0000
7FFFFFF80000
FF8FFFE00000
CF03FF800000
060000000000
ENDCHAR
STARTCHAR 00D9
ENCODING 217
SWIDTH 540 0
DWIDTH 36 0
BBX 39 57 5 1
BITMAP
00007F8000
0000FF8000
0000FFC000
00007FC000
00003FE000
00003FE000
00001FF000
00000FF000
000007F000
000007F000
0000078000
0000000000
0038000000
003FC003FE
007FF007FE
007FE00FFE
00FFE00FFE
00FFC007FE
01FF8007FE
01FF800FFC
01FF800FFC
03FF800FFC
03FF800FFC
07FF001FF8
07FF001FF8
0FFE003FF8
0FFE003FF8
0FFE003FF8
1FFE007FF0
1FFC007FF0
3FFC007FF0
3FFC00FFF0
3FFC00FFF0
7FFC00FFF0
7FFC01FFF0
7FFE01FFE0
7FFE03FFE0
7FFF03FFC0
7FFFE7FFC0
FFFFFFFF80
FFFFFFFF80
FFFFFFFF00
FFFFFFFF00
FFFFFFFE00
FFFFFFFE00
FFFFFFFC00
7FFFFFF800
7FFFFFF800
7FFFFFF000
7FFFFFE000
3FFFFFC000
3FFFFF8000
3FFFFF0000
1FFFFE0000
07FFFC0000
01FFF00000
003F000000
ENDCHAR
STARTCHAR 00DA
ENCODING 218
SWIDTH 540 0
DWIDTH 36 0
BBX 39 57 5 1
BITMAP
00000003FC
00000007FC
0000000FFC
0000000FF8
0000001FE0
0000003FC0
0000007F80
000000FF00
000000FE00
000001FC00
0000003800
0000000000
0038000000
003FC003FE
007FF007FE
007FE00FFE
00FFE00FFE
00FFC007FE
01FF8007FE
01FF800FFC
01FF800FFC
03FF800FFC
03FF800FFC
07FF001FF8
07FF001FF8
0FFE003FF8
0FFE003FF8
0FFE003FF8
1FFE007FF0
1FFC007FF0
3FFC007FF0
3FFC00FFF0
3FFC00FFF0
7FFC00FFF0
7FFC01FFF0
7FFE01FFE0
7FFE03FFE0
7FFF03FFC0
7FFFE7FFC0
FFFFFFFF80
FFFFFFFF80
FFFFFFFF00
FFFFFFFF00
FFFFFFFE00
FFFFFFFE00
FFFFFFFC00
7FFFFFF800
7FFFFFF800
7FFFFFF000
7FFFFFE000
3FFFFFC000
3FFFFF8000
3FFFFF0000
1FFFFE0000
07FFFC0000
01FFF00000
003F000000
ENDCHAR
STARTCHAR 00DB
ENCODING 219
SWIDTH 540 0
DWIDTH 36 0
BBX 39 57 5 1
BITMAP
0000001C00
0000007E00
000001FF00
000007FF80
00000FFFC0
00001FFFE0
00003FFFF0
00007FDFF0
0000FF8FF0
0000FE07F0
0000200380
0000000000
0038000000
003FC003FE
007FF007FE
007FE00FFE
00FFE00FFE
00FFC007FE
01FF8007FE
01FF800FFC
01FF800FFC
03FF800FFC
03FF800FFC
07FF001FF8
07FF001FF8
0FFE003FF8
0FFE003FF8
0FFE003FF8
1FFE007FF0
1FFC007FF0
3FFC007FF0
3FFC00FFF0
3FFC00FFF0
7FFC00FFF0
7FFC01FFF0
7FFE01FFE0
7FFE03FFE0
7FFF03FFC0
7FFFE7FFC0
FFFFFFFF80
FFFFFFFF80
FFFFFFFF00
FFFFFFFF00
FFFFFFFE00
FFFFFFFE00
FFFFFFFC00
7FFFFFF800
7FFFFFF800
7FFFFFF000
7FFFFFE000
3FFFFFC000
3FFFFF8000
3FFFFF0000
1FFFFE0000
07FFFC0000
01FFF00000
003F000000
ENDCHAR
STARTCHAR 00DC
ENCODING 220
SWIDTH 540 0
DWIDTH 36 0
BBX 39 53 5 1
BITMAP
00001F01C0
00003F87E0
00007F87F0
00007F07F0
00007F0FF0
00003F0FE0
00001C07C0
0000000000
0038000000
003FC003FE
007FF007FE
007FE00FFE
00FFE00FFE
00FFC007FE
01FF8007FE
01FF800FFC
01FF800FFC
03FF800FFC
03FF800FFC
07FF001FF8
07FF001FF8
0FFE003FF8
0FFE003FF8
0FFE003FF8
1FFE007FF0
1FFC007FF0
3FFC007FF0
3FFC00FFF0
3FFC00FFF0
7FFC00FFF0
7FFC01FFF0
7FFE01FFE0
7FFE03FFE0
7FFF03FFC0
7FFFE7FFC0
FFFFFFFF80
FFFFFFFF80
FFFFFFFF00
FFFFFFFF00
FFFFFFFE00
FFFFFFFE00
FFFFFFFC00
7FFFFFF800
7FFFFFF800
7FFFFFF000
7FFFFFE000
3FFFFFC000
3FFFFF8000
3FFFFF0000
1FFFFE0000
07FFFC0000
01FFF00000
003F000000
ENDCHAR
STARTCHAR 00DD
ENCODING 221
SWIDTH 600 0
DWIDTH 40 0
BBX 39 58 10 0
BITMAP
0000003FC0
0000007FC0
000000FF80
000001FF00
000003FE00
000007FC00
00000FF800
00000FF000
00001FE000
00001FC000
0000078000
0000000000
000000010E
0000000FFE
00E0001FFE
0BE0001FFC
7FF0001FF8
FFF0003FF8
FFF0007FF0
FFF800FFE0
FFF800FFE0
FFF801FFC0
7FFC03FF80
7FFC03FF00
7FFC07FF00
3FFC0FFE00
3FFE1FFC00
3FFE1FFC00
1FFE3FF800
1FFE7FF000
1FFEFFF000
1FFEFFE000
0FFFFFC000
0FFFFFC000
0FFFFF8000
07FFFF0000
07FFFF0000
07FFFE0000
07FFFC0000
03FFF80000
03FFF80000
03FFF00000
01FFE00000
01FFE00000
01FFC00000
00FFC00000
00FFC00000
00FFC00000
01FFC00000
01FFC00000
01FFC00000
01FFC00000
01FFC00000
03FF800000
03FF800000
03FF800000
03FF000000
03FC000000
ENDCHAR
STARTCHAR 00DE
ENCODING 222
SWIDTH 495 0
DWIDTH 33 0
BBX 33 46 4 0
BITMAP
01FFC00000
01FFC00000
03FFC00000
03FFC00000
03FFC00000
03FFC00000
07FFF00000
03FFFF8000
03FFFFF000
07FFFFF800
07FFFFFC00
07FFFFFE00
07FFFFFE00
0FFFFFFF00
0FFFFFFF00
0FFFFFFF00
0FFE07FF00
0FFE01FF00
0FFE01FF80
0FFE00FF80
1FFE00FF80
1FFE01FF80
1FFE01FF80
1FFE01FF00
1FFE03FF00
1FFE03FF00
1FFE07FF00
1FFE0FFF00
3FFE1FFF00
3FFEFFFF00
3FFFFFFF00
3FFFFFFE00
3FFFFFFC00
7FFFFFF000
7FFFFFE000
7FFFFFC000
7FFFFF0000
7FFC000000
7FFC000000
FFFC000000
FFF8000000
FFF8000000
FFF8000000
FFF8000000
FFF0000000
FFF0000000
ENDCHAR
STARTCHAR 00DF
ENCODING 223
SWIDTH 555 0
DWIDTH 37 0
BBX 37 51 3 -4
BITMAP
00000C0000
0001FFC000
0007FFF000
000FFFFC00
001FFFFE00
007FFFFE00
00FFFFFE00
00FFFFFE00
01FFFFFE00
03FFFFFF00
03FF87FF00
03FF03FF00
07FE01FF00
07FE01FF00
07FE01FE00
07FE01FE00
07FC03FE00
07FC03FC00
0FFC07FC00
0FFC0FF000
0FFC1FE000
0FFC3FC000
0FFC3FF800
0FFC3FFF00
0FFC3FFF80
1FF83FFFE0
1FF83FFFF0
1FF83FFFF0
1FF83FFFF0
1FF803FFF0
1FF801FFF0
1FF8007FF8
1FF0007FF8
3FF0007FF0
3FF0007FF0
3FF0007FF0
3FF000FFF0
3FF001FFE0
3FF007FFE0
3FE07FFFC0
3FE07FFFC0
7FE0FFFF80
7FE0FFFF00
7FE0FFFC00
7FE0FFFC00
7FE0FFF000
7FC0FF8000
7FC0C00000
FFC0000000
7F80000000
7F00000000
ENDCHAR
STARTCHAR 00E0
ENCODING 224
SWIDTH 630 0
DWIDTH 42 0
BBX 40 60 1 -2
BITMAP
000001FE00
000003FE00
000003FF00
000001FF00
000000FF80
000000FF80
0000007F80
0000003FC0
0000001FC0
0000001FC0
0000001E00
0000000000
0000000000
00000003C0
0000001FC0
0000001FE0
0000003FE0
0000003FE0
0000007FE0
000000FFE0
000000FFE0
000001FFE0
000001FFE0
000003FFE0
000003FFE0
000007FFE0
00000FFFE0
00000FFFE0
00001FFFE0
00001FFFE0
00003FFFF0
00007FFFF0
00007FFFF0
0000FFFFF0
0001FFFFF0
0001FFFFF0
0003FFFFF0
0007F9FFF0
0007F0FFF0
000FE0FFF0
001FC0FFF0
001FC0FFF8
003F80FFF8
003F07FFF8
007FFFFFF8
00FFFFFFF8
00FFFFFFF8
01FFFFFFFC
03FFFFFFFC
03FFC1FFFC
07FF01FFFC
0FFE01FFFC
0FFE01FFFE
1FFC01FFFE
3FFC01FFFE
3FF801FFFF
7FF801FFFF
FFF800FFFF
FFE000E000
C000000000
ENDCHAR
STARTCHAR 00E1
ENCODING 225
SWIDTH 630 0
DWIDTH 42 0
BBX 44 60 1 -2
BITMAP
000000000FF0
000000001FF0
000000003FF0
000000007FE0
000000007F80
00000000FF00
00000001FE00
00000003FC00
00000003F800
00000007F000
00000000E000
000000000000
000000000000
00000003C000
0000001FC000
0000001FE000
0000003FE000
0000003FE000
0000007FE000
000000FFE000
000000FFE000
000001FFE000
000001FFE000
000003FFE000
000003FFE000
000007FFE000
00000FFFE000
00000FFFE000
00001FFFE000
00001FFFE000
00003FFFF000
00007FFFF000
00007FFFF000
0000FFFFF000
0001FFFFF000
0001FFFFF000
0003FFFFF000
0007F9FFF000
0007F0FFF000
000FE0FFF000
001FC0FFF000
001FC0FFF800
003F80FFF800
003F07FFF800
007FFFFFF800
00FFFFFFF800
00FFFFFFF800
01FFFFFFFC00
03FFFFFFFC00
03FFC1FFFC00
07FF01FFFC00
0FFE01FFFC00
0FFE01FFFE00
1FFC01FFFE00
3FFC01FFFE00
3FF801FFFF00
7FF801FFFF00
FFF800FFFF00
FFE000E00000
C00000000000
ENDCHAR
STARTCHAR 00E2
ENCODING 226
SWIDTH 630 0
DWIDTH 42 0
BBX 42 60 1 -2
BITMAP
000000006000
00000001F000
00000007F800
0000001FFC00
0000003FFE00
0000007FFF00
000001FFFF80
000003FF7FC0
000003FC3FC0
000003F81F80
000001800E00
000000000000
000000000000
00000003C000
0000001FC000
0000001FE000
0000003FE000
0000003FE000
0000007FE000
000000FFE000
000000FFE000
000001FFE000
000001FFE000
000003FFE000
000003FFE000
000007FFE000
00000FFFE000
00000FFFE000
00001FFFE000
00001FFFE000
00003FFFF000
00007FFFF000
00007FFFF000
0000FFFFF000
0001FFFFF000
0001FFFFF000
0003FFFFF000
0007F9FFF000
0007F0FFF000
000FE0FFF000
001FC0FFF000
001FC0FFF800
003F80FFF800
003F07FFF800
007FFFFFF800
00FFFFFFF800
00FFFFFFF800
01FFFFFFFC00
03FFFFFFFC00
03FFC1FFFC00
07FF01FFFC00
0FFE01FFFC00
0FFE01FFFE00
1FFC01FFFE00
3FFC01FFFE00
3FF801FFFF00
7FF801FFFF00
FFF800FFFF00
FFE000E00000
C00000000000
ENDCHAR
STARTCHAR 00E3
ENCODING 227
SWIDTH 630 0
DWIDTH 42 0
BBX 43 59 1 -2
BITMAP
0000001E07E0
0000003F87E0
0000007FCFE0
000000FFFFE0
000001FFFFE0
000001FFFFC0
000001FFFF80
000001F3FF00
000003F1FE00
000003E07800
000000000000
000000000000
00000003C000
0000001FC000
0000001FE000
0000003FE000
0000003FE000
0000007FE000
000000FFE000
000000FFE000
000001FFE000
000001FFE000
000003FFE000
000003FFE000
000007FFE000
00000FFFE000
00000FFFE000
00001FFFE000
00001FFFE000
00003FFFF000
00007FFFF000
00007FFFF000
0000FFFFF000
0001FFFFF000
0001FFFFF000
0003FFFFF000
0007F9FFF000
0007F0FFF000
000FE0FFF000
001FC0FFF000
001FC0FFF800
003F80FFF800
003F07FFF800
007FFFFFF800
00FFFFFFF800
00FFFFFFF800
01FFFFFFFC00
03FFFFFFFC00
03FFC1FFFC00
07FF01FFFC00
0FFE01FFFC00
0FFE01FFFE00
1FFC01FFFE00
3FFC01FFFE00
3FF801FFFF00
7FF801FFFF00
FFF800FFFF00
FFE000E00000
C00000000000
ENDCHAR
STARTCHAR 00E4
ENCODING 228
SWIDTH 630 0
DWIDTH 42 0
BBX 42 56 1 -2
BITMAP
000000380F80
0000007C1FC0
000000FE1FC0
000001FC3FC0
000001FC3F80
000001FC3F00
000000F80E00
000000000000
000000000000
00000003C000
0000001FC000
0000001FE000
0000003FE000
0000003FE000
0000007FE000
000000FFE000
000000FFE000
000001FFE000
000001FFE000
000003FFE000
000003FFE000
000007FFE000
00000FFFE000
00000FFFE000
00001FFFE000
00001FFFE000
00003FFFF000
00007FFFF000
00007FFFF000
0000FFFFF000
0001FFFFF000
0001FFFFF000
0003FFFFF000
0007F9FFF000
0007F0FFF000
000FE0FFF000
001FC0FFF000
001FC0FFF800
003F80FFF800
003F07FFF800
007FFFFFF800
00FFFFFFF800
00FFFFFFF800
01FFFFFFFC00
03FFFFFFFC00
03FFC1FFFC00
07FF01FFFC00
0FFE01FFFC00
0FFE01FFFE00
1FFC01FFFE00
3FFC01FFFE00
3FF801FFFF00
7FF801FFFF00
FFF800FFFF00
FFE000E00000
C00000000000
ENDCHAR
STARTCHAR 00E5
ENCODING 229
SWIDTH 630 0
DWIDTH 42 0
BBX 41 60 1 -2
BITMAP
000000004000
0000000FFC00
0000003FFE00
0000007FFF00
000000FFFF80
000001FC3F80
000003F81F80
000003F01F80
000003F01F80
000007F01F80
000007F03F80
000007F03F00
000007F87F00
000003FFFE00
000001FFF800
000001FFF000
0000007FE000
0000003FE000
0000007FE000
000000FFE000
000000FFE000
000001FFE000
000001FFE000
000003FFE000
000003FFE000
000007FFE000
00000FFFE000
00000FFFE000
00001FFFE000
00001FFFE000
00003FFFF000
00007FFFF000
00007FFFF000
0000FFFFF000
0001FFFFF000
0001FFFFF000
0003FFFFF000
0007F9FFF000
0007F0FFF000
000FE0FFF000
001FC0FFF000
001FC0FFF800
003F80FFF800
003F07FFF800
007FFFFFF800
00FFFFFFF800
00FFFFFFF800
01FFFFFFFC00
03FFFFFFFC00
03FFC1FFFC00
07FF01FFFC00
0FFE01FFFC00
0FFE01FFFE00
1FFC01FFFE00
3FFC01FFFE00
3FF801FFFF00
7FF801FFFF00
FFF800FFFF00
FFE000E00000
C00000000000
ENDCHAR
STARTCHAR 00E6
ENCODING 230
SWIDTH 735 0
DWIDTH 49 0
BBX 50 47 1 -1
BITMAP
000000007FFC00
0000000FFFFFC0
0000001FFFFFC0
0000001FFFFF80
0000003FFFFF80
0000003FFFFF00
0000007FFFFF00
000000FFFFFE00
000000FFFFFE00
000001FFFFFE00
000001FFFFFC00
000003FFFFFE00
000007FFFFFC00
000007FFFFF800
00000FFFF80000
00000FFFF80000
00001FFFF80000
00003FFFF80000
00003FFFF81000
00007FFFFBF800
00007FFFFFF000
0000FFFFFFF000
0001FFFFFFE000
0001FFFFFFE000
0003FDFFFFF000
0007F8FFFFF000
0007F0FFF00000
000FE0FFF00000
001FC0FFF00300
001F80FFFFFF00
003F80FFFFFF00
007F8FFFFFFF00
007FFFFFFFFF00
00FFFFFFFFFF00
01FFFFFFFFFF00
01FFFFFFFFFF00
03FFF9FFFFFF00
07FFC1FFFFFF00
07FF01FFFFFF00
0FFE01FFFFFF00
1FFC01FFFFFF00
1FFC01FFFFFE00
3FFC01FFFFF000
3FF801FFFF0000
7FF800FFC00000
FFF800FC000000
FF000080000000
ENDCHAR
STARTCHAR 00E7
ENCODING 231
SWIDTH 480 0
DWIDTH 32 0
BBX 35 56 5 -11
BITMAP
00000FF800
00007FFE00
0003FFFF80
000FFFFFC0
003FFFFFE0
007FFFFFE0
00FFFFFFE0
01FFFFFFE0
03FFFFFFC0
03FFFFFFC0
07FFFFFFC0
0FFFFFFF80
0FFFFF8D00
1FFFF80000
1FFFE00000
3FFF800000
3FFF000000
3FFF000000
3FFE000000
3FFE000000
7FFE000000
7FFC000000
7FFE000000
7FFE000000
FFFF000C00
FFFF83FC00
FFFFFFFC00
FFFFFFFC00
FFFFFFFC00
FFFFFFF800
FFFFFFF800
FFFFFFF800
FFFFFFF800
7FFFFFF000
7FFFFFF000
7FFFFFF000
7FFFFFF000
3FFFFFE000
3FFFFFC000
3FFFFF8000
1FFFFF0000
1FFFFC0000
03FFF80000
01FFC00000
03FC000000
03FC000000
01FE000000
01FF000000
00FF800000
003FC00000
601FC00000
FF3FC00000
FFFFC00000
FFFF800000
7FFF000000
1FFC000000
ENDCHAR
STARTCHAR 00E8
ENCODING 232
SWIDTH 495 0
DWIDTH 33 0
BBX 27 58 8 0
BITMAP
00FC0000
07FE0000
07FE0000
03FF0000
01FF0000
00FF8000
007F8000
007F8000
003FC000
001F0000
00000000
000F0000
00FFFF80
07FFFFE0
1FFFFFC0
3FFFFFC0
3FFFFFC0
3FFFFF80
1FFFFF80
1FFFFF00
1FFFFF00
1FFFFE00
1FFFFE00
1FFFFE00
3FFFFE00
3FFFFC00
3FFC0000
3FF80000
3FF80000
3FF80000
3FFC3800
3FFFF800
3FFFF800
3FFFF000
3FFFF000
3FFFF000
3FFFF800
3FFF0000
3FF80000
3FF80000
3FF80380
3FFFFF80
3FFFFF80
7FFFFF80
3FFFFF80
3FFFFF80
3FFFFF80
7FFFFF80
7FFFFF80
7FFFFF80
7FFFFF80
7FFFFF80
7FFFFF80
FFFFFE00
FFFFE000
7FFE0000
7FC00000
78000000
ENDCHAR
STARTCHAR 00E9
ENCODING 233
SWIDTH 495 0
DWIDTH 33 0
BBX 27 59 8 0
BITMAP
00003F80
0000FF80
0001FF00
0001FE00
0003FC00
0007F800
0007F800
000FF000
000FE000
001FC000
001F8000
00000000
000F0000
00FFFF80
07FFFFE0
1FFFFFC0
3FFFFFC0
3FFFFFC0
3FFFFF80
1FFFFF80
1FFFFF00
1FFFFF00
1FFFFE00
1FFFFE00
1FFFFE00
3FFFFE00
3FFFFC00
3FFC0000
3FF80000
3FF80000
3FF80000
3FFC3800
3FFFF800
3FFFF800
3FFFF000
3FFFF000
3FFFF000
3FFFF800
3FFF0000
3FF80000
3FF80000
3FF80380
3FFFFF80
3FFFFF80
7FFFFF80
3FFFFF80
3FFFFF80
3FFFFF80
7FFFFF80
7FFFFF80
7FFFFF80
7FFFFF80
7FFFFF80
7FFFFF80
FFFFFE00
FFFFE000
7FFE0000
7FC00000
78000000
ENDCHAR
STARTCHAR 00EA
ENCODING 234
SWIDTH 495 0
DWIDTH 33 0
BBX 27 58 8 1
BITMAP
0007C000
001FE000
003FF000
00FFFC00
01FFFE00
03FFFF00
07FDFF00
0FF8FF00
0FE07E00
0FC00000
06000000
000F0000
00FFFF80
07FFFFE0
1FFFFFC0
3FFFFFC0
3FFFFFC0
3FFFFF80
1FFFFF80
1FFFFF00
1FFFFF00
1FFFFE00
1FFFFE00
1FFFFE00
3FFFFE00
3FFFFC00
3FFC0000
3FF80000
3FF80000
3FF80000
3FFC3800
3FFFF800
3FFFF800
3FFFF000
3FFFF000
3FFFF000
3FFFF800
3FFF0000
3FF80000
3FF80000
3FF80380
3FFFFF80
3FFFFF80
7FFFFF80
3FFFFF80
3FFFFF80
3FFFFF80
7FFFFF80
7FFFFF80
7FFFFF80
7FFFFF80
7FFFFF80
7FFFFF80
FFFFFE00
FFFFE000
7FFE0000
7FC00000
78000000
ENDCHAR
STARTCHAR 00EB
ENCODING 235
SWIDTH 495 0
DWIDTH 33 0
BBX 27 55 8 0
BITMAP
00007C00
01E0FE00
03F0FE00
07F0FE00
0FF0FC00
0FE0FC00
0FE03000
07C00000
000F0000
00FFFF80
07FFFFE0
1FFFFFC0
3FFFFFC0
3FFFFFC0
3FFFFF80
1FFFFF80
1FFFFF00
1FFFFF00
1FFFFE00
1FFFFE00
1FFFFE00
3FFFFE00
3FFFFC00
3FFC0000
3FF80000
3FF80000
3FF80000
3FFC3800
3FFFF800
3FFFF800
3FFFF000
3FFFF000
3FFFF000
3FFFF800
3FFF0000
3FF80000
3FF80000
3FF80380
3FFFFF80
3FFFFF80
7FFFFF80
3FFFFF80
3FFFFF80
3FFFFF80
7FFFFF80
7FFFFF80
7FFFFF80
7FFFFF80
7FFFFF80
7FFFFF80
FFFFFE00
FFFFE000
7FFE0000
7FC00000
78000000
ENDCHAR
STARTCHAR 00EC
ENCODING 236
SWIDTH 330 0
DWIDTH 22 0
BBX 29 58 2 0
BITMAP
0001FE00
0003FF00
0001FF00
0001FF00
0000FF80
00007F80
00007FC0
00003FC0
00001FC0
00001FC0
00000E00
00000000
00000000
0001FFC0
0003FFF8
0007FFF0
0007FFE0
0007FFE0
0007FFE0
000FFFC0
000FFFC0
000FFF80
001FFF80
001FFF80
003FFF00
003FFF00
003FFF00
003FFF00
007FFE00
007FFE00
007FFE00
00FFFE00
00FFFC00
00FFFC00
01FFFC00
01FFF800
01FFF800
01FFF800
03FFF800
03FFF800
03FFF000
07FFF000
07FFF000
07FFF000
07FFF000
07FFE000
0FFFE000
0FFFE000
0FFFE000
1FFFE000
1FFF8000
1FFF8000
3FFF8000
3FFF8000
7FFF0000
7FFE0000
FFE00000
F8000000
ENDCHAR
STARTCHAR 00ED
ENCODING 237
SWIDTH 330 0
DWIDTH 22 0
BBX 34 58 2 0
BITMAP
0000003FC0
0000007FC0
000000FFC0
000000FF80
000001FF00
000003FC00
000007F800
000007F000
00000FE000
00001FC000
0000038000
0000000000
0000000000
0001FFC000
0003FFF800
0007FFF000
0007FFE000
0007FFE000
0007FFE000
000FFFC000
000FFFC000
000FFF8000
001FFF8000
001FFF8000
003FFF0000
003FFF0000
003FFF0000
003FFF0000
007FFE0000
007FFE0000
007FFE0000
00FFFE0000
00FFFC0000
00FFFC0000
01FFFC0000
01FFF80000
01FFF80000
01FFF80000
03FFF80000
03FFF80000
03FFF00000
07FFF00000
07FFF00000
07FFF00000
07FFF00000
07FFE00000
0FFFE00000
0FFFE00000
0FFFE00000
1FFFE00000
1FFF800000
1FFF800000
3FFF800000
3FFF800000
7FFF000000
7FFE000000
FFE0000000
F800000000
ENDCHAR
STARTCHAR 00EE
ENCODING 238
SWIDTH 330 0
DWIDTH 22 0
BBX 33 58 2 0
BITMAP
000000C000
000007E000
00000FF000
00003FF800
00007FFC00
0001FFFE00
0003FFFF00
0007FEFF80
000FF87F80
0007F03F00
0003001C00
0000000000
0000000000
0001FFC000
0003FFF800
0007FFF000
0007FFE000
0007FFE000
0007FFE000
000FFFC000
000FFFC000
000FFF8000
001FFF8000
001FFF8000
003FFF0000
003FFF0000
003FFF0000
003FFF0000
007FFE0000
007FFE0000
007FFE0000
00FFFE0000
00FFFC0000
00FFFC0000
01FFFC0000
01FFF80000
01FFF80000
01FFF80000
03FFF80000
03FFF80000
03FFF00000
07FFF00000
07FFF00000
07FFF00000
07FFF00000
07FFE00000
0FFFE00000
0FFFE00000
0FFFE00000
1FFFE00000
1FFF800000
1FFF800000
3FFF800000
3FFF800000
7FFF000000
7FFE000000
FFE0000000
F800000000
ENDCHAR
STARTCHAR 00EF
ENCODING 239
SWIDTH 330 0
DWIDTH 22 0
BBX 32 54 2 0
BITMAP
0000F01E
0001F83F
0003F87F
0003F87F
0003F87F
0003F07E
0001E03C
00000000
00000000
0001FFC0
0003FFF8
0007FFF0
0007FFE0
0007FFE0
0007FFE0
000FFFC0
000FFFC0
000FFF80
001FFF80
001FFF80
003FFF00
003FFF00
003FFF00
003FFF00
007FFE00
007FFE00
007FFE00
00FFFE00
00FFFC00
00FFFC00
01FFFC00
01FFF800
01FFF800
01FFF800
03FFF800
03FFF800
03FFF000
07FFF000
07FFF000
07FFF000
07FFF000
07FFE000
0FFFE000
0FFFE000
0FFFE000
1FFFE000
1FFF8000
1FFF8000
3FFF8000
3FFF8000
7FFF0000
7FFE0000
FFE00000
F8000000
ENDCHAR
STARTCHAR 00F0
ENCODING 240
SWIDTH 480 0
DWIDTH 32 0
BBX 33 46 5 0
BITMAP
000F000000
003FF80000
00FFFF0000
01FFFFC000
01FFFFF000
01FFFFF000
01FFFFF800
03FFFFFC00
03FFFFFC00
03FFFFFE00
03FFFFFE00
03FFFFFF00
07FFFFFF00
07FFC7FF00
07FF81FF00
07FFF8FF80
07FFF8FF80
0FFFF8FF80
7FFFF8FF80
7FFFF8FF80
7FFFF9FF00
FFFFF9FF00
FFFFFBFF00
FFFFF7FE00
FFFF0FFC00
FFFF1FFC00
7FFF3FF800
0FFF7FF000
0FFFFFF000
0FFFFFE000
0FFFFFC000
0FFFFF8000
0FFFFF8000
0FFFFF0000
0FFFFE0000
0FFFFC0000
0FFFF80000
0FFFF00000
0FFFE00000
0FFFC00000
0FFF800000
0FFE000000
0FF8000000
0FE0000000
0F00000000
0C00000000
ENDCHAR
STARTCHAR 00F1
ENCODING 241
SWIDTH 555 0
DWIDTH 37 0
BBX 45 56 1 1
BITMAP
0000001C0FC0
0000007F0FC0
000000FF9FC0
000001FFFFC0
000003FFFFC0
000003FFFF80
000003FFFF00
000003E7FE00
000007E3FC00
000007C0F000
000000000000
000000000000
000020000200
0001FF801FE0
0007FFE0FFF0
0007FFE0FFF8
0007FFE1FFF0
000FFFC1FFF0
000FFFC1FFF0
000FFFC1FFE0
001FFFC3FFE0
001FFF83FFE0
001FFF83FFC0
003FFFC3FFC0
003FFFC7FFC0
007FFFC7FF80
007FFFC7FF80
007FFFC7FF80
00FFFFCFFF00
00FFFFCFFF00
00FFFFCFFF00
01FFFFCFFE00
01FFFFDFFE00
01FFFFDFFE00
03FFFFDFFC00
03FFFFDFFC00
03FFFFFFFC00
03FFFFFFFC00
07FFFFFFF800
07FFDFFFF800
07FFDFFFF800
07FFDFFFF000
0FFF8FFFF000
0FFF8FFFF000
0FFF8FFFF000
1FFF8FFFE000
1FFF0FFFE000
1FFF0FFFE000
1FFF0FFFE000
3FFE0FFFC000
3FFE07FFC000
3FFE0FFFC000
7FFE0FFFC000
7FFE0FFFC000
7FFC0FFF8000
FFE007FC0000
ENDCHAR
STARTCHAR 00F2
ENCODING 242
SWIDTH 525 0
DWIDTH 35 0
BBX 35 58 5 0
BITMAP
007F800000
007FC00000
007FC00000
007FC00000
003FE00000
001FE00000
001FF00000
000FF00000
0007F00000
0007F00000
0003800000
0000700000
0001FC0000
0003FF0000
0007FF8000
000FFFE000
000FFFF000
001FFFF800
003FFFFC00
007FFFFE00
007FFFFE00
00FFFFFF00
01FFFFFF00
01FFFFFF80
03FFFFFF80
07FFFFFF80
07FFFFFFC0
0FFFFFFFC0
0FFFFFFFC0
1FFF87FFC0
1FFF03FFC0
3FFE03FFC0
3FFC03FFE0
7FFC03FFE0
7FF803FFE0
7FF803FFC0
7FF807FFC0
7FF807FFC0
7FFC0FFFC0
FFFC1FFFC0
FFFF3FFF80
FFFFFFFF80
FFFFFFFF80
FFFFFFFF00
FFFFFFFF00
7FFFFFFE00
7FFFFFFE00
7FFFFFFC00
7FFFFFFC00
7FFFFFF800
7FFFFFF800
3FFFFFF000
3FFFFFF000
1FFFFFE000
0FFFFFC000
07FFFF0000
01FFFC0000
007FF00000
ENDCHAR
STARTCHAR 00F3
ENCODING 243
SWIDTH 525 0
DWIDTH 35 0
BBX 35 58 5 0
BITMAP
000001FE00
000003FE00
000007FE00
00000FF800
00001FF000
00001FE000
00003FC000
00007F8000
00007F0000
0000FE0000
00001C0000
0000700000
0001FC0000
0003FF0000
0007FF8000
000FFFE000
000FFFF000
001FFFF800
003FFFFC00
007FFFFE00
007FFFFE00
00FFFFFF00
01FFFFFF00
01FFFFFF80
03FFFFFF80
07FFFFFF80
07FFFFFFC0
0FFFFFFFC0
0FFFFFFFC0
1FFF87FFC0
1FFF03FFC0
3FFE03FFC0
3FFC03FFE0
7FFC03FFE0
7FF803FFE0
7FF803FFC0
7FF807FFC0
7FF807FFC0
7FFC0FFFC0
FFFC1FFFC0
FFFF3FFF80
FFFFFFFF80
FFFFFFFF80
FFFFFFFF00
FFFFFFFF00
7FFFFFFE00
7FFFFFFE00
7FFFFFFC00
7FFFFFFC00
7FFFFFF800
7FFFFFF800
3FFFFFF000
3FFFFFF000
1FFFFFE000
0FFFFFC000
07FFFF0000
01FFFC0000
007FF00000
ENDCHAR
STARTCHAR 00F4
ENCODING 244
SWIDTH 525 0
DWIDTH 35 0
BBX 35 58 5 0
BITMAP
0000380000
00007E0000
0001FF8000
0003FFC000
000FFFE000
001FFFE000
003FFFF000
007F9FF800
007F07F800
007E03F000
0000000000
0000700000
0001FC0000
0003FF0000
0007FF8000
000FFFE000
000FFFF000
001FFFF800
003FFFFC00
007FFFFE00
007FFFFE00
00FFFFFF00
01FFFFFF00
01FFFFFF80
03FFFFFF80
07FFFFFF80
07FFFFFFC0
0FFFFFFFC0
0FFFFFFFC0
1FFF87FFC0
1FFF03FFC0
3FFE03FFC0
3FFC03FFE0
7FFC03FFE0
7FF803FFE0
7FF803FFC0
7FF807FFC0
7FF807FFC0
7FFC0FFFC0
FFFC1FFFC0
FFFF3FFF80
FFFFFFFF80
FFFFFFFF80
FFFFFFFF00
FFFFFFFF00
7FFFFFFE00
7FFFFFFE00
7FFFFFFC00
7FFFFFFC00
7FFFFFF800
7FFFFFF800
3FFFFFF000
3FFFFFF000
1FFFFFE000
0FFFFFC000
07FFFF0000
01FFFC0000
007FF00000
ENDCHAR
STARTCHAR 00F5
ENCODING 245
SWIDTH 525 0
DWIDTH 35 0
BBX 35 58 5 0
BITMAP
000001F800
000383F800
000FC3F800
001FFFF800
003FFFF800
007FFFF000
007FFFE000
007FFFC000
007EFF8000
007C7F0000
00FC000000
0000700000
0001FC0000
0003FF0000
0007FF8000
000FFFE000
000FFFF000
001FFFF800
003FFFFC00
007FFFFE00
007FFFFE00
00FFFFFF00
01FFFFFF00
01FFFFFF80
03FFFFFF80
07FFFFFF80
07FFFFFFC0
0FFFFFFFC0
0FFFFFFFC0
1FFF87FFC0
1FFF03FFC0
3FFE03FFC0
3FFC03FFE0
7FFC03FFE0
7FF803FFE0
7FF803FFC0
7FF807FFC0
7FF807FFC0
7FFC0FFFC0
FFFC1FFFC0
FFFF3FFF80
FFFFFFFF80
FFFFFFFF80
FFFFFFFF00
FFFFFFFF00
7FFFFFFE00
7FFFFFFE00
7FFFFFFC00
7FFFFFFC00
7FFFFFF800
7FFFFFF800
3FFFFFF000
3FFFFFF000
1FFFFFE000
0FFFFFC000
07FFFF0000
01FFFC0000
007FF00000
ENDCHAR
STARTCHAR 00F6
ENCODING 246
SWIDTH 525 0
DWIDTH 35 0
BBX 35 54 5 0
BITMAP
000E03E000
001F87F000
003F87F000
007F87F000
007F07E000
007F07E000
003E038000
0000700000
0001FC0000
0003FF0000
0007FF8000
000FFFE000
000FFFF000
001FFFF800
003FFFFC00
007FFFFE00
007FFFFE00
00FFFFFF00
01FFFFFF00
01FFFFFF80
03FFFFFF80
07FFFFFF80
07FFFFFFC0
0FFFFFFFC0
0FFFFFFFC0
1FFF87FFC0
1FFF03FFC0
3FFE03FFC0
3FFC03FFE0
7FFC03FFE0
7FF803FFE0
7FF803FFC0
7FF807FFC0
7FF807FFC0
7FFC0FFFC0
FFFC1FFFC0
FFFF3FFF80
FFFFFFFF80
FFFFFFFF80
FFFFFFFF00
FFFFFFFF00
7FFFFFFE00
7FFFFFFE00
7FFFFFFC00
7FFFFFFC00
7FFFFFF800
7FFFFFF800
3FFFFFF000
3FFFFFF000
1FFFFFE000
0FFFFFC000
07FFFF0000
01FFFC0000
007FF00000
ENDCHAR
STARTCHAR 00F7
ENCODING 247
SWIDTH 480 0
DWIDTH 32 0
BBX 32 35 5 6
BITMAP
00007C00
0000FF00
0001FF00
0003FF00
0003FF00
0007FF00
0007FF00
0007FE00
0007FE00
0003FC00
0000F000
00000000
00000000
3FFFFFFF
3FFFFFFE
3FFFFFFE
3FFFFFFE
7FFFFFFE
7FFFFFFE
7FFFFFFE
FFFFFFFC
7FFF8000
00000000
00000000
000E0000
001F8000
007FE000
007FE000
00FFE000
00FFE000
00FFE000
00FFC000
00FF8000
00FF0000
003E0000
ENDCHAR
STARTCHAR 00F8
ENCODING 248
SWIDTH 525 0
DWIDTH 35 0
BBX 46 48 0 -1
BITMAP
000003800FF8
00000FE01FFC
00001FF83FF8
00003FFC7FF0
00007FFEFFE0
00007FFFFFE0
0000FFFFFFC0
0001FFFFFF80
0003FFFFFF00
0003FFFFFE00
0007FFFFFC00
000FFFFFFC00
000FFFFFFC00
001FFFFFFC00
003FFFFFFC00
003FFFFFFE00
007FFFFFFE00
007FFFFFFE00
00FFF7FFFE00
00FFC7FFFE00
01FF8FFFFE00
01FF9FFFFF00
03FF3FF7FF00
03FE3FEFFF00
03FE7FCFFE00
03FEFF8FFE00
03FFFF8FFE00
07FFFF1FFE00
07FFFE3FFE00
07FFFC7FFC00
07FFF8FFFC00
07FFFFFFFC00
07FFFFFFF800
07FFFFFFF800
07FFFFFFF000
03FFFFFFF000
03FFFFFFE000
03FFFFFFE000
03FFFFFFC000
07FFFFFFC000
0FFFFFFF8000
0FFFFFFF8000
1FFFFFFF0000
3FFFFFFE0000
7FFFFFF80000
FF8FFFE00000
CF03FF800000
060000000000
ENDCHAR
STARTCHAR 00F9
ENCODING 249
SWIDTH 540 0
DWIDTH 36 0
BBX 39 57 5 1
BITMAP
00007F8000
0000FF8000
0000FFC000
00007FC000
00003FE000
00003FE000
00001FF000
00000FF000
000007F000
000007F000
0000078000
0000000000
0038000000
003FC003FE
007FF007FE
007FE00FFE
00FFE00FFE
00FFC007FE
01FF8007FE
01FF800FFC
01FF800FFC
03FF800FFC
03FF800FFC
07FF001FF8
07FF001FF8
0FFE003FF8
0FFE003FF8
0FFE003FF8
1FFE007FF0
1FFC007FF0
3FFC007FF0
3FFC00FFF0
3FFC00FFF0
7FFC00FFF0
7FFC01FFF0
7FFE01FFE0
7FFE03FFE0
7FFF03FFC0
7FFFE7FFC0
FFFFFFFF80
FFFFFFFF80
FFFFFFFF00
FFFFFFFF00
FFFFFFFE00
FFFFFFFE00
FFFFFFFC00
7FFFFFF800
7FFFFFF800
7FFFFFF000
7FFFFFE000
3FFFFFC000
3FFFFF8000
3FFFFF0000
1FFFFE0000
07FFFC0000
01FFF00000
003F000000
ENDCHAR
STARTCHAR 00FA
ENCODING 250
SWIDTH 540 0
DWIDTH 36 0
BBX 39 57 5 1
BITMAP
00000003FC
00000007FC
0000000FFC
0000000FF8
0000001FE0
0000003FC0
0000007F80
000000FF00
000000FE00
000001FC00
0000003800
0000000000
0038000000
003FC003FE
007FF007FE
007FE00FFE
00FFE00FFE
00FFC007FE
01FF8007FE
01FF800FFC
01FF800FFC
03FF800FFC
03FF800FFC
07FF001FF8
07FF001FF8
0FFE003FF8
0FFE003FF8
0FFE003FF8
1FFE007FF0
1FFC007FF0
3FFC007FF0
3FFC00FFF0
3FFC00FFF0
7FFC00FFF0
7FFC01FFF0
7FFE01FFE0
7FFE03FFE0
7FFF03FFC0
7FFFE7FFC0
FFFFFFFF80
FFFFFFFF80
FFFFFFFF00
FFFFFFFF00
FFFFFFFE00
FFFFFFFE00
FFFFFFFC00
7FFFFFF800
7FFFFFF800
7FFFFFF000
7FFFFFE000
3FFFFFC000
3FFFFF8000
3FFFFF0000
1FFFFE0000
07FFFC0000
01FFF00000
003F000000
ENDCHAR
STARTCHAR 00FB
ENCODING 251
SWIDTH 540 0
DWIDTH 36 0
BBX 39 57 5 1
BITMAP
0000001C00
0000007E00
000001FF00
000007FF80
00000FFFC0
00001FFFE0
00003FFFF0
00007FDFF0
0000FF8FF0
0000FE07F0
0000200380
0000000000
0038000000
003FC003FE
007FF007FE
007FE00FFE
00FFE00FFE
00FFC007FE
01FF8007FE
01FF800FFC
01FF800FFC
03FF800FFC
03FF800FFC
07FF001FF8
07FF001FF8
0FFE003FF8
0FFE003FF8
0FFE003FF8
1FFE007FF0
1FFC007FF0
3FFC007FF0
3FFC00FFF0
3FFC00FFF0
7FFC00FFF0
7FFC01FFF0
7FFE01FFE0
7FFE03FFE0
7FFF03FFC0
7FFFE7FFC0
FFFFFFFF80
FFFFFFFF80
FFFFFFFF00
FFFFFFFF00
FFFFFFFE00
FFFFFFFE00
FFFFFFFC00
7FFFFFF800
7FFFFFF800
7FFFFFF000
7FFFFFE000
3FFFFFC000
3FFFFF8000
3FFFFF0000
1FFFFE0000
07FFFC0000
01FFF00000
003F000000
ENDCHAR
STARTCHAR 00FC
ENCODING 252
SWIDTH 540 0
DWIDTH 36 0
BBX 39 53 5 1
BITMAP
00001F01C0
00003F87E0
00007F87F0
00007F07F0
00007F0FF0
00003F0FE0
00001C07C0
0000000000
0038000000
003FC003FE
007FF007FE
007FE00FFE
00FFE00FFE
00FFC007FE
01FF8007FE
01FF800FFC
01FF800FFC
03FF800FFC
03FF800FFC
07FF001FF8
07FF001FF8
0FFE003FF8
0FFE003FF8
0FFE003FF8
1FFE007FF0
1FFC007FF0
3FFC007FF0
3FFC00FFF0
3FFC00FFF0
7FFC00FFF0
7FFC01FFF0
7FFE01FFE0
7FFE03FFE0
7FFF03FFC0
7FFFE7FFC0
FFFFFFFF80
FFFFFFFF80
FFFFFFFF00
FFFFFFFF00
FFFFFFFE00
FFFFFFFE00
FFFFFFFC00
7FFFFFF800
7FFFFFF800
7FFFFFF000
7FFFFFE000
3FFFFFC000
3FFFFF8000
3FFFFF0000
1FFFFE0000
07FFFC0000
01FFF00000
003F000000
ENDCHAR
STARTCHAR 00FD
ENCODING 253
SWIDTH 600 0
DWIDTH 40 0
BBX 39 58 10 0
BITMAP
0000003FC0
0000007FC0
000000FF80
000001FF00
000003FE00
000007FC00
00000FF800
00000FF000
00001FE000
00001FC000
0000078000
0000000000
000000010E
0000000FFE
00E0001FFE
0BE0001FFC
7FF0001FF8
FFF0003FF8
FFF0007FF0
FFF800FFE0
FFF800FFE0
FFF801FFC0
7FFC03FF80
7FFC03FF00
7FFC07FF00
3FFC0FFE00
3FFE1FFC00
3FFE1FFC00
1FFE3FF800
1FFE7FF000
1FFEFFF000
1FFEFFE000
0FFFFFC000
0FFFFFC000
0FFFFF8000
07FFFF0000
07FFFF0000
07FFFE0000
07FFFC0000
03FFF80000
03FFF80000
03FFF00000
01FFE00000
01FFE00000
01FFC00000
00FFC00000
00FFC00000
00FFC00000
01FFC00000
01FFC00000
01FFC00000
01FFC00000
01FFC00000
03FF800000
03FF800000
03FF800000
03FF000000
03FC000000
ENDCHAR
STARTCHAR 00FE
ENCODING 254
SWIDTH 495 0
DWIDTH 33 0
BBX 33 46 4 0
BITMAP
01FFC00000
01FFC00000
03FFC00000
03FFC00000
03FFC00000
03FFC00000
07FFF00000
03FFFF8000
03FFFFF000
07FFFFF800
07FFFFFC00
07FFFFFE00
07FFFFFE00
0FFFFFFF00
0FFFFFFF00
0FFFFFFF00
0FFE07FF00
0FFE01FF00
0FFE01FF80
0FFE00FF80
1FFE00FF80
1FFE01FF80
1FFE01FF80
1FFE01FF00
1FFE03FF00
1FFE03FF00
1FFE07FF00
1FFE0FFF00
3FFE1FFF00
3FFEFFFF00
3FFFFFFF00
3FFFFFFE00
3FFFFFFC00
7FFFFFF000
7FFFFFE000
7FFFFFC000
7FFFFF0000
7FFC000000
7FFC000000
FFFC000000
FFF8000000
FFF8000000
FFF8000000
FFF8000000
FFF0000000
FFF0000000
ENDCHAR
STARTCHAR 00FF
ENCODING 255
SWIDTH 600 0
DWIDTH 40 0
BBX 39 54 10 0
BITMAP
0001C07C00
0003F0FE00
0007F0FE00
000FE0FE00
000FE1FC00
000FE1F800
0007C07000
0000000000
000000010E
0000000FFE
00E0001FFE
0BE0001FFC
7FF0001FF8
FFF0003FF8
FFF0007FF0
FFF800FFE0
FFF800FFE0
FFF801FFC0
7FFC03FF80
7FFC03FF00
7FFC07FF00
3FFC0FFE00
3FFE1FFC00
3FFE1FFC00
1FFE3FF800
1FFE7FF000
1FFEFFF000
1FFEFFE000
0FFFFFC000
0FFFFFC000
0FFFFF8000
07FFFF0000
07FFFF0000
07FFFE0000
07FFFC0000
03FFF80000
03FFF80000
03FFF00000
01FFE00000
01FFE00000
01FFC00000
00FFC00000
00FFC00000
00FFC00000
01FFC00000
01FFC00000
01FFC00000
01FFC00000
01FFC00000
03FF800000
03FF800000
03FF800000
03FF000000
03FC000000
ENDCHAR
STARTCHAR 0100
ENCODING 256
SWIDTH 630 0
DWIDTH 42 0
BBX 43 56 1 -2
BITMAP
0000003C7A00
000001FFFFE0
000001FFFFC0
000001FFFFC0
000003FFFFC0
000003FFFFC0
000000C00000
000000000000
000000000000
00000003C000
0000001FC000
0000001FE000
0000003FE000
0000003FE000
0000007FE000
000000FFE000
000000FFE000
000001FFE000
000001FFE000
000003FFE000
000003FFE000
000007FFE000
00000FFFE000
00000FFFE000
00001FFFE000
00001FFFE000
00003FFFF000
00007FFFF000
00007FFFF000
0000FFFFF000
0001FFFFF000
0001FFFFF000
0003FFFFF000
0007F9FFF000
0007F0FFF000
000FE0FFF000
001FC0FFF000
001FC0FFF800
003F80FFF800
003F07FFF800
007FFFFFF800
00FFFFFFF800
00FFFFFFF800
01FFFFFFFC00
03FFFFFFFC00
03FFC1FFFC00
07FF01FFFC00
0FFE01FFFC00
0FFE01FFFE00
1FFC01FFFE00
3FFC01FFFE00
3FF801FFFF00
7FF801FFFF00
FFF800FFFF00
FFE000E00000
C00000000000
ENDCHAR
STARTCHAR 0101
ENCODING 257
SWIDTH 630 0
DWIDTH 42 0
BBX 43 56 1 -2
BITMAP
0000003C7A00
000001FFFFE0
000001FFFFC0
000001FFFFC0
000003FFFFC0
000003FFFFC0
000000C00000
000000000000
000000000000
00000003C000
0000001FC000
0000001FE000
0000003FE000
0000003FE000
0000007FE000
000000FFE000
000000FFE000
000001FFE000
000001FFE000
000003FFE000
000003FFE000
000007FFE000
00000FFFE000
00000FFFE000
00001FFFE000
00001FFFE000
00003FFFF000
00007FFFF000
00007FFFF000
0000FFFFF000
0001FFFFF000
0001FFFFF000
0003FFFFF000
0007F9FFF000
0007F0FFF000
000FE0FFF000
001FC0FFF000
001FC0FFF800
003F80FFF800
003F07FFF800
007FFFFFF800
00FFFFFFF800
00FFFFFFF800
01FFFFFFFC00
03FFFFFFFC00
03FFC1FFFC00
07FF01FFFC00
0FFE01FFFC00
0FFE01FFFE00
1FFC01FFFE00
3FFC01FFFE00
3FF801FFFF00
7FF801FFFF00
FFF800FFFF00
FFE000E00000
C00000000000
ENDCHAR
STARTCHAR 0102
ENCODING 258
SWIDTH 630 0
DWIDTH 42 0
BBX 43 59 1 -2
BITMAP
000001F807E0
000001F80FE0
000001F81FC0
000001FFFFC0
000000FFFF80
000000FFFF00
000000FFFE00
0000007FFC00
0000003FF800
0000000FC000
000000000000
000000000000
00000003C000
0000001FC000
0000001FE000
0000003FE000
0000003FE000
0000007FE000
000000FFE000
000000FFE000
000001FFE000
000001FFE000
000003FFE000
000003FFE000
000007FFE000
00000FFFE000
00000FFFE000
00001FFFE000
00001FFFE000
00003FFFF000
00007FFFF000
00007FFFF000
0000FFFFF000
0001FFFFF000
0001FFFFF000
0003FFFFF000
0007F9FFF000
0007F0FFF000
000FE0FFF000
001FC0FFF000
001FC0FFF800
003F80FFF800
003F07FFF800
007FFFFFF800
00FFFFFFF800
00FFFFFFF800
01FFFFFFFC00
03FFFFFFFC00
03FFC1FFFC00
07FF01FFFC00
0FFE01FFFC00
0FFE01FFFE00
1FFC01FFFE00
3FFC01FFFE00
3FF801FFFF00
7FF801FFFF00
FFF800FFFF00
FFE000E00000
C00000000000
ENDCHAR
STARTCHAR 0103
ENCODING 259
SWIDTH 630 0
DWIDTH 42 0
BBX 43 59 1 -2
BITMAP
000001F807E0
000001F80FE0
000001F81FC0
000001FFFFC0
000000FFFF80
000000FFFF00
000000FFFE00
0000007FFC00
0000003FF800
0000000FC000
000000000000
000000000000
00000003C000
0000001FC000
0000001FE000
0000003FE000
0000003FE000
0000007FE000
000000FFE000
000000FFE000
000001FFE000
000001FFE000
000003FFE000
000003FFE000
000007FFE000
00000FFFE000
00000FFFE000
00001FFFE000
00001FFFE000
00003FFFF000
00007FFFF000
00007FFFF000
0000FFFFF000
0001FFFFF000
0001FFFFF000
0003FFFFF000
0007F9FFF000
0007F0FFF000
000FE0FFF000
001FC0FFF000
001FC0FFF800
003F80FFF800
003F07FFF800
007FFFFFF800
00FFFFFFF800
00FFFFFFF800
01FFFFFFFC00
03FFFFFFFC00
03FFC1FFFC00
07FF01FFFC00
0FFE01FFFC00
0FFE01FFFE00
1FFC01FFFE00
3FFC01FFFE00
3FF801FFFF00
7FF801FFFF00
FFF800FFFF00
FFE000E00000
C00000000000
ENDCHAR
STARTCHAR 0104
ENCODING 260
SWIDTH 630 0
DWIDTH 42 0
BBX 40 56 1 -11
BITMAP
00000003C0
0000001FC0
0000001FE0
0000003FE0
0000003FE0
0000007FE0
000000FFE0
000000FFE0
000001FFE0
000001FFE0
000003FFE0
000003FFE0
000007FFE0
00000FFFE0
00000FFFE0
00001FFFE0
00001FFFE0
00003FFFF0
00007FFFF0
00007FFFF0
0000FFFFF0
0001FFFFF0
0001FFFFF0
0003FFFFF0
0007F9FFF0
0007F0FFF0
000FE0FFF0
001FC0FFF0
001FC0FFF8
003F80FFF8
003F07FFF8
007FFFFFF8
00FFFFFFF8
00FFFFFFF8
01FFFFFFFC
03FFFFFFFC
03FFC1FFFC
07FF01FFFC
0FFE01FFFC
0FFE01FFFE
1FFC01FFFE
3FFC01FFFE
3FF801FFFF
7FF801FFFF
FFF801FFFF
FFE003F000
C00007E000
00000FC000
00000FC000
00001FC000
00001FC070
00003FFFF0
00003FFFF0
00001FFFF0
00001FFFE0
000007FFC0
ENDCHAR
STARTCHAR 0105
ENCODING 261
SWIDTH 630 0
DWIDTH 42 0
BBX 40 56 1 -11
BITMAP
00000003C0
0000001FC0
0000001FE0
0000003FE0
0000003FE0
0000007FE0
000000FFE0
000000FFE0
000001FFE0
000001FFE0
000003FFE0
000003FFE0
000007FFE0
00000FFFE0
00000FFFE0
00001FFFE0
00001FFFE0
00003FFFF0
00007FFFF0
00007FFFF0
0000FFFFF0
0001FFFFF0
0001FFFFF0
0003FFFFF0
0007F9FFF0
0007F0FFF0
000FE0FFF0
001FC0FFF0
001FC0FFF8
003F80FFF8
003F07FFF8
007FFFFFF8
00FFFFFFF8
00FFFFFFF8
01FFFFFFFC
03FFFFFFFC
03FFC1FFFC
07FF01FFFC
0FFE01FFFC
0FFE01FFFE
1FFC01FFFE
3FFC01FFFE
3FF801FFFF
7FF801FFFF
FFF801FFFF
FFE003F000
C00007E000
00000FC000
00000FC000
00001FC000
00001FC070
00003FFFF0
00003FFFF0
00001FFFF0
00001FFFE0
000007FFC0
ENDCHAR
STARTCHAR 0106
ENCODING 262
SWIDTH 480 0
DWIDTH 32 0
BBX 38 57 5 1
BITMAP
00000003FC
00000007FC
0000000FF8
0000001FF0
0000003FE0
0000007FC0
0000007F80
000000FF00
000001FE00
000001FC00
0000003800
0000000000
0000000000
00000FF800
00007FFE00
0003FFFF80
000FFFFFC0
003FFFFFE0
007FFFFFE0
00FFFFFFE0
01FFFFFFE0
03FFFFFFC0
03FFFFFFC0
07FFFFFFC0
0FFFFFFF80
0FFFFF8D00
1FFFF80000
1FFFE00000
3FFF800000
3FFF000000
3FFF000000
3FFE000000
3FFE000000
7FFE000000
7FFC000000
7FFE000000
7FFE000000
FFFF000C00
FFFF83FC00
FFFFFFFC00
FFFFFFFC00
FFFFFFFC00
FFFFFFF800
FFFFFFF800
FFFFFFF800
FFFFFFF800
7FFFFFF000
7FFFFFF000
7FFFFFF000
7FFFFFF000
3FFFFFE000
3FFFFFC000
3FFFFF8000
1FFFFF0000
1FFFFC0000
03FFF80000
003FC00000
ENDCHAR
STARTCHAR 0107
ENCODING 263
SWIDTH 480 0
DWIDTH 32 0
BBX 38 57 5 1
BITMAP
00000003FC
00000007FC
0000000FF8
0000001FF0
0000003FE0
0000007FC0
0000007F80
000000FF00
000001FE00
000001FC00
0000003800
0000000000
0000000000
00000FF800
00007FFE00
0003FFFF80
000FFFFFC0
003FFFFFE0
007FFFFFE0
00FFFFFFE0
01FFFFFFE0
03FFFFFFC0
03FFFFFFC0
07FFFFFFC0
0FFFFFFF80
0FFFFF8D00
1FFFF80000
1FFFE00000
3FFF800000
3FFF000000
3FFF000000
3FFE000000
3FFE000000
7FFE000000
7FFC000000
7FFE000000
7FFE000000
FFFF000C00
FFFF83FC00
FFFFFFFC00
FFFFFFFC00
FFFFFFFC00
FFFFFFF800
FFFFFFF800
FFFFFFF800
FFFFFFF800
7FFFFFF000
7FFFFFF000
7FFFFFF000
7FFFFFF000
3FFFFFE000
3FFFFFC000
3FFFFF8000
1FFFFF0000
1FFFFC0000
03FFF80000
003FC00000
ENDCHAR
STARTCHAR 0108
ENCODING 264
SWIDTH 480 0
DWIDTH 32 0
BBX 36 57 5 1
BITMAP
0000001800
000000FC00
000003FE00
000007FF00
00001FFF80
00003FFFC0
00007FFFE0
0000FFDFF0
0001FF0FE0
0000FE07E0
0000600380
0000000000
0000000000
00000FF800
00007FFE00
0003FFFF80
000FFFFFC0
003FFFFFE0
007FFFFFE0
00FFFFFFE0
01FFFFFFE0
03FFFFFFC0
03FFFFFFC0
07FFFFFFC0
0FFFFFFF80
0FFFFF8D00
1FFFF80000
1FFFE00000
3FFF800000
3FFF000000
3FFF000000
3FFE000000
3FFE000000
7FFE000000
7FFC000000
7FFE000000
7FFE000000
FFFF000C00
FFFF83FC00
FFFFFFFC00
FFFFFFFC00
FFFFFFFC00
FFFFFFF800
FFFFFFF800
FFFFFFF800
FFFFFFF800
7FFFFFF000
7FFFFFF000
7FFFFFF000
7FFFFFF000
3FFFFFE000
3FFFFFC000
3FFFFF8000
1FFFFF0000
1FFFFC0000
03FFF80000
003FC00000
ENDCHAR
STARTCHAR 0109
ENCODING 265
SWIDTH 480 0
DWIDTH 32 0
BBX 36 57 5 1
BITMAP
0000001800
000000FC00
000003FE00
000007FF00
00001FFF80
00003FFFC0
00007FFFE0
0000FFDFF0
0001FF0FE0
0000FE07E0
0000600380
0000000000
0000000000
00000FF800
00007FFE00
0003FFFF80
000FFFFFC0
003FFFFFE0
007FFFFFE0
00FFFFFFE0
01FFFFFFE0
03FFFFFFC0
03FFFFFFC0
07FFFFFFC0
0FFFFFFF80
0FFFFF8D00
1FFFF80000
1FFFE00000
3FFF800000
3FFF000000
3FFF000000
3FFE000000
3FFE000000
7FFE000000
7FFC000000
7FFE000000
7FFE000000
FFFF000C00
FFFF83FC00
FFFFFFFC00
FFFFFFFC00
FFFFFFFC00
FFFFFFF800
FFFFFFF800
FFFFFFF800
FFFFFFF800
7FFFFFF000
7FFFFFF000
7FFFFFF000
7FFFFFF000
3FFFFFE000
3FFFFFC000
3FFFFF8000
1FFFFF0000
1FFFFC0000
03FFF80000
003FC00000
ENDCHAR
STARTCHAR 010A
ENCODING 266
SWIDTH 480 0
DWIDTH 32 0
BBX 35 53 5 1
BITMAP
000000E000
000001F800
000003F800
000007F800
000007F000
000007F000
000003E000
0000000000
0000000000
00000FF800
00007FFE00
0003FFFF80
000FFFFFC0
003FFFFFE0
007FFFFFE0
00FFFFFFE0
01FFFFFFE0
03FFFFFFC0
03FFFFFFC0
07FFFFFFC0
0FFFFFFF80
0FFFFF8D00
1FFFF80000
1FFFE00000
3FFF800000
3FFF000000
3FFF000000
3FFE000000
3FFE000000
7FFE000000
7FFC000000
7FFE000000
7FFE000000
FFFF000C00
FFFF83FC00
FFFFFFFC00
FFFFFFFC00
FFFFFFFC00
FFFFFFF800
FFFFFFF800
FFFFFFF800
FFFFFFF800
7FFFFFF000
7FFFFFF000
7FFFFFF000
7FFFFFF000
3FFFFFE000
3FFFFFC000
3FFFFF8000
1FFFFF0000
1FFFFC0000
03FFF80000
003FC00000
ENDCHAR
STARTCHAR 010B
ENCODING 267
SWIDTH 480 0
DWIDTH 32 0
BBX 35 53 5 1
BITMAP
000000E000
000001F800
000003F800
000007F800
000007F000
000007F000
000003E000
0000000000
0000000000
00000FF800
00007FFE00
0003FFFF80
000FFFFFC0
003FFFFFE0
007FFFFFE0
00FFFFFFE0
01FFFFFFE0
03FFFFFFC0
03FFFFFFC0
07FFFFFFC0
0FFFFFFF80
0FFFFF8D00
1FFFF80000
1FFFE00000
3FFF800000
3FFF000000
3FFF000000
3FFE000000
3FFE000000
7FFE000000
7FFC000000
7FFE000000
7FFE000000
FFFF000C00
FFFF83FC00
FFFFFFFC00
FFFFFFFC00
FFFFFFFC00
FFFFFFF800
FFFFFFF800
FFFFFFF800
FFFFFFF800
7FFFFFF000
7FFFFFF000
7FFFFFF000
7FFFFFF000
3FFFFFE000
3FFFFFC000
3FFFFF8000
1FFFFF0000
1FFFFC0000
03FFF80000
003FC00000
ENDCHAR
STARTCHAR 010C
ENCODING 268
SWIDTH 480 0
DWIDTH 32 0
BBX 37 57 5 1
BITMAP
0000040000
00007E03F0
00007F07F8
00007F9FF0
00007FFFE0
00003FFFC0
00001FFF80
00000FFF00
000007FC00
000003F000
000001C000
0000000000
0000000000
00000FF800
00007FFE00
0003FFFF80
000FFFFFC0
003FFFFFE0
007FFFFFE0
00FFFFFFE0
01FFFFFFE0
03FFFFFFC0
03FFFFFFC0
07FFFFFFC0
0FFFFFFF80
0FFFFF8D00
1FFFF80000
1FFFE00000
3FFF800000
3FFF000000
3FFF000000
3FFE000000
3FFE000000
7FFE000000
7FFC000000
7FFE000000
7FFE000000
FFFF000C00
FFFF83FC00
FFFFFFFC00
FFFFFFFC00
FFFFFFFC00
FFFFFFF800
FFFFFFF800
FFFFFFF800
FFFFFFF800
7FFFFFF000
7FFFFFF000
7FFFFFF000
7FFFFFF000
3FFFFFE000
3FFFFFC000
3FFFFF8000
1FFFFF0000
1FFFFC0000
03FFF80000
003FC00000
ENDCHAR
STARTCHAR 010D
ENCODING 269
SWIDTH 480 0
DWIDTH 32 0
BBX 37 57 5 1
BITMAP
0000040000
00007E03F0
00007F07F8
00007F9FF0
00007FFFE0
00003FFFC0
00001FFF80
00000FFF00
000007FC00
000003F000
000001C000
0000000000
0000000000
00000FF800
00007FFE00
0003FFFF80
000FFFFFC0
003FFFFFE0
007FFFFFE0
00FFFFFFE0
01FFFFFFE0
03FFFFFFC0
03FFFFFFC0
07FFFFFFC0
0FFFFFFF80
0FFFFF8D00
1FFFF80000
1FFFE00000
3FFF800000
3FFF000000
3FFF000000
3FFE000000
3FFE000000
7FFE000000
7FFC000000
7FFE000000
7FFE000000
FFFF000C00
FFFF83FC00
FFFFFFFC00
FFFFFFFC00
FFFFFFFC00
FFFFFFF800
FFFFFFF800
FFFFFFF800
FFFFFFF800
7FFFFFF000
7FFFFFF000
7FFFFFF000
7FFFFFF000
3FFFFFE000
3FFFFFC000
3FFFFF8000
1FFFFF0000
1FFFFC0000
03FFF80000
003FC00000
ENDCHAR
STARTCHAR 010E
ENCODING 270
SWIDTH 450 0
DWIDTH 30 0
BBX 29 58 7 1
BITMAP
00000FC0
01F03FC0
03F87FC0
03FCFF80
03FFFF00
01FFFE00
00FFF800
007FF000
003FE000
000F8000
00060000
00000000
00F00000
03FF8000
0FFFF000
1FFFFC00
1FFFFF00
1FFFFF00
3FFFFF80
3FFFFFC0
3FFFFFC0
3FFFFFE0
3FFFFFE0
7FFFFFF0
7FFFFFF0
7FFC7FF0
7FF81FF0
7FF80FF8
7FF80FF8
7FF00FF8
7FF00FF8
7FF00FF0
FFF01FF0
FFF01FF0
FFF03FE0
FFF07FE0
FFF0FFC0
FFE1FFC0
FFE3FF80
FFF7FF00
FFFFFF00
FFFFFE00
FFFFFC00
FFFFF800
FFFFF800
FFFFF000
FFFFE000
FFFFC000
FFFF8000
FFFF0000
FFFE0000
FFFC0000
FFF80000
FFE00000
FF800000
FE000000
F0000000
C0000000
ENDCHAR
STARTCHAR 010F
ENCODING 271
SWIDTH 450 0
DWIDTH 30 0
BBX 29 58 7 1
BITMAP
00000FC0
01F03FC0
03F87FC0
03FCFF80
03FFFF00
01FFFE00
00FFF800
007FF000
003FE000
000F8000
00060000
00000000
00F00000
03FF8000
0FFFF000
1FFFFC00
1FFFFF00
1FFFFF00
3FFFFF80
3FFFFFC0
3FFFFFC0
3FFFFFE0
3FFFFFE0
7FFFFFF0
7FFFFFF0
7FFC7FF0
7FF81FF0
7FF80FF8
7FF80FF8
7FF00FF8
7FF00FF8
7FF00FF0
FFF01FF0
FFF01FF0
FFF03FE0
FFF07FE0
FFF0FFC0
FFE1FFC0
FFE3FF80
FFF7FF00
FFFFFF00
FFFFFE00
FFFFFC00
FFFFF800
FFFFF800
FFFFF000
FFFFE000
FFFFC000
FFFF8000
FFFF0000
FFFE0000
FFFC0000
FFF80000
FFE00000
FF800000
FE000000
F0000000
C0000000
ENDCHAR
STARTCHAR 0110
ENCODING 272
SWIDTH 480 0
DWIDTH 32 0
BBX 33 46 5 0
BITMAP
000F000000
003FF80000
00FFFF0000
01FFFFC000
01FFFFF000
01FFFFF000
01FFFFF800
03FFFFFC00
03FFFFFC00
03FFFFFE00
03FFFFFE00
03FFFFFF00
07FFFFFF00
07FFC7FF00
07FF81FF00
07FFF8FF80
07FFF8FF80
0FFFF8FF80
7FFFF8FF80
7FFFF8FF80
7FFFF9FF00
FFFFF9FF00
FFFFFBFF00
FFFFF7FE00
FFFF0FFC00
FFFF1FFC00
7FFF3FF800
0FFF7FF000
0FFFFFF000
0FFFFFE000
0FFFFFC000
0FFFFF8000
0FFFFF8000
0FFFFF0000
0FFFFE0000
0FFFFC0000
0FFFF80000
0FFFF00000
0FFFE00000
0FFFC00000
0FFF800000
0FFE000000
0FF8000000
0FE0000000
0F00000000
0C00000000
ENDCHAR
STARTCHAR 0111
ENCODING 273
SWIDTH 480 0
DWIDTH 32 0
BBX 33 46 5 0
BITMAP
000F000000
003FF80000
00FFFF0000
01FFFFC000
01FFFFF000
01FFFFF000
01FFFFF800
03FFFFFC00
03FFFFFC00
03FFFFFE00
03FFFFFE00
03FFFFFF00
07FFFFFF00
07FFC7FF00
07FF81FF00
07FFF8FF80
07FFF8FF80
0FFFF8FF80
7FFFF8FF80
7FFFF8FF80
7FFFF9FF00
FFFFF9FF00
FFFFFBFF00
FFFFF7FE00
FFFF0FFC00
FFFF1FFC00
7FFF3FF800
0FFF7FF000
0FFFFFF000
0FFFFFE000
0FFFFFC000
0FFFFF8000
0FFFFF8000
0FFFFF0000
0FFFFE0000
0FFFFC0000
0FFFF80000
0FFFF00000
0FFFE00000
0FFFC00000
0FFF800000
0FFE000000
0FF8000000
0FE0000000
0F00000000
0C00000000
ENDCHAR
STARTCHAR 0112
ENCODING 274
SWIDTH 495 0
DWIDTH 33 0
BBX 27 55 8 0
BITMAP
00000300
000FFF00
0FFFFF00
0FFFFF00
0FFFFF00
0FFFFE00
0FFF0000
1F800000
000F0000
00FFFF80
07FFFFE0
1FFFFFC0
3FFFFFC0
3FFFFFC0
3FFFFF80
1FFFFF80
1FFFFF00
1FFFFF00
1FFFFE00
1FFFFE00
1FFFFE00
3FFFFE00
3FFFFC00
3FFC0000
3FF80000
3FF80000
3FF80000
3FFC3800
3FFFF800
3FFFF800
3FFFF000
3FFFF000
3FFFF000
3FFFF800
3FFF0000
3FF80000
3FF80000
3FF80380
3FFFFF80
3FFFFF80
7FFFFF80
3FFFFF80
3FFFFF80
3FFFFF80
7FFFFF80
7FFFFF80
7FFFFF80
7FFFFF80
7FFFFF80
7FFFFF80
FFFFFE00
FFFFE000
7FFE0000
7FC00000
78000000
ENDCHAR
STARTCHAR 0113
ENCODING 275
SWIDTH 495 0
DWIDTH 33 0
BBX 27 55 8 0
BITMAP
00000300
000FFF00
0FFFFF00
0FFFFF00
0FFFFF00
0FFFFE00
0FFF0000
1F800000
000F0000
00FFFF80
07FFFFE0
1FFFFFC0
3FFFFFC0
3FFFFFC0
3FFFFF80
1FFFFF80
1FFFFF00
1FFFFF00
1FFFFE00
1FFFFE00
1FFFFE00
3FFFFE00
3FFFFC00
3FFC0000
3FF80000
3FF80000
3FF80000
3FFC3800
3FFFF800
3FFFF800
3FFFF000
3FFFF000
3FFFF000
3FFFF800
3FFF0000
3FF80000
3FF80000
3FF80380
3FFFFF80
3FFFFF80
7FFFFF80
3FFFFF80
3FFFFF80
3FFFFF80
7FFFFF80
7FFFFF80
7FFFFF80
7FFFFF80
7FFFFF80
7FFFFF80
FFFFFE00
FFFFE000
7FFE0000
7FC00000
78000000
ENDCHAR
STARTCHAR 0114
ENCODING 276
SWIDTH 495 0
DWIDTH 33 0
BBX 27 59 8 0
BITMAP
00000780
00001F80
07C01F80
07E07F00
07F0FF00
07FFFE00
03FFFC00
03FFF800
01FFF000
00FFE000
007F8000
00000000
000F0000
00FFFF80
07FFFFE0
1FFFFFC0
3FFFFFC0
3FFFFFC0
3FFFFF80
1FFFFF80
1FFFFF00
1FFFFF00
1FFFFE00
1FFFFE00
1FFFFE00
3FFFFE00
3FFFFC00
3FFC0000
3FF80000
3FF80000
3FF80000
3FFC3800
3FFFF800
3FFFF800
3FFFF000
3FFFF000
3FFFF000
3FFFF800
3FFF0000
3FF80000
3FF80000
3FF80380
3FFFFF80
3FFFFF80
7FFFFF80
3FFFFF80
3FFFFF80
3FFFFF80
7FFFFF80
7FFFFF80
7FFFFF80
7FFFFF80
7FFFFF80
7FFFFF80
FFFFFE00
FFFFE000
7FFE0000
7FC00000
78000000
ENDCHAR
STARTCHAR 0115
ENCODING 277
SWIDTH 495 0
DWIDTH 33 0
BBX 27 59 8 0
BITMAP
00000780
00001F80
07C01F80
07E07F00
07F0FF00
07FFFE00
03FFFC00
03FFF800
01FFF000
00FFE000
007F8000
00000000
000F0000
00FFFF80
07FFFFE0
1FFFFFC0
3FFFFFC0
3FFFFFC0
3FFFFF80
1FFFFF80
1FFFFF00
1FFFFF00
1FFFFE00
1FFFFE00
1FFFFE00
3FFFFE00
3FFFFC00
3FFC0000
3FF80000
3FF80000
3FF80000
3FFC3800
3FFFF800
3FFFF800
3FFFF000
3FFFF000
3FFFF000
3FFFF800
3FFF0000
3FF80000
3FF80000
3FF80380
3FFFFF80
3FFFFF80
7FFFFF80
3FFFFF80
3FFFFF80
3FFFFF80
7FFFFF80
7FFFFF80
7FFFFF80
7FFFFF80
7FFFFF80
7FFFFF80
FFFFFE00
FFFFE000
7FFE0000
7FC00000
78000000
ENDCHAR
STARTCHAR 0116
ENCODING 278
SWIDTH 495 0
DWIDTH 33 0
BBX 27 55 8 0
BITMAP
000F0000
001F8000
001F8000
003F8000
003F8000
003F0000
001E0000
00000000
000F0000
00FFFF80
07FFFFE0
1FFFFFC0
3FFFFFC0
3FFFFFC0
3FFFFF80
1FFFFF80
1FFFFF00
1FFFFF00
1FFFFE00
1FFFFE00
1FFFFE00
3FFFFE00
3FFFFC00
3FFC0000
3FF80000
3FF80000
3FF80000
3FFC3800
3FFFF800
3FFFF800
3FFFF000
3FFFF000
3FFFF000
3FFFF800
3FFF0000
3FF80000
3FF80000
3FF80380
3FFFFF80
3FFFFF80
7FFFFF80
3FFFFF80
3FFFFF80
3FFFFF80
7FFFFF80
7FFFFF80
7FFFFF80
7FFFFF80
7FFFFF80
7FFFFF80
FFFFFE00
FFFFE000
7FFE0000
7FC00000
78000000
ENDCHAR
STARTCHAR 0117
ENCODING 279
SWIDTH 495 0
DWIDTH 33 0
BBX 27 55 8 0
BITMAP
000F0000
001F8000
001F8000
003F8000
003F8000
003F0000
001E0000
00000000
000F0000
00FFFF80
07FFFFE0
1FFFFFC0
3FFFFFC0
3FFFFFC0
3FFFFF80
1FFFFF80
1FFFFF00
1FFFFF00
1FFFFE00
1FFFFE00
1FFFFE00
3FFFFE00
3FFFFC00
3FFC0000
3FF80000
3FF80000
3FF80000
3FFC3800
3FFFF800
3FFFF800
3FFFF000
3FFFF000
3FFFF000
3FFFF800
3FFF0000
3FF80000
3FF80000
3FF80380
3FFFFF80
3FFFFF80
7FFFFF80
3FFFFF80
3FFFFF80
3FFFFF80
7FFFFF80
7FFFFF80
7FFFFF80
7FFFFF80
7FFFFF80
7FFFFF80
FFFFFE00
FFFFE000
7FFE0000
7FC00000
78000000
ENDCHAR
STARTCHAR 0118
ENCODING 280
SWIDTH 495 0
DWIDTH 33 0
BBX 27 57 8 -10
BITMAP
000F0000
00FFFF80
07FFFFE0
1FFFFFC0
3FFFFFC0
3FFFFFC0
3FFFFF80
1FFFFF80
1FFFFF00
1FFFFF00
1FFFFE00
1FFFFE00
1FFFFE00
3FFFFE00
3FFFFC00
3FFC0000
3FF80000
3FF80000
3FF80000
3FFC3800
3FFFF800
3FFFF800
3FFFF000
3FFFF000
3FFFF000
3FFFF800
3FFF0000
3FF80000
3FF80000
3FF80380
3FFFFF80
3FFFFF80
7FFFFF80
3FFFFF80
3FFFFF80
3FFFFF80
7FFFFF80
7FFFFF80
7FFFFF80
7FFFFF80
7FFFFF80
7FFFFF80
FFFFFE00
FFFFE000
7FFE0000
7FFC0000
787C0000
00F80000
01F80000
03F00000
03F00E00
07F0FE00
07FFFE00
07FFFE00
07FFFC00
07FFF800
01FF0000
ENDCHAR
STARTCHAR 0119
ENCODING 281
SWIDTH 495 0
DWIDTH 33 0
BBX 27 57 8 -10
BITMAP
000F0000
00FFFF80
07FFFFE0
1FFFFFC0
3FFFFFC0
3FFFFFC0
3FFFFF80
1FFFFF80
1FFFFF00
1FFFFF00
1FFFFE00
1FFFFE00
1FFFFE00
3FFFFE00
3FFFFC00
3FFC0000
3FF80000
3FF80000
3FF80000
3FFC3800
3FFFF800
3FFFF800
3FFFF000
3FFFF000
3FFFF000
3FFFF800
3FFF0000
3FF80000
3FF80000
3FF80380
3FFFFF80
3FFFFF80
7FFFFF80
3FFFFF80
3FFFFF80
3FFFFF80
7FFFFF80
7FFFFF80
7FFFFF80
7FFFFF80
7FFFFF80
7FFFFF80
FFFFFE00
FFFFE000
7FFE0000
7FFC0000
787C0000
00F80000
01F80000
03F00000
03F00E00
07F0FE00
07FFFE00
07FFFE00
07FFFC00
07FFF800
01FF0000
ENDCHAR
STARTCHAR 011A
ENCODING 282
SWIDTH 495 0
DWIDTH 33 0
BBX 27 58 8 1
BITMAP
00001F80
03E07F80
07F0FF80
07F9FF00
07FFFE00
03FFFC00
01FFF000
00FFE000
007FC000
001F0000
000C0000
000F0000
00FFFF80
07FFFFE0
1FFFFFC0
3FFFFFC0
3FFFFFC0
3FFFFF80
1FFFFF80
1FFFFF00
1FFFFF00
1FFFFE00
1FFFFE00
1FFFFE00
3FFFFE00
3FFFFC00
3FFC0000
3FF80000
3FF80000
3FF80000
3FFC3800
3FFFF800
3FFFF800
3FFFF000
3FFFF000
3FFFF000
3FFFF800
3FFF0000
3FF80000
3FF80000
3FF80380
3FFFFF80
3FFFFF80
7FFFFF80
3FFFFF80
3FFFFF80
3FFFFF80
7FFFFF80
7FFFFF80
7FFFFF80
7FFFFF80
7FFFFF80
7FFFFF80
FFFFFE00
FFFFE000
7FFE0000
7FC00000
78000000
ENDCHAR
STARTCHAR 011B
ENCODING 283
SWIDTH 495 0
DWIDTH 33 0
BBX 27 58 8 1
BITMAP
00001F80
03E07F80
07F0FF80
07F9FF00
07FFFE00
03FFFC00
01FFF000
00FFE000
007FC000
001F0000
000C0000
000F0000
00FFFF80
07FFFFE0
1FFFFFC0
3FFFFFC0
3FFFFFC0
3FFFFF80
1FFFFF80
1FFFFF00
1FFFFF00
1FFFFE00
1FFFFE00
1FFFFE00
3FFFFE00
3FFFFC00
3FFC0000
3FF80000
3FF80000
3FF80000
3FFC3800
3FFFF800
3FFFF800
3FFFF000
3FFFF000
3FFFF000
3FFFF800
3FFF0000
3FF80000
3FF80000
3FF80380
3FFFFF80
3FFFFF80
7FFFFF80
3FFFFF80
3FFFFF80
3FFFFF80
7FFFFF80
7FFFFF80
7FFFFF80
7FFFFF80
7FFFFF80
7FFFFF80
FFFFFE00
FFFFE000
7FFE0000
7FC00000
78000000
ENDCHAR
STARTCHAR 011C
ENCODING 284
SWIDTH 495 0
DWIDTH 33 0
BBX 37 57 3 1
BITMAP
0000001800
0000007C00
000001FE00
000007FF00
00000FFF80
00001FFFC0
00007FFFE0
0000FFDFF0
0000FF0FF0
0000FE07E0
0000600380
0000000000
0000077000
00001FFF00
00003FFFC0
00007FFFE0
0000FFFFF0
0001FFFFF0
0003FFFFF0
0007FFFFF8
000FFFFFF0
001FFFFFE0
001FFF3FC0
003FF80900
007FE00000
007FC00000
00FF800000
00FF800000
01FF000000
01FE000000
03FE000000
03FC0007C0
07FC01FFE0
07FC0FFFC0
07F81FFFC0
0FF80FFFC0
0FF80FFFC0
1FF80FFFC0
1FF80FFF80
1FF80FFF80
3FF81FFF80
3FF81FFF80
3FF81FFF00
7FFE7FFF00
7FFFFFFF00
7FFFFFFF00
7FFFFFFE00
FFFFFFFE00
FFFFFFFE00
7FFFFFF800
7FFFFFF000
7FFFFFC000
3FFFFF0000
1FFFFC0000
1FFFF00000
0FFF800000
03FC000000
ENDCHAR
STARTCHAR 011D
ENCODING 285
SWIDTH 495 0
DWIDTH 33 0
BBX 37 57 3 1
BITMAP
0000001800
0000007C00
000001FE00
000007FF00
00000FFF80
00001FFFC0
00007FFFE0
0000FFDFF0
0000FF0FF0
0000FE07E0
0000600380
0000000000
0000077000
00001FFF00
00003FFFC0
00007FFFE0
0000FFFFF0
0001FFFFF0
0003FFFFF0
0007FFFFF8
000FFFFFF0
001FFFFFE0
001FFF3FC0
003FF80900
007FE00000
007FC00000
00FF800000
00FF800000
01FF000000
01FE000000
03FE000000
03FC0007C0
07FC01FFE0
07FC0FFFC0
07F81FFFC0
0FF80FFFC0
0FF80FFFC0
1FF80FFFC0
1FF80FFF80
1FF80FFF80
3FF81FFF80
3FF81FFF80
3FF81FFF00
7FFE7FFF00
7FFFFFFF00
7FFFFFFF00
7FFFFFFE00
FFFFFFFE00
FFFFFFFE00
7FFFFFF800
7FFFFFF000
7FFFFFC000
3FFFFF0000
1FFFFC0000
1FFFF00000
0FFF800000
03FC000000
ENDCHAR
STARTCHAR 011E
ENCODING 286
SWIDTH 495 0
DWIDTH 33 0
BBX 37 56 3 1
BITMAP
00007E01F8
00007E03F8
00007F07F0
00007FFFF0
00003FFFE0
00003FFFC0
00003FFF80
00001FFF00
00000FFE00
000003F000
0000000000
0000077000
00001FFF00
00003FFFC0
00007FFFE0
0000FFFFF0
0001FFFFF0
0003FFFFF0
0007FFFFF8
000FFFFFF0
001FFFFFE0
001FFF3FC0
003FF80900
007FE00000
007FC00000
00FF800000
00FF800000
01FF000000
01FE000000
03FE000000
03FC0007C0
07FC01FFE0
07FC0FFFC0
07F81FFFC0
0FF80FFFC0
0FF80FFFC0
1FF80FFFC0
1FF80FFF80
1FF80FFF80
3FF81FFF80
3FF81FFF80
3FF81FFF00
7FFE7FFF00
7FFFFFFF00
7FFFFFFF00
7FFFFFFE00
FFFFFFFE00
FFFFFFFE00
7FFFFFF800
7FFFFFF000
7FFFFFC000
3FFFFF0000
1FFFFC0000
1FFFF00000
0FFF800000
03FC000000
ENDCHAR
STARTCHAR 011F
ENCODING 287
SWIDTH 495 0
DWIDTH 33 0
BBX 37 56 3 1
BITMAP
00007E01F8
00007E03F8
00007F07F0
00007FFFF0
00003FFFE0
00003FFFC0
00003FFF80
00001FFF00
00000FFE00
000003F000
0000000000
0000077000
00001FFF00
00003FFFC0
00007FFFE0
0000FFFFF0
0001FFFFF0
0003FFFFF0
0007FFFFF8
000FFFFFF0
001FFFFFE0
001FFF3FC0
003FF80900
007FE00000
007FC00000
00FF800000
00FF800000
01FF000000
01FE000000
03FE000000
03FC0007C0
07FC01FFE0
07FC0FFFC0
07F81FFFC0
0FF80FFFC0
0FF80FFFC0
1FF80FFFC0
1FF80FFF80
1FF80FFF80
3FF81FFF80
3FF81FFF80
3FF81FFF00
7FFE7FFF00
7FFFFFFF00
7FFFFFFF00
7FFFFFFE00
FFFFFFFE00
FFFFFFFE00
7FFFFFF800
7FFFFFF000
7FFFFFC000
3FFFFF0000
1FFFFC0000
1FFFF00000
0FFF800000
03FC000000
ENDCHAR
STARTCHAR 0120
ENCODING 288
SWIDTH 495 0
DWIDTH 33 0
BBX 37 53 3 1
BITMAP
000000F000
000001F800
000003F800
000003F800
000003F800
000003F000
000001E000
0000000000
0000077000
00001FFF00
00003FFFC0
00007FFFE0
0000FFFFF0
0001FFFFF0
0003FFFFF0
0007FFFFF8
000FFFFFF0
001FFFFFE0
001FFF3FC0
003FF80900
007FE00000
007FC00000
00FF800000
00FF800000
01FF000000
01FE000000
03FE000000
03FC0007C0
07FC01FFE0
07FC0FFFC0
07F81FFFC0
0FF80FFFC0
0FF80FFFC0
1FF80FFFC0
1FF80FFF80
1FF80FFF80
3FF81FFF80
3FF81FFF80
3FF81FFF00
7FFE7FFF00
7FFFFFFF00
7FFFFFFF00
7FFFFFFE00
FFFFFFFE00
FFFFFFFE00
7FFFFFF800
7FFFFFF000
7FFFFFC000
3FFFFF0000
1FFFFC0000
1FFFF00000
0FFF800000
03FC000000
ENDCHAR
STARTCHAR 0121
ENCODING 289
SWIDTH 495 0
DWIDTH 33 0
BBX 37 53 3 1
BITMAP
000000F000
000001F800
000003F800
000003F800
000003F800
000003F000
000001E000
0000000000
0000077000
00001FFF00
00003FFFC0
00007FFFE0
0000FFFFF0
0001FFFFF0
0003FFFFF0
0007FFFFF8
000FFFFFF0
001FFFFFE0
001FFF3FC0
003FF80900
007FE00000
007FC00000
00FF800000
00FF800000
01FF000000
01FE000000
03FE000000
03FC0007C0
07FC01FFE0
07FC0FFFC0
07F81FFFC0
0FF80FFFC0
0FF80FFFC0
1FF80FFFC0
1FF80FFF80
1FF80FFF80
3FF81FFF80
3FF81FFF80
3FF81FFF00
7FFE7FFF00
7FFFFFFF00
7FFFFFFF00
7FFFFFFE00
FFFFFFFE00
FFFFFFFE00
7FFFFFF800
7FFFFFF000
7FFFFFC000
3FFFFF0000
1FFFFC0000
1FFFF00000
0FFF800000
03FC000000
ENDCHAR
STARTCHAR 0122
ENCODING 290
SWIDTH 495 0
DWIDTH 33 0
BBX 37 57 3 -11
BITMAP
0000077000
00001FFF00
00003FFFC0
00007FFFE0
0000FFFFF0
0001FFFFF0
0003FFFFF0
0007FFFFF8
000FFFFFF0
001FFFFFE0
001FFF3FC0
003FF80900
007FE00000
007FC00000
00FF800000
00FF800000
01FF000000
01FE000000
03FE000000
03FC0007C0
07FC01FFE0
07FC0FFFC0
07F81FFFC0
0FF80FFFC0
0FF80FFFC0
1FF80FFFC0
1FF80FFF80
1FF80FFF80
3FF81FFF80
3FF81FFF80
3FF81FFF00
7FFE7FFF00
7FFFFFFF00
7FFFFFFF00
7FFFFFFE00
FFFFFFFE00
FFFFFFFE00
7FFFFFF800
7FFFFFF000
7FFFFFC000
3FFFFF0000
1FFFFC0000
1FFFF00000
0FFF800000
03FC000000
0000000000
0000000000
03FC000000
07FC000000
07FC000000
07FC000000
0FF8000000
0FF0000000
1FF0000000
1FE0000000
1FC0000000
0F00000000
ENDCHAR
STARTCHAR 0123
ENCODING 291
SWIDTH 495 0
DWIDTH 33 0
BBX 37 57 3 -11
BITMAP
0000077000
00001FFF00
00003FFFC0
00007FFFE0
0000FFFFF0
0001FFFFF0
0003FFFFF0
0007FFFFF8
000FFFFFF0
001FFFFFE0
001FFF3FC0
003FF80900
007FE00000
007FC00000
00FF800000
00FF800000
01FF000000
01FE000000
03FE000000
03FC0007C0
07FC01FFE0
07FC0FFFC0
07F81FFFC0
0FF80FFFC0
0FF80FFFC0
1FF80FFFC0
1FF80FFF80
1FF80FFF80
3FF81FFF80
3FF81FFF80
3FF81FFF00
7FFE7FFF00
7FFFFFFF00
7FFFFFFF00
7FFFFFFE00
FFFFFFFE00
FFFFFFFE00
7FFFFFF800
7FFFFFF000
7FFFFFC000
3FFFFF0000
1FFFFC0000
1FFFF00000
0FFF800000
03FC000000
0000000000
0000000000
03FC000000
07FC000000
07FC000000
07FC000000
0FF8000000
0FF0000000
1FF0000000
1FE0000000
1FC0000000
0F00000000
ENDCHAR
STARTCHAR 0124
ENCODING 292
SWIDTH 555 0
DWIDTH 37 0
BBX 43 57 2 1
BITMAP
000000006000
00000001F800
00000007FC00
0000001FFE00
0000003FFF00
0000007FFF80
000000FFFF80
000001FF7FC0
000003FE3FC0
000003F81FC0
000001800E00
000000000000
000000000000
00003FE00000
0003FFE00060
000FFFC07FE0
000FFF80FFE0
001FFF81FFE0
000FFFC1FFE0
000FFF81FFC0
000FFF83FFC0
001FFF83FFC0
001FFF03FFC0
001FFF07FF80
003FFF07FF80
003FFE07FF80
003FFE0FFF00
007FFE0FFF00
007FFE0FFF00
007FFE1FFF00
00FFFFFFFE00
00FFFFFFFE00
00FFFFFFFE00
01FFFFFFFC00
01FFFFFFFC00
01FFFFFFFC00
01FFFFFFF800
03FFFFFFFC00
03FFFFFFFC00
03FFFFFFFC00
07FFFFFFFC00
07FFFFFFF800
07FFEFFFF800
0FFFE1FFF800
0FFFC1FFF000
0FFFC1FFF000
0FFFC1FFF000
1FFFC1FFE000
1FFF83FFE000
1FFF83FFE000
3FFF87FFC000
3FFF87FFC000
3FFF87FFC000
7FFF07FF8000
7FFF07FF8000
FFFE0FF00000
9FFE0F800000
ENDCHAR
STARTCHAR 0125
ENCODING 293
SWIDTH 555 0
DWIDTH 37 0
BBX 43 57 2 1
BITMAP
000000006000
00000001F800
00000007FC00
0000001FFE00
0000003FFF00
0000007FFF80
000000FFFF80
000001FF7FC0
000003FE3FC0
000003F81FC0
000001800E00
000000000000
000000000000
00003FE00000
0003FFE00060
000FFFC07FE0
000FFF80FFE0
001FFF81FFE0
000FFFC1FFE0
000FFF81FFC0
000FFF83FFC0
001FFF83FFC0
001FFF03FFC0
001FFF07FF80
003FFF07FF80
003FFE07FF80
003FFE0FFF00
007FFE0FFF00
007FFE0FFF00
007FFE1FFF00
00FFFFFFFE00
00FFFFFFFE00
00FFFFFFFE00
01FFFFFFFC00
01FFFFFFFC00
01FFFFFFFC00
01FFFFFFF800
03FFFFFFFC00
03FFFFFFFC00
03FFFFFFFC00
07FFFFFFFC00
07FFFFFFF800
07FFEFFFF800
0FFFE1FFF800
0FFFC1FFF000
0FFFC1FFF000
0FFFC1FFF000
1FFFC1FFE000
1FFF83FFE000
1FFF83FFE000
3FFF87FFC000
3FFF87FFC000
3FFF87FFC000
7FFF07FF8000
7FFF07FF8000
FFFE0FF00000
9FFE0F800000
ENDCHAR
STARTCHAR 0126
ENCODING 294
SWIDTH 585 0
DWIDTH 39 0
BBX 44 44 2 1
BITMAP
00003FE00000
0003FFE00060
000FFFC07FE0
000FFF80FFE0
001FFF9FFFF0
00FFFFFFFFF0
00FFFFFFFFF0
01FFFFFFFFF0
01FFFFFFFFF0
01FFFFFFFFF0
01FFFFFFFFF0
03FFFFFFFFF0
03FFFFFFFFE0
03FFFFEFFF80
007FFE0FFF00
007FFE0FFF00
007FFE1FFF00
00FFFFFFFE00
00FFFFFFFE00
00FFFFFFFE00
01FFFFFFFC00
01FFFFFFFC00
01FFFFFFFC00
03FFFFFFF800
03FFFFFFFC00
03FFFFFFFC00
03FFFFFFFC00
07FFFFFFFC00
07FFFFFFF800
07FFEFFFF800
0FFFE1FFF800
0FFFC1FFF000
0FFFC1FFF000
0FFFC1FFF000
1FFFC3FFE000
1FFF83FFE000
1FFF83FFE000
3FFF87FFC000
3FFF87FFC000
3FFF87FFC000
7FFF07FF8000
7FFF07FF8000
FFFE0FF00000
9FFE0F000000
ENDCHAR
STARTCHAR 0127
ENCODING 295
SWIDTH 585 0
DWIDTH 39 0
BBX 44 44 2 1
BITMAP
00003FE00000
0003FFE00060
000FFFC07FE0
000FFF80FFE0
001FFF9FFFF0
00FFFFFFFFF0
00FFFFFFFFF0
01FFFFFFFFF0
01FFFFFFFFF0
01FFFFFFFFF0
01FFFFFFFFF0
03FFFFFFFFF0
03FFFFFFFFE0
03FFFFEFFF80
007FFE0FFF00
007FFE0FFF00
007FFE1FFF00
00FFFFFFFE00
00FFFFFFFE00
00FFFFFFFE00
01FFFFFFFC00
01FFFFFFFC00
01FFFFFFFC00
03FFFFFFF800
03FFFFFFFC00
03FFFFFFFC00
03FFFFFFFC00
07FFFFFFFC00
07FFFFFFF800
07FFEFFFF800
0FFFE1FFF800
0FFFC1FFF000
0FFFC1FFF000
0FFFC1FFF000
1FFFC3FFE000
1FFF83FFE000
1FFF83FFE000
3FFF87FFC000
3FFF87FFC000
3FFF87FFC000
7FFF07FF8000
7FFF07FF8000
FFFE0FF00000
9FFE0F000000
ENDCHAR
STARTCHAR 0128
ENCODING 296
SWIDTH 330 0
DWIDTH 22 0
BBX 34 57 2 0
BITMAP
00003C1FC0
0000FE1FC0
0001FF9FC0
0003FFFF80
0003FFFF80
0003FFFF80
0007FFFF00
0007EFFE00
0007C7F800
0007C0F000
0000000000
0000000000
0001FFC000
0003FFF800
0007FFF000
0007FFE000
0007FFE000
0007FFE000
000FFFC000
000FFFC000
000FFF8000
001FFF8000
001FFF8000
003FFF0000
003FFF0000
003FFF0000
003FFF0000
007FFE0000
007FFE0000
007FFE0000
00FFFE0000
00FFFC0000
00FFFC0000
01FFFC0000
01FFF80000
01FFF80000
01FFF80000
03FFF80000
03FFF80000
03FFF00000
07FFF00000
07FFF00000
07FFF00000
07FFF00000
07FFE00000
0FFFE00000
0FFFE00000
0FFFE00000
1FFFE00000
1FFF800000
1FFF800000
3FFF800000
3FFF800000
7FFF000000
7FFE000000
FFE0000000
F800000000
ENDCHAR
STARTCHAR 0129
ENCODING 297
SWIDTH 330 0
DWIDTH 22 0
BBX 34 57 2 0
BITMAP
00003C1FC0
0000FE1FC0
0001FF9FC0
0003FFFF80
0003FFFF80
0003FFFF80
0007FFFF00
0007EFFE00
0007C7F800
0007C0F000
0000000000
0000000000
0001FFC000
0003FFF800
0007FFF000
0007FFE000
0007FFE000
0007FFE000
000FFFC000
000FFFC000
000FFF8000
001FFF8000
001FFF8000
003FFF0000
003FFF0000
003FFF0000
003FFF0000
007FFE0000
007FFE0000
007FFE0000
00FFFE0000
00FFFC0000
00FFFC0000
01FFFC0000
01FFF80000
01FFF80000
01FFF80000
03FFF80000
03FFF80000
03FFF00000
07FFF00000
07FFF00000
07FFF00000
07FFF00000
07FFE00000
0FFFE00000
0FFFE00000
0FFFE00000
1FFFE00000
1FFF800000
1FFF800000
3FFF800000
3FFF800000
7FFF000000
7FFE000000
FFE0000000
F800000000
ENDCHAR
STARTCHAR 012A
ENCODING 298
SWIDTH 330 0
DWIDTH 22 0
BBX 33 54 2 0
BITMAP
000070EC00
0003FFFF80
0003FFFF80
0007FFFF80
0007FFFF80
0007FFFF00
0003000000
0000000000
0000000000
0001FFC000
0003FFF800
0007FFF000
0007FFE000
0007FFE000
0007FFE000
000FFFC000
000FFFC000
000FFF8000
001FFF8000
001FFF8000
003FFF0000
003FFF0000
003FFF0000
003FFF0000
007FFE0000
007FFE0000
007FFE0000
00FFFE0000
00FFFC0000
00FFFC0000
01FFFC0000
01FFF80000
01FFF80000
01FFF80000
03FFF80000
03FFF80000
03FFF00000
07FFF00000
07FFF00000
07FFF00000
07FFF00000
07FFE00000
0FFFE00000
0FFFE00000
0FFFE00000
1FFFE00000
1FFF800000
1FFF800000
3FFF800000
3FFF800000
7FFF000000
7FFE000000
FFE0000000
F800000000
ENDCHAR
STARTCHAR 012B
ENCODING 299
SWIDTH 330 0
DWIDTH 22 0
BBX 33 54 2 0
BITMAP
000070EC00
0003FFFF80
0003FFFF80
0007FFFF80
0007FFFF80
0007FFFF00
0003000000
0000000000
0000000000
0001FFC000
0003FFF800
0007FFF000
0007FFE000
0007FFE000
0007FFE000
000FFFC000
000FFFC000
000FFF8000
001FFF8000
001FFF8000
003FFF0000
003FFF0000
003FFF0000
003FFF0000
007FFE0000
007FFE0000
007FFE0000
00FFFE0000
00FFFC0000
00FFFC0000
01FFFC0000
01FFF80000
01FFF80000
01FFF80000
03FFF80000
03FFF80000
03FFF00000
07FFF00000
07FFF00000
07FFF00000
07FFF00000
07FFE00000
0FFFE00000
0FFFE00000
0FFFE00000
1FFFE00000
1FFF800000
1FFF800000
3FFF800000
3FFF800000
7FFF000000
7FFE000000
FFE0000000
F800000000
ENDCHAR
STARTCHAR 012C
ENCODING 300
SWIDTH 330 0
DWIDTH 22 0
BBX 34 57 2 0
BITMAP
0003F00FC0
0003F00FC0
0003F83FC0
0001FFFF80
0001FFFF00
0001FFFE00
0001FFFC00
0000FFF800
00007FF000
00001F8000
0000000000
0000000000
0001FFC000
0003FFF800
0007FFF000
0007FFE000
0007FFE000
0007FFE000
000FFFC000
000FFFC000
000FFF8000
001FFF8000
001FFF8000
003FFF0000
003FFF0000
003FFF0000
003FFF0000
007FFE0000
007FFE0000
007FFE0000
00FFFE0000
00FFFC0000
00FFFC0000
01FFFC0000
01FFF80000
01FFF80000
01FFF80000
03FFF80000
03FFF80000
03FFF00000
07FFF00000
07FFF00000
07FFF00000
07FFF00000
07FFE00000
0FFFE00000
0FFFE00000
0FFFE00000
1FFFE00000
1FFF800000
1FFF800000
3FFF800000
3FFF800000
7FFF000000
7FFE000000
FFE0000000
F800000000
ENDCHAR
STARTCHAR 012D
ENCODING 301
SWIDTH 330 0
DWIDTH 22 0
BBX 34 57 2 0
BITMAP
0003F00FC0
0003F00FC0
0003F83FC0
0001FFFF80
0001FFFF00
0001FFFE00
0001FFFC00
0000FFF800
00007FF000
00001F8000
0000000000
0000000000
0001FFC000
0003FFF800
0007FFF000
0007FFE000
0007FFE000
0007FFE000
000FFFC000
000FFFC000
000FFF8000
001FFF8000
001FFF8000
003FFF0000
003FFF0000
003FFF0000
003FFF0000
007FFE0000
007FFE0000
007FFE0000
00FFFE0000
00FFFC0000
00FFFC0000
01FFFC0000
01FFF80000
01FFF80000
01FFF80000
03FFF80000
03FFF80000
03FFF00000
07FFF00000
07FFF00000
07FFF00000
07FFF00000
07FFE00000
0FFFE00000
0FFFE00000
0FFFE00000
1FFFE00000
1FFF800000
1FFF800000
3FFF800000
3FFF800000
7FFF000000
7FFE000000
FFE0000000
F800000000
ENDCHAR
STARTCHAR 012E
ENCODING 302
SWIDTH 330 0
DWIDTH 22 0
BBX 29 56 2 -11
BITMAP
0001FFC0
0003FFF8
0007FFF0
0007FFE0
0007FFE0
0007FFE0
000FFFC0
000FFFC0
000FFF80
001FFF80
001FFF80
003FFF80
003FFF00
003FFF00
007FFF00
007FFE00
007FFE00
007FFE00
00FFFE00
00FFFC00
00FFFC00
01FFFC00
01FFFC00
01FFF800
01FFF800
03FFF800
03FFF800
03FFF000
07FFF000
07FFF000
07FFF000
07FFF000
07FFE000
0FFFE000
0FFFE000
0FFFE000
1FFFE000
1FFF8000
1FFF8000
3FFF8000
3FFF8000
7FFF0000
7FFE0000
FFE00000
FFC00000
0F800000
1F800000
3F000000
3F000000
7F000000
7F03C000
FFFFC000
FFFFC000
7FFF8000
7FFF8000
1FFF0000
ENDCHAR
STARTCHAR 012F
ENCODING 303
SWIDTH 330 0
DWIDTH 22 0
BBX 29 56 2 -11
BITMAP
0001FFC0
0003FFF8
0007FFF0
0007FFE0
0007FFE0
0007FFE0
000FFFC0
000FFFC0
000FFF80
001FFF80
001FFF80
003FFF80
003FFF00
003FFF00
007FFF00
007FFE00
007FFE00
007FFE00
00FFFE00
00FFFC00
00FFFC00
01FFFC00
01FFFC00
01FFF800
01FFF800
03FFF800
03FFF800
03FFF000
07FFF000
07FFF000
07FFF000
07FFF000
07FFE000
0FFFE000
0FFFE000
0FFFE000
1FFFE000
1FFF8000
1FFF8000
3FFF8000
3FFF8000
7FFF0000
7FFE0000
FFE00000
FFC00000
0F800000
1F800000
3F000000
3F000000
7F000000
7F03C000
FFFFC000
FFFFC000
7FFF8000
7FFF8000
1FFF0000
ENDCHAR
STARTCHAR 0130
ENCODING 304
SWIDTH 330 0
DWIDTH 22 0
BBX 29 54 2 0
BITMAP
000007C0
00000FE0
00000FE0
00001FE0
00001FC0
00001F80
00000700
00000000
00000000
0001FFC0
0003FFF8
0007FFF0
0007FFE0
0007FFE0
0007FFE0
000FFFC0
000FFFC0
000FFF80
001FFF80
001FFF80
003FFF00
003FFF00
003FFF00
003FFF00
007FFE00
007FFE00
007FFE00
00FFFE00
00FFFC00
00FFFC00
01FFFC00
01FFF800
01FFF800
01FFF800
03FFF800
03FFF800
03FFF000
07FFF000
07FFF000
07FFF000
07FFF000
07FFE000
0FFFE000
0FFFE000
0FFFE000
1FFFE000
1FFF8000
1FFF8000
3FFF8000
3FFF8000
7FFF0000
7FFE0000
FFE00000
F8000000
ENDCHAR
STARTCHAR 0131
ENCODING 305
SWIDTH 330 0
DWIDTH 22 0
BBX 29 54 2 0
BITMAP
000007C0
00000FE0
00000FE0
00001FE0
00001FC0
00001F80
00000700
00000000
00000000
0001FFC0
0003FFF8
0007FFF0
0007FFE0
0007FFE0
0007FFE0
000FFFC0
000FFFC0
000FFF80
001FFF80
001FFF80
003FFF00
003FFF00
003FFF00
003FFF00
007FFE00
007FFE00
007FFE00
00FFFE00
00FFFC00
00FFFC00
01FFFC00
01FFF800
01FFF800
01FFF800
03FFF800
03FFF800
03FFF000
07FFF000
07FFF000
07FFF000
07FFF000
07FFE000
0FFFE000
0FFFE000
0FFFE000
1FFFE000
1FFF8000
1FFF8000
3FFF8000
3FFF8000
7FFF0000
7FFE0000
FFE00000
F8000000
ENDCHAR
STARTCHAR 0132
ENCODING 306
SWIDTH 600 0
DWIDTH 40 0
BBX 46 45 1 0
BITMAP
0001FE000FDC
0003FFC01FFC
0007FF801FFC
0007FF001FFC
0007FF003FFC
0007FF003FFC
000FFE007FFC
000FFE007FFC
000FFE007FFC
001FFC00FFF8
001FFC00FFF8
001FFC00FFF8
003FFC01FFF8
003FF801FFF8
003FF801FFF8
007FF801FFF0
007FF001FFF0
007FF003FFF0
007FF003FFF0
00FFF003FFF0
00FFE003FFF0
00FFE003FFE0
01FFE003FFE0
01FFE003FFE0
01FFC003FFE0
01FFC003FFC0
03FFC003FFC0
03FFC003FFC0
03FFC003FFC0
03FF8003FF80
07FF87C3FF80
07FF9FE3FF80
07FFBFE3FF00
07FFBFE7FF00
0FFFBFF7FE00
0FFF3FF7FC00
0FFF3FFFFC00
0FFE3FFFFC00
1FFE3FFFF800
1FFC3FFFF000
1FFC1FFFE000
3FFC1FFFC000
3FF80FFF8000
7FC003FF0000
F80001FC0000
ENDCHAR
STARTCHAR 0133
ENCODING 307
SWIDTH 600 0
DWIDTH 40 0
BBX 46 45 1 0
BITMAP
0001FE000FDC
0003FFC01FFC
0007FF801FFC
0007FF001FFC
0007FF003FFC
0007FF003FFC
000FFE007FFC
000FFE007FFC
000FFE007FFC
001FFC00FFF8
001FFC00FFF8
001FFC00FFF8
003FFC01FFF8
003FF801FFF8
003FF801FFF8
007FF801FFF0
007FF001FFF0
007FF003FFF0
007FF003FFF0
00FFF003FFF0
00FFE003FFF0
00FFE003FFE0
01FFE003FFE0
01FFE003FFE0
01FFC003FFE0
01FFC003FFC0
03FFC003FFC0
03FFC003FFC0
03FFC003FFC0
03FF8003FF80
07FF87C3FF80
07FF9FE3FF80
07FFBFE3FF00
07FFBFE7FF00
0FFFBFF7FE00
0FFF3FF7FC00
0FFF3FFFFC00
0FFE3FFFFC00
1FFE3FFFF800
1FFC3FFFF000
1FFC1FFFE000
3FFC1FFFC000
3FF80FFF8000
7FC003FF0000
F80001FC0000
ENDCHAR
STARTCHAR 0134
ENCODING 308
SWIDTH 450 0
DWIDTH 30 0
BBX 38 58 3 0
BITMAP
0000000F00
0000003F80
000000FFC0
000001FFF0
000003FFF8
000007FFFC
00000FFFFC
00001FF3FC
00003FC1F8
00003F8040
00001C0000
0000000000
0000000000
000007FBC0
000007FFC0
00000FFFC0
00000FFFC0
00001FFFC0
00001FFFC0
00003FFFC0
00003FFFC0
00007FFFC0
00007FFF80
00007FFF80
0000FFFF80
0000FFFF80
0000FFFF80
0000FFFF80
0001FFFF80
0001FFFF80
0001FFFF00
0001FFFF00
0001FFFF00
0001FFFF00
0001FFFF00
0001FFFE00
0001FFFE00
0001FFFE00
0001FFFE00
0001FFFC00
0001FFFC00
0001FFFC00
0001FFF800
0FE1FFF800
7FE1FFF800
7FF1FFF000
7FF1FFF000
7FF3FFE000
FFF9FFC000
FFFFFFC000
FFFFFF8000
7FFFFF0000
7FFFFE0000
3FFFFC0000
3FFFF80000
0FFFE00000
07FFC00000
00FF000000
ENDCHAR
STARTCHAR 0135
ENCODING 309
SWIDTH 450 0
DWIDTH 30 0
BBX 38 58 3 0
BITMAP
0000000F00
0000003F80
000000FFC0
000001FFF0
000003FFF8
000007FFFC
00000FFFFC
00001FF3FC
00003FC1F8
00003F8040
00001C0000
0000000000
0000000000
000007FBC0
000007FFC0
00000FFFC0
00000FFFC0
00001FFFC0
00001FFFC0
00003FFFC0
00003FFFC0
00007FFFC0
00007FFF80
00007FFF80
0000FFFF80
0000FFFF80
0000FFFF80
0000FFFF80
0001FFFF80
0001FFFF80
0001FFFF00
0001FFFF00
0001FFFF00
0001FFFF00
0001FFFF00
0001FFFE00
0001FFFE00
0001FFFE00
0001FFFE00
0001FFFC00
0001FFFC00
0001FFFC00
0001FFF800
0FE1FFF800
7FE1FFF800
7FF1FFF000
7FF1FFF000
7FF3FFE000
FFF9FFC000
FFFFFFC000
FFFFFF8000
7FFFFF0000
7FFFFE0000
3FFFFC0000
3FFFF80000
0FFFE00000
07FFC00000
00FF000000
ENDCHAR
STARTCHAR 0136
ENCODING 310
SWIDTH 555 0
DWIDTH 37 0
BBX 43 57 1 -11
BITMAP
000000100C00
003FFFF01E00
007FFFF03E00
003FFFE07F00
003FFFE0FFE0
003FFFE1FFE0
003FFFC3FFC0
007FFFC7FFC0
007FFFCFFF80
007FFFCFFF00
00FFFF9FFE00
00FFFFBFFC00
00FFFFBFF800
00FFFFFFF000
01FFFFFFE000
01FFFFFFC000
01FFFFFF8000
01FFFFFF0000
01FFFFFF0000
03FFFFFE0000
03FFFFFC0000
03FFFFF80000
07FFFFF80000
07FFFFF00000
07FFFFE00000
07FFFFE00000
0FFFFFF00000
0FFFFFF80000
0FFFFFFC0000
0FFFFFFC0000
1FFFFFFE0000
1FFFFFFF0000
1FFFFFFF0000
1FFFFFFF8000
3FFFF3FF8000
3FFFF3FFC000
3FFFE3FFC000
3FFFE1FFE000
3FFFC1FFE000
3FFFE0FFE000
7FFFE0FFE000
7FFFE07FF000
7FFFE07FF000
7FFFC07C2000
FFFF80780000
001C00700000
000000000000
0003FE000000
0003FE000000
0007FE000000
0007FC000000
0007FC000000
000FF8000000
000FF0000000
001FE0000000
000FC0000000
000780000000
ENDCHAR
STARTCHAR 0137
ENCODING 311
SWIDTH 555 0
DWIDTH 37 0
BBX 43 57 1 -11
BITMAP
000000100C00
003FFFF01E00
007FFFF03E00
003FFFE07F00
003FFFE0FFE0
003FFFE1FFE0
003FFFC3FFC0
007FFFC7FFC0
007FFFCFFF80
007FFFCFFF00
00FFFF9FFE00
00FFFFBFFC00
00FFFFBFF800
00FFFFFFF000
01FFFFFFE000
01FFFFFFC000
01FFFFFF8000
01FFFFFF0000
01FFFFFF0000
03FFFFFE0000
03FFFFFC0000
03FFFFF80000
07FFFFF80000
07FFFFF00000
07FFFFE00000
07FFFFE00000
0FFFFFF00000
0FFFFFF80000
0FFFFFFC0000
0FFFFFFC0000
1FFFFFFE0000
1FFFFFFF0000
1FFFFFFF0000
1FFFFFFF8000
3FFFF3FF8000
3FFFF3FFC000
3FFFE3FFC000
3FFFE1FFE000
3FFFC1FFE000
3FFFE0FFE000
7FFFE0FFE000
7FFFE07FF000
7FFFE07FF000
7FFFC07C2000
FFFF80780000
001C00700000
000000000000
0003FE000000
0003FE000000
0007FE000000
0007FC000000
0007FC000000
000FF8000000
000FF0000000
001FE0000000
000FC0000000
000780000000
ENDCHAR
STARTCHAR 0138
ENCODING 312
SWIDTH 525 0
DWIDTH 35 0
BBX 40 37 1 -1
BITMAP
0000008060
01FFFF81F0
00FFFF83F8
00FFFF07FD
00FFFF0FFF
00FFFE1FFE
01FFFE3FFC
01FFFE7FF8
01FFFEFFF0
03FFFEFFE0
03FFFFFF80
03FFFFFF00
03FFFFFE00
07FFFFFC00
07FFFFF800
07FFFFF800
07FFFFF000
07FFFFE000
0FFFFFC000
0FFFFF8000
1FFFFFC000
1FFFFFE000
1FFFFFF000
1FFFFFF000
3FFFFFF800
3FFFFFFC00
3FFFFFFE00
3FFFEFFE00
3FFFC7FF00
3FFFC7FF80
7FFF83FF80
7FFF83FF80
7FFFC1FFC0
7FFFC1FFC0
7FFFC0F8C0
FFFF00F000
000000C000
ENDCHAR
STARTCHAR 0139
ENCODING 313
SWIDTH 510 0
DWIDTH 34 0
BBX 38 59 1 -1
BITMAP
00000003FC
00000007FC
0000000FFC
0000000FF8
0000001FF0
0000003FC0
0000007F80
000000FF00
000000FE00
000001FC00
0000003800
0000000000
0000000000
00000FFF80
0000FFFF80
0001FFFF00
0001FFFF00
0003FFFE00
0003FFFE00
0003FFFE00
0007FFFC00
0007FFFC00
0007FFFC00
000FFFF800
000FFFF800
000FFFF000
000FFFF000
001FFFF000
001FFFE000
001FFFE000
003FFFE000
003FFFC000
003FFFC000
007FFF8000
007FFF8000
00FFFF8000
00FFFF0000
00FFFF0000
01FFFF0000
01FFFE0000
03FFFE0000
03FFFC0000
03FFFC0000
07FFFC0000
07FFFFFFC0
07FFFFFFC0
0FFFFFFF80
0FFFFFFF80
0FFFFFFF80
0FFFFFFF80
1FFFFFFF80
1FFFFFFF00
1FFFFFFF00
1FFFFFFF80
1FFFFFFF80
3FFFFFFF00
3FFFFFE000
7FF8000000
F800000000
ENDCHAR
STARTCHAR 013A
ENCODING 314
SWIDTH 510 0
DWIDTH 34 0
BBX 38 59 1 -1
BITMAP
00000003FC
00000007FC
0000000FFC
0000000FF8
0000001FF0
0000003FC0
0000007F80
000000FF00
000000FE00
000001FC00
0000003800
0000000000
0000000000
00000FFF80
0000FFFF80
0001FFFF00
0001FFFF00
0003FFFE00
0003FFFE00
0003FFFE00
0007FFFC00
0007FFFC00
0007FFFC00
000FFFF800
000FFFF800
000FFFF000
000FFFF000
001FFFF000
001FFFE000
001FFFE000
003FFFE000
003FFFC000
003FFFC000
007FFF8000
007FFF8000
00FFFF8000
00FFFF0000
00FFFF0000
01FFFF0000
01FFFE0000
03FFFE0000
03FFFC0000
03FFFC0000
07FFFC0000
07FFFFFFC0
07FFFFFFC0
0FFFFFFF80
0FFFFFFF80
0FFFFFFF80
0FFFFFFF80
1FFFFFFF80
1FFFFFFF00
1FFFFFFF00
1FFFFFFF80
1FFFFFFF80
3FFFFFFF00
3FFFFFE000
7FF8000000
F800000000
ENDCHAR
STARTCHAR 013B
ENCODING 315
SWIDTH 510 0
DWIDTH 34 0
BBX 34 56 1 -10
BITMAP
00000FFF80
0000FFFF80
0001FFFF00
0001FFFF00
0003FFFE00
0003FFFE00
0003FFFE00
0007FFFC00
0007FFFC00
0007FFFC00
000FFFF800
000FFFF800
000FFFF000
000FFFF000
001FFFF000
001FFFE000
001FFFE000
003FFFE000
003FFFC000
003FFFC000
007FFF8000
007FFF8000
00FFFF8000
00FFFF0000
00FFFF0000
01FFFF0000
01FFFE0000
03FFFE0000
03FFFC0000
03FFFC0000
07FFFC0000
07FFFFFFC0
07FFFFFFC0
0FFFFFFF80
0FFFFFFF80
0FFFFFFF80
0FFFFFFF80
1FFFFFFF80
1FFFFFFF00
1FFFFFFF00
1FFFFFFF80
1FFFFFFF80
3FFFFFFF00
3FFFFFE000
7FF8000000
F800000000
001FE00000
003FE00000
003FE00000
003FE00000
007FC00000
007FC00000
007F800000
00FF000000
00FE000000
007C000000
ENDCHAR
STARTCHAR 013C
ENCODING 316
SWIDTH 510 0
DWIDTH 34 0
BBX 34 56 1 -10
BITMAP
00000FFF80
0000FFFF80
0001FFFF00
0001FFFF00
0003FFFE00
0003FFFE00
0003FFFE00
0007FFFC00
0007FFFC00
0007FFFC00
000FFFF800
000FFFF800
000FFFF000
000FFFF000
001FFFF000
001FFFE000
001FFFE000
003FFFE000
003FFFC000
003FFFC000
007FFF8000
007FFF8000
00FFFF8000
00FFFF0000
00FFFF0000
01FFFF0000
01FFFE0000
03FFFE0000
03FFFC0000
03FFFC0000
07FFFC0000
07FFFFFFC0
07FFFFFFC0
0FFFFFFF80
0FFFFFFF80
0FFFFFFF80
0FFFFFFF80
1FFFFFFF80
1FFFFFFF00
1FFFFFFF00
1FFFFFFF80
1FFFFFFF80
3FFFFFFF00
3FFFFFE000
7FF8000000
F800000000
001FE00000
003FE00000
003FE00000
003FE00000
007FC00000
007FC00000
007F800000
00FF000000
00FE000000
007C000000
ENDCHAR
STARTCHAR 013D
ENCODING 317
SWIDTH 510 0
DWIDTH 34 0
BBX 42 49 1 -1
BITMAP
000000000400
000000001FC0
000000001FC0
00000FFF9FC0
0000FFFFBFC0
0001FFFF3F80
0001FFFF3F80
0003FFFE3F80
0003FFFE7F00
0003FFFE7F00
0007FFFC7E00
0007FFFCFE00
0007FFFCFC00
000FFFF8F800
000FFFF8F800
000FFFF07000
000FFFF00000
001FFFF00000
001FFFE00000
001FFFE00000
003FFFE00000
003FFFC00000
003FFFC00000
007FFF800000
007FFF800000
00FFFF800000
00FFFF000000
00FFFF000000
01FFFF000000
01FFFE000000
03FFFE000000
03FFFC000000
03FFFC000000
07FFFC000000
07FFFFFFC000
07FFFFFFC000
0FFFFFFF8000
0FFFFFFF8000
0FFFFFFF8000
0FFFFFFF8000
1FFFFFFF8000
1FFFFFFF0000
1FFFFFFF0000
1FFFFFFF8000
1FFFFFFF8000
3FFFFFFF0000
3FFFFFE00000
7FF800000000
F80000000000
ENDCHAR
STARTCHAR 013E
ENCODING 318
SWIDTH 510 0
DWIDTH 34 0
BBX 42 49 1 -1
BITMAP
000000000400
000000001FC0
000000001FC0
00000FFF9FC0
0000FFFFBFC0
0001FFFF3F80
0001FFFF3F80
0003FFFE3F80
0003FFFE7F00
0003FFFE7F00
0007FFFC7E00
0007FFFCFE00
0007FFFCFC00
000FFFF8F800
000FFFF8F800
000FFFF07000
000FFFF00000
001FFFF00000
001FFFE00000
001FFFE00000
003FFFE00000
003FFFC00000
003FFFC00000
007FFF800000
007FFF800000
00FFFF800000
00FFFF000000
00FFFF000000
01FFFF000000
01FFFE000000
03FFFE000000
03FFFC000000
03FFFC000000
07FFFC000000
07FFFFFFC000
07FFFFFFC000
0FFFFFFF8000
0FFFFFFF8000
0FFFFFFF8000
0FFFFFFF8000
1FFFFFFF8000
1FFFFFFF0000
1FFFFFFF0000
1FFFFFFF8000
1FFFFFFF8000
3FFFFFFF0000
3FFFFFE00000
7FF800000000
F80000000000
ENDCHAR
STARTCHAR 013F
ENCODING 319
SWIDTH 510 0
DWIDTH 34 0
BBX 34 46 1 0
BITMAP
00000FFF80
0000FFFF80
0001FFFF00
0001FFFF00
0003FFFE00
0003FFFE00
0003FFFE00
0007FFFC00
0007FFFC00
0007FFFC00
000FFFF800
000FFFF800
000FFFF000
000FFFF000
001FFFF000
001FFFE000
001FFFE000
003FFFE000
003FFFC700
003FFFCF80
007FFF9FC0
007FFF9FC0
00FFFF9FC0
00FFFF1F80
00FFFF1F00
01FFFF0000
01FFFE0000
03FFFE0000
03FFFC0000
03FFFC0000
07FFFC0000
07FFFFFFC0
07FFFFFFC0
0FFFFFFF80
0FFFFFFF80
0FFFFFFF80
0FFFFFFF80
1FFFFFFF80
1FFFFFFF00
1FFFFFFF00
1FFFFFFF80
1FFFFFFF80
3FFFFFFF00
3FFFFFE000
7FF8000000
F800000000
ENDCHAR
STARTCHAR 0140
ENCODING 320
SWIDTH 510 0
DWIDTH 34 0
BBX 34 46 1 0
BITMAP
00000FFF80
0000FFFF80
0001FFFF00
0001FFFF00
0003FFFE00
0003FFFE00
0003FFFE00
0007FFFC00
0007FFFC00
0007FFFC00
000FFFF800
000FFFF800
000FFFF000
000FFFF000
001FFFF000
001FFFE000
001FFFE000
003FFFE000
003FFFC700
003FFFCF80
007FFF9FC0
007FFF9FC0
00FFFF9FC0
00FFFF1F80
00FFFF1F00
01FFFF0000
01FFFE0000
03FFFE0000
03FFFC0000
03FFFC0000
07FFFC0000
07FFFFFFC0
07FFFFFFC0
0FFFFFFF80
0FFFFFFF80
0FFFFFFF80
0FFFFFFF80
1FFFFFFF80
1FFFFFFF00
1FFFFFFF00
1FFFFFFF80
1FFFFFFF80
3FFFFFFF00
3FFFFFE000
7FF8000000
F800000000
ENDCHAR
STARTCHAR 0141
ENCODING 321
SWIDTH 540 0
DWIDTH 36 0
BBX 38 47 3 -1
BITMAP
0000000800
00000FFF80
00007FFF80
0001FFFF00
0001FFFF00
0003FFFF00
0003FFFE00
0003FFFE00
0007FFFC78
0007FFFCF8
0007FFFFFC
000FFFFFFC
000FFFFFFC
000FFFFFFC
000FFFFFFC
001FFFFFF8
001FFFFFF0
001FFFFFC0
001FFFFF80
003FFFFE00
003FFFFC00
007FFFF000
007FFFE000
00FFFF8000
00FFFF0000
03FFFF0000
07FFFF0000
1FFFFE0000
3FFFFE0000
7FFFFC0000
FFFFFC0000
FFFFFC0000
FFFFFFFFC0
FFFFFFFFC0
FFFFFFFF80
FFFFFFFF80
7FFFFFFF80
6FFFFFFF80
1FFFFFFF80
1FFFFFFF80
1FFFFFFF80
1FFFFFFF80
1FFFFFFF80
3FFFFFFF00
3FFFFFE000
7FF8000000
F800000000
ENDCHAR
STARTCHAR 0142
ENCODING 322
SWIDTH 540 0
DWIDTH 36 0
BBX 38 47 3 -1
BITMAP
0000000800
00000FFF80
00007FFF80
0001FFFF00
0001FFFF00
0003FFFF00
0003FFFE00
0003FFFE00
0007FFFC78
0007FFFCF8
0007FFFFFC
000FFFFFFC
000FFFFFFC
000FFFFFFC
000FFFFFFC
001FFFFFF8
001FFFFFF0
001FFFFFC0
001FFFFF80
003FFFFE00
003FFFFC00
007FFFF000
007FFFE000
00FFFF8000
00FFFF0000
03FFFF0000
07FFFF0000
1FFFFE0000
3FFFFE0000
7FFFFC0000
FFFFFC0000
FFFFFC0000
FFFFFFFFC0
FFFFFFFFC0
FFFFFFFF80
FFFFFFFF80
7FFFFFFF80
6FFFFFFF80
1FFFFFFF80
1FFFFFFF80
1FFFFFFF80
1FFFFFFF80
1FFFFFFF80
3FFFFFFF00
3FFFFFE000
7FF8000000
F800000000
ENDCHAR
STARTCHAR 0143
ENCODING 323
SWIDTH 555 0
DWIDTH 37 0
BBX 45 57 1 1
BITMAP
000000000FF0
000000001FF0
000000003FE0
000000007FC0
00000000FF80
00000001FF00
00000003FE00
00000003FC00
00000007F000
00000007F000
00000001E000
000000000000
000000000000
000020000200
0001FF801FE0
0007FFE0FFF0
0007FFE0FFF8
0007FFE1FFF0
000FFFC1FFF0
000FFFC1FFF0
000FFFC1FFE0
001FFFC3FFE0
001FFF83FFE0
001FFF83FFC0
003FFFC3FFC0
003FFFC7FFC0
007FFFC7FF80
007FFFC7FF80
007FFFC7FF80
00FFFFCFFF00
00FFFFCFFF00
00FFFFCFFF00
01FFFFCFFE00
01FFFFDFFE00
01FFFFDFFE00
03FFFFDFFC00
03FFFFDFFC00
03FFFFFFFC00
03FFFFFFFC00
07FFFFFFF800
07FFDFFFF800
07FFDFFFF800
07FFDFFFF000
0FFF8FFFF000
0FFF8FFFF000
0FFF8FFFF000
1FFF8FFFE000
1FFF0FFFE000
1FFF0FFFE000
1FFF0FFFE000
3FFE0FFFC000
3FFE07FFC000
3FFE0FFFC000
7FFE0FFFC000
7FFE0FFFC000
7FFC0FFF8000
FFE007FC0000
ENDCHAR
STARTCHAR 0144
ENCODING 324
SWIDTH 555 0
DWIDTH 37 0
BBX 45 57 1 1
BITMAP
000000000FF0
000000001FF0
000000003FE0
000000007FC0
00000000FF80
00000001FF00
00000003FE00
00000003FC00
00000007F000
00000007F000
00000001E000
000000000000
000000000000
000020000200
0001FF801FE0
0007FFE0FFF0
0007FFE0FFF8
0007FFE1FFF0
000FFFC1FFF0
000FFFC1FFF0
000FFFC1FFE0
001FFFC3FFE0
001FFF83FFE0
001FFF83FFC0
003FFFC3FFC0
003FFFC7FFC0
007FFFC7FF80
007FFFC7FF80
007FFFC7FF80
00FFFFCFFF00
00FFFFCFFF00
00FFFFCFFF00
01FFFFCFFE00
01FFFFDFFE00
01FFFFDFFE00
03FFFFDFFC00
03FFFFDFFC00
03FFFFFFFC00
03FFFFFFFC00
07FFFFFFF800
07FFDFFFF800
07FFDFFFF800
07FFDFFFF000
0FFF8FFFF000
0FFF8FFFF000
0FFF8FFFF000
1FFF8FFFE000
1FFF0FFFE000
1FFF0FFFE000
1FFF0FFFE000
3FFE0FFFC000
3FFE07FFC000
3FFE0FFFC000
7FFE0FFFC000
7FFE0FFFC000
7FFC0FFF8000
FFE007FC0000
ENDCHAR
STARTCHAR 0145
ENCODING 325
SWIDTH 555 0
DWIDTH 37 0
BBX 45 56 1 -11
BITMAP
000020000200
0001FF801FE0
0007FFE0FFF0
0007FFE0FFF8
0007FFE1FFF0
000FFFC1FFF0
000FFFC1FFF0
000FFFC1FFE0
001FFFC3FFE0
001FFF83FFE0
001FFF83FFC0
003FFFC3FFC0
003FFFC7FFC0
007FFFC7FF80
007FFFC7FF80
007FFFC7FF80
00FFFFCFFF00
00FFFFCFFF00
00FFFFCFFF00
01FFFFCFFE00
01FFFFDFFE00
01FFFFDFFE00
03FFFFDFFC00
03FFFFDFFC00
03FFFFFFFC00
03FFFFFFFC00
07FFFFFFF800
07FFDFFFF800
07FFDFFFF800
07FFDFFFF000
0FFF8FFFF000
0FFF8FFFF000
0FFF8FFFF000
1FFF8FFFE000
1FFF0FFFE000
1FFF0FFFE000
1FFF0FFFE000
3FFE0FFFC000
3FFE07FFC000
3FFE0FFFC000
7FFE0FFFC000
7FFE0FFFC000
7FFC0FFF8000
FFE007FC0000
000000000000
000000000000
001FE0000000
003FE0000000
003FE0000000
003FE0000000
007FC0000000
007FC0000000
007F80000000
00FF00000000
00FE00000000
007C00000000
ENDCHAR
STARTCHAR 0146
ENCODING 326
SWIDTH 555 0
DWIDTH 37 0
BBX 45 56 1 -11
BITMAP
000020000200
0001FF801FE0
0007FFE0FFF0
0007FFE0FFF8
0007FFE1FFF0
000FFFC1FFF0
000FFFC1FFF0
000FFFC1FFE0
001FFFC3FFE0
001FFF83FFE0
001FFF83FFC0
003FFFC3FFC0
003FFFC7FFC0
007FFFC7FF80
007FFFC7FF80
007FFFC7FF80
00FFFFCFFF00
00FFFFCFFF00
00FFFFCFFF00
01FFFFCFFE00
01FFFFDFFE00
01FFFFDFFE00
03FFFFDFFC00
03FFFFDFFC00
03FFFFFFFC00
03FFFFFFFC00
07FFFFFFF800
07FFDFFFF800
07FFDFFFF800
07FFDFFFF000
0FFF8FFFF000
0FFF8FFFF000
0FFF8FFFF000
1FFF8FFFE000
1FFF0FFFE000
1FFF0FFFE000
1FFF0FFFE000
3FFE0FFFC000
3FFE07FFC000
3FFE0FFFC000
7FFE0FFFC000
7FFE0FFFC000
7FFC0FFF8000
FFE007FC0000
000000000000
000000000000
001FE0000000
003FE0000000
003FE0000000
003FE0000000
007FC0000000
007FC0000000
007F80000000
00FF00000000
00FE00000000
007C00000000
ENDCHAR
STARTCHAR 0147
ENCODING 327
SWIDTH 555 0
DWIDTH 37 0
BBX 45 56 1 1
BITMAP
000000F00380
000001F81FC0
000003FC3FE0
000003FEFFC0
000001FFFF80
000000FFFF00
0000007FFC00
0000003FF800
0000001FE000
0000000F8000
000000000000
000000000000
000020000200
0001FF801FE0
0007FFE0FFF0
0007FFE0FFF8
0007FFE1FFF0
000FFFC1FFF0
000FFFC1FFF0
000FFFC1FFE0
001FFFC3FFE0
001FFF83FFE0
001FFF83FFC0
003FFFC3FFC0
003FFFC7FFC0
007FFFC7FF80
007FFFC7FF80
007FFFC7FF80
00FFFFCFFF00
00FFFFCFFF00
00FFFFCFFF00
01FFFFCFFE00
01FFFFDFFE00
01FFFFDFFE00
03FFFFDFFC00
03FFFFDFFC00
03FFFFFFFC00
03FFFFFFFC00
07FFFFFFF800
07FFDFFFF800
07FFDFFFF800
07FFDFFFF000
0FFF8FFFF000
0FFF8FFFF000
0FFF8FFFF000
1FFF8FFFE000
1FFF0FFFE000
1FFF0FFFE000
1FFF0FFFE000
3FFE0FFFC000
3FFE07FFC000
3FFE0FFFC000
7FFE0FFFC000
7FFE0FFFC000
7FFC0FFF8000
FFE007FC0000
ENDCHAR
STARTCHAR 0148
ENCODING 328
SWIDTH 555 0
DWIDTH 37 0
BBX 45 56 1 1
BITMAP
000000F00380
000001F81FC0
000003FC3FE0
000003FEFFC0
000001FFFF80
000000FFFF00
0000007FFC00
0000003FF800
0000001FE000
0000000F8000
000000000000
000000000000
000020000200
0001FF801FE0
0007FFE0FFF0
0007FFE0FFF8
0007FFE1FFF0
000FFFC1FFF0
000FFFC1FFF0
000FFFC1FFE0
001FFFC3FFE0
001FFF83FFE0
001FFF83FFC0
003FFFC3FFC0
003FFFC7FFC0
007FFFC7FF80
007FFFC7FF80
007FFFC7FF80
00FFFFCFFF00
00FFFFCFFF00
00FFFFCFFF00
01FFFFCFFE00
01FFFFDFFE00
01FFFFDFFE00
03FFFFDFFC00
03FFFFDFFC00
03FFFFFFFC00
03FFFFFFFC00
07FFFFFFF800
07FFDFFFF800
07FFDFFFF800
07FFDFFFF000
0FFF8FFFF000
0FFF8FFFF000
0FFF8FFFF000
1FFF8FFFE000
1FFF0FFFE000
1FFF0FFFE000
1FFF0FFFE000
3FFE0FFFC000
3FFE07FFC000
3FFE0FFFC000
7FFE0FFFC000
7FFE0FFFC000
7FFC0FFF8000
FFE007FC0000
ENDCHAR
STARTCHAR 0149
ENCODING 329
SWIDTH 630 0
DWIDTH 42 0
BBX 42 48 8 1
BITMAP
01C000000000
07F800000000
0FF800000000
0FF800000000
0FF820000C00
1FF8FF003F80
1FFBFFC1FFC0
1FFBFFC3FFC0
1FF7FFC3FFC0
1FF7FFC3FFC0
3FF7FF83FF80
3FEFFF83FF80
3FEFFF87FF80
7FCFFF87FF00
7FDFFF87FF00
7F9FFF87FF00
FF9FFF8FFE00
FF3FFF8FFE00
FF3FFF8FFE00
FE3FFF8FFC00
FE7FFF9FFC00
FC7FFF9FFC00
F87FFF9FF800
78FFFF9FF800
00FFFFBFF800
00FFFFBFF800
01FFFFBFF000
01FFFFBFF000
01FFFFFFF000
01FFFFFFE000
03FFDFFFE000
03FFDFFFE000
03FFDFFFE000
03FF9FFFC000
07FF9FFFC000
07FF9FFFC000
07FF9FFFC000
07FF1FFF8000
0FFF0FFF8000
0FFF0FFF8000
0FFF0FFF8000
1FFE0FFF0000
1FFE0FFF0000
1FFE0FFF0000
1FFE0FFF0000
3FFC0FFE0000
3FFC1FFE0000
3FE00FF80000
ENDCHAR
STARTCHAR 014A
ENCODING 330
SWIDTH 540 0
DWIDTH 36 0
BBX 38 55 3 -8
BITMAP
000E000000
007F80F800
00FF8FFF00
01FF9FFFC0
01FFFFFFE0
01FFFFFFE0
01FFFFFFE0
01FFFFFFF0
03FFFFFFF8
03FFFFFFF8
03FFFFFFF8
03FFFFFFFC
03FFFFFFFC
07FFFFFFFC
07FFFFFFFC
07FFFFFFFC
07FFC0FFFC
07FF807FFC
0FFF007FFC
0FFF007FFC
0FFE003FFC
0FFE003FFC
0FFE003FFC
1FFC003FFC
1FFC003FF8
1FFC003FF8
1FF8003FF8
1FF8003FF0
1FF8007FF0
1FF8007FF0
3FF0007FF0
3FF0007FE0
3FF000FFE0
3FF000FFE0
3FF000FFC0
3FE001FFC0
3FE001FFC0
7FE001FF80
7FE001FF80
7FE001FF80
7FE003FF00
7FC003FF00
FFC007FF00
FFC007FE00
FF800FFE00
FF803FFE00
0001FFFC00
0007FFFC00
000FFFF800
000FFFF800
000FFFF000
000FFFC000
001FFF8000
001FFE0000
001FE00000
ENDCHAR
STARTCHAR 014B
ENCODING 331
SWIDTH 540 0
DWIDTH 36 0
BBX 38 55 3 -8
BITMAP
000E000000
007F80F800
00FF8FFF00
01FF9FFFC0
01FFFFFFE0
01FFFFFFE0
01FFFFFFE0
01FFFFFFF0
03FFFFFFF8
03FFFFFFF8
03FFFFFFF8
03FFFFFFFC
03FFFFFFFC
07FFFFFFFC
07FFFFFFFC
07FFFFFFFC
07FFC0FFFC
07FF807FFC
0FFF007FFC
0FFF007FFC
0FFE003FFC
0FFE003FFC
0FFE003FFC
1FFC003FFC
1FFC003FF8
1FFC003FF8
1FF8003FF8
1FF8003FF0
1FF8007FF0
1FF8007FF0
3FF0007FF0
3FF0007FE0
3FF000FFE0
3FF000FFE0
3FF000FFC0
3FE001FFC0
3FE001FFC0
7FE001FF80
7FE001FF80
7FE001FF80
7FE003FF00
7FC003FF00
FFC007FF00
FFC007FE00
FF800FFE00
FF803FFE00
0001FFFC00
0007FFFC00
000FFFF800
000FFFF800
000FFFF000
000FFFC000
001FFF8000
001FFE0000
001FE00000
ENDCHAR
STARTCHAR 014C
ENCODING 332
SWIDTH 525 0
DWIDTH 35 0
BBX 35 54 5 0
BITMAP
000F1E8000
007FFFF800
007FFFF800
007FFFF000
007FFFF000
00FFFFF000
0030000000
0000700000
0001FC0000
0003FF0000
0007FF8000
000FFFE000
000FFFF000
001FFFF800
003FFFFC00
007FFFFE00
007FFFFE00
00FFFFFF00
01FFFFFF00
01FFFFFF80
03FFFFFF80
07FFFFFF80
07FFFFFFC0
0FFFFFFFC0
0FFFFFFFC0
1FFF87FFC0
1FFF03FFC0
3FFE03FFC0
3FFC03FFE0
7FFC03FFE0
7FF803FFE0
7FF803FFC0
7FF807FFC0
7FF807FFC0
7FFC0FFFC0
FFFC1FFFC0
FFFF3FFF80
FFFFFFFF80
FFFFFFFF80
FFFFFFFF00
FFFFFFFF00
7FFFFFFE00
7FFFFFFE00
7FFFFFFC00
7FFFFFFC00
7FFFFFF800
7FFFFFF800
3FFFFFF000
3FFFFFF000
1FFFFFE000
0FFFFFC000
07FFFF0000
01FFFC0000
007FF00000
ENDCHAR
STARTCHAR 014D
ENCODING 333
SWIDTH 525 0
DWIDTH 35 0
BBX 35 54 5 0
BITMAP
000F1E8000
007FFFF800
007FFFF800
007FFFF000
007FFFF000
00FFFFF000
0030000000
0000700000
0001FC0000
0003FF0000
0007FF8000
000FFFE000
000FFFF000
001FFFF800
003FFFFC00
007FFFFE00
007FFFFE00
00FFFFFF00
01FFFFFF00
01FFFFFF80
03FFFFFF80
07FFFFFF80
07FFFFFFC0
0FFFFFFFC0
0FFFFFFFC0
1FFF87FFC0
1FFF03FFC0
3FFE03FFC0
3FFC03FFE0
7FFC03FFE0
7FF803FFE0
7FF803FFC0
7FF807FFC0
7FF807FFC0
7FFC0FFFC0
FFFC1FFFC0
FFFF3FFF80
FFFFFFFF80
FFFFFFFF80
FFFFFFFF00
FFFFFFFF00
7FFFFFFE00
7FFFFFFE00
7FFFFFFC00
7FFFFFFC00
7FFFFFF800
7FFFFFF800
3FFFFFF000
3FFFFFF000
1FFFFFE000
0FFFFFC000
07FFFF0000
01FFFC0000
007FF00000
ENDCHAR
STARTCHAR 014E
ENCODING 334
SWIDTH 525 0
DWIDTH 35 0
BBX 35 58 5 0
BITMAP
003E007C00
003E00FC00
003F01FC00
003F87F800
003FFFF800
001FFFF000
001FFFE000
001FFFC000
000FFF0000
0003FE0000
0000C00000
0000700000
0001FC0000
0003FF0000
0007FF8000
000FFFE000
000FFFF000
001FFFF800
003FFFFC00
007FFFFE00
007FFFFE00
00FFFFFF00
01FFFFFF00
01FFFFFF80
03FFFFFF80
07FFFFFF80
07FFFFFFC0
0FFFFFFFC0
0FFFFFFFC0
1FFF87FFC0
1FFF03FFC0
3FFE03FFC0
3FFC03FFE0
7FFC03FFE0
7FF803FFE0
7FF803FFC0
7FF807FFC0
7FF807FFC0
7FFC0FFFC0
FFFC1FFFC0
FFFF3FFF80
FFFFFFFF80
FFFFFFFF80
FFFFFFFF00
FFFFFFFF00
7FFFFFFE00
7FFFFFFE00
7FFFFFFC00
7FFFFFFC00
7FFFFFF800
7FFFFFF800
3FFFFFF000
3FFFFFF000
1FFFFFE000
0FFFFFC000
07FFFF0000
01FFFC0000
007FF00000
ENDCHAR
STARTCHAR 014F
ENCODING 335
SWIDTH 525 0
DWIDTH 35 0
BBX 35 58 5 0
BITMAP
003E007C00
003E00FC00
003F01FC00
003F87F800
003FFFF800
001FFFF000
001FFFE000
001FFFC000
000FFF0000
0003FE0000
0000C00000
0000700000
0001FC0000
0003FF0000
0007FF8000
000FFFE000
000FFFF000
001FFFF800
003FFFFC00
007FFFFE00
007FFFFE00
00FFFFFF00
01FFFFFF00
01FFFFFF80
03FFFFFF80
07FFFFFF80
07FFFFFFC0
0FFFFFFFC0
0FFFFFFFC0
1FFF87FFC0
1FFF03FFC0
3FFE03FFC0
3FFC03FFE0
7FFC03FFE0
7FF803FFE0
7FF803FFC0
7FF807FFC0
7FF807FFC0
7FFC0FFFC0
FFFC1FFFC0
FFFF3FFF80
FFFFFFFF80
FFFFFFFF80
FFFFFFFF00
FFFFFFFF00
7FFFFFFE00
7FFFFFFE00
7FFFFFFC00
7FFFFFFC00
7FFFFFF800
7FFFFFF800
3FFFFFF000
3FFFFFF000
1FFFFFE000
0FFFFFC000
07FFFF0000
01FFFC0000
007FF00000
ENDCHAR
STARTCHAR 0150
ENCODING 336
SWIDTH 525 0
DWIDTH 35 0
BBX 36 58 5 0
BITMAP
0000FF0FF0
0001FF1FF0
0001FF3FF0
0003FE3FE0
0007FC7F80
000FF8FF00
001FF1FE00
001FC3FC00
003F83F800
007F07F000
000E00E000
0000700000
0001FC0000
0003FF0000
0007FF8000
000FFFE000
000FFFF000
001FFFF800
003FFFFC00
007FFFFE00
007FFFFE00
00FFFFFF00
01FFFFFF00
01FFFFFF80
03FFFFFF80
07FFFFFF80
07FFFFFFC0
0FFFFFFFC0
0FFFFFFFC0
1FFF87FFC0
1FFF03FFC0
3FFE03FFC0
3FFC03FFE0
7FFC03FFE0
7FF803FFE0
7FF803FFC0
7FF807FFC0
7FF807FFC0
7FFC0FFFC0
FFFC1FFFC0
FFFF3FFF80
FFFFFFFF80
FFFFFFFF80
FFFFFFFF00
FFFFFFFF00
7FFFFFFE00
7FFFFFFE00
7FFFFFFC00
7FFFFFFC00
7FFFFFF800
7FFFFFF800
3FFFFFF000
3FFFFFF000
1FFFFFE000
0FFFFFC000
07FFFF0000
01FFFC0000
007FF00000
ENDCHAR
STARTCHAR 0151
ENCODING 337
SWIDTH 525 0
DWIDTH 35 0
BBX 36 58 5 0
BITMAP
0000FF0FF0
0001FF1FF0
0001FF3FF0
0003FE3FE0
0007FC7F80
000FF8FF00
001FF1FE00
001FC3FC00
003F83F800
007F07F000
000E00E000
0000700000
0001FC0000
0003FF0000
0007FF8000
000FFFE000
000FFFF000
001FFFF800
003FFFFC00
007FFFFE00
007FFFFE00
00FFFFFF00
01FFFFFF00
01FFFFFF80
03FFFFFF80
07FFFFFF80
07FFFFFFC0
0FFFFFFFC0
0FFFFFFFC0
1FFF87FFC0
1FFF03FFC0
3FFE03FFC0
3FFC03FFE0
7FFC03FFE0
7FF803FFE0
7FF803FFC0
7FF807FFC0
7FF807FFC0
7FFC0FFFC0
FFFC1FFFC0
FFFF3FFF80
FFFFFFFF80
FFFFFFFF80
FFFFFFFF00
FFFFFFFF00
7FFFFFFE00
7FFFFFFE00
7FFFFFFC00
7FFFFFFC00
7FFFFFF800
7FFFFFF800
3FFFFFF000
3FFFFFF000
1FFFFFE000
0FFFFFC000
07FFFF0000
01FFFC0000
007FF00000
ENDCHAR
STARTCHAR 0152
ENCODING 338
SWIDTH 735 0
DWIDTH 49 0
BBX 46 47 5 -1
BITMAP
0000007FFFC0
000001FFFFFC
00000FFFFFFC
00001FFFFFF8
00007FFFFFF8
0001FFFFFFF0
0007FFFFFFF0
000FFFFFFFF0
001FFFFFFFE0
003FFFFFFFE0
007FFFFFFFC0
00FFFFFFFFE0
01FFFFFFFFC0
01FFFFFFFF80
03FFFFFF8000
07FFFFFF8000
07FFFFFF8000
0FFFC7FF8000
1FFF03FF8100
1FFE03FFBF80
3FFE03FFFF00
3FFC03FFFF00
7FFC03FFFE00
7FFC03FFFE00
7FFC03FFFF00
FFFC03FFFB00
FFFC07FF0000
FFFC0FFF0000
FFFC1FFF0030
FFFEFFFFFFF0
FFFFFFFFFFF0
FFFFFFFFFFF0
FFFFFFFFFFF0
FFFFFFFFFFF0
FFFFFFFFFFF0
FFFFFFFFFFF0
FFFFFFFFFFF0
FFFFFFFFFFF0
FFFFFFFFFFF0
FFFFFFFFFFF0
FFFFFFFFFFF0
7FFFFFFFFFE0
7FFFFFFFFF00
3FFFFFFFF000
1FFFFFFC0000
07FFEFC00000
01FF00000000
ENDCHAR
STARTCHAR 0153
ENCODING 339
SWIDTH 735 0
DWIDTH 49 0
BBX 46 47 5 -1
BITMAP
0000007FFFC0
000001FFFFFC
00000FFFFFFC
00001FFFFFF8
00007FFFFFF8
0001FFFFFFF0
0007FFFFFFF0
000FFFFFFFF0
001FFFFFFFE0
003FFFFFFFE0
007FFFFFFFC0
00FFFFFFFFE0
01FFFFFFFFC0
01FFFFFFFF80
03FFFFFF8000
07FFFFFF8000
07FFFFFF8000
0FFFC7FF8000
1FFF03FF8100
1FFE03FFBF80
3FFE03FFFF00
3FFC03FFFF00
7FFC03FFFE00
7FFC03FFFE00
7FFC03FFFF00
FFFC03FFFB00
FFFC07FF0000
FFFC0FFF0000
FFFC1FFF0030
FFFEFFFFFFF0
FFFFFFFFFFF0
FFFFFFFFFFF0
FFFFFFFFFFF0
FFFFFFFFFFF0
FFFFFFFFFFF0
FFFFFFFFFFF0
FFFFFFFFFFF0
FFFFFFFFFFF0
FFFFFFFFFFF0
FFFFFFFFFFF0
FFFFFFFFFFF0
7FFFFFFFFFE0
7FFFFFFFFF00
3FFFFFFFF000
1FFFFFFC0000
07FFEFC00000
01FF00000000
ENDCHAR
STARTCHAR 0154
ENCODING 340
SWIDTH 585 0
DWIDTH 39 0
BBX 35 59 5 -1
BITMAP
00000FF000
00001FF000
00003FE000
00007FC000
0000FF8000
0000FF0000
0001FE0000
0003FC0000
0007F80000
0007F00000
0001E00000
0000000000
00003E0000
0003FFC000
00FFFFF000
03FFFFFC00
07FFFFFF00
07FFFFFF80
0FFFFFFFC0
0FFFFFFFC0
0FFFE07FC0
0FFFE01FC0
0FFFE01FC0
0FFFE01FC0
0FFFE01FE0
1FFFE01FE0
1FFFE01FC0
1FFFE03FC0
1FFFE07FC0
1FFFE0FF80
1FFFF1FF80
1FFFF7FF00
1FFFFFFF00
1FFFFFFE00
3FFFFFFC00
3FFFFFF000
3FFFFFC000
3FFFFFC000
3FFFFFE000
3FFFFFE000
3FFFFFF000
7FFFFFF000
7FFFBFF000
7FFFBFF800
7FFF9FF800
7FFF9FFC00
FFFF8FFC00
FFFF0FFC00
FFFF0FFE00
FFFF0FFE00
FFFF07FE00
FFFF07FF00
FFFF07FF00
FFFF07FF80
FFFF03FF80
FFFF03FF80
FFFE03FF80
FFFE03F800
7FF8000000
ENDCHAR
STARTCHAR 0155
ENCODING 341
SWIDTH 585 0
DWIDTH 39 0
BBX 35 59 5 -1
BITMAP
00000FF000
00001FF000
00003FE000
00007FC000
0000FF8000
0000FF0000
0001FE0000
0003FC0000
0007F80000
0007F00000
0001E00000
0000000000
00003E0000
0003FFC000
00FFFFF000
03FFFFFC00
07FFFFFF00
07FFFFFF80
0FFFFFFFC0
0FFFFFFFC0
0FFFE07FC0
0FFFE01FC0
0FFFE01FC0
0FFFE01FC0
0FFFE01FE0
1FFFE01FE0
1FFFE01FC0
1FFFE03FC0
1FFFE07FC0
1FFFE0FF80
1FFFF1FF80
1FFFF7FF00
1FFFFFFF00
1FFFFFFE00
3FFFFFFC00
3FFFFFF000
3FFFFFC000
3FFFFFC000
3FFFFFE000
3FFFFFE000
3FFFFFF000
7FFFFFF000
7FFFBFF000
7FFFBFF800
7FFF9FF800
7FFF9FFC00
FFFF8FFC00
FFFF0FFC00
FFFF0FFE00
FFFF0FFE00
FFFF07FE00
FFFF07FF00
FFFF07FF00
FFFF07FF80
FFFF03FF80
FFFF03FF80
FFFE03FF80
FFFE03F800
7FF8000000
ENDCHAR
STARTCHAR 0156
ENCODING 342
SWIDTH 585 0
DWIDTH 39 0
BBX 35 57 5 -11
BITMAP
00003E0000
0003FFC000
00FFFFF000
03FFFFFC00
07FFFFFF00
07FFFFFF80
0FFFFFFFC0
0FFFFFFFC0
0FFFE07FC0
0FFFE01FC0
0FFFE01FC0
0FFFE01FC0
0FFFE01FE0
1FFFE01FE0
1FFFE01FC0
1FFFE03FC0
1FFFE07FC0
1FFFE0FF80
1FFFF1FF80
1FFFF7FF00
1FFFFFFF00
1FFFFFFE00
3FFFFFFC00
3FFFFFF000
3FFFFFC000
3FFFFFC000
3FFFFFE000
3FFFFFE000
3FFFFFF000
7FFFFFF000
7FFFBFF000
7FFFBFF800
7FFF9FF800
7FFF9FFC00
FFFF8FFC00
FFFF0FFC00
FFFF0FFE00
FFFF0FFE00
FFFF07FE00
FFFF07FF00
FFFF07FF00
FFFF07FF80
FFFF03FF80
FFFF03FF80
FFFE03FF80
FFFE03F800
7FF8000000
0007F80000
000FF80000
000FF80000
000FF80000
001FF00000
001FF00000
003FE00000
003FC00000
003F800000
001E000000
ENDCHAR
STARTCHAR 0157
ENCODING 343
SWIDTH 585 0
DWIDTH 39 0
BBX 35 57 5 -11
BITMAP
00003E0000
0003FFC000
00FFFFF000
03FFFFFC00
07FFFFFF00
07FFFFFF80
0FFFFFFFC0
0FFFFFFFC0
0FFFE07FC0
0FFFE01FC0
0FFFE01FC0
0FFFE01FC0
0FFFE01FE0
1FFFE01FE0
1FFFE01FC0
1FFFE03FC0
1FFFE07FC0
1FFFE0FF80
1FFFF1FF80
1FFFF7FF00
1FFFFFFF00
1FFFFFFE00
3FFFFFFC00
3FFFFFF000
3FFFFFC000
3FFFFFC000
3FFFFFE000
3FFFFFE000
3FFFFFF000
7FFFFFF000
7FFFBFF000
7FFFBFF800
7FFF9FF800
7FFF9FFC00
FFFF8FFC00
FFFF0FFC00
FFFF0FFE00
FFFF0FFE00
FFFF07FE00
FFFF07FF00
FFFF07FF00
FFFF07FF80
FFFF03FF80
FFFF03FF80
FFFE03FF80
FFFE03F800
7FF8000000
0007F80000
000FF80000
000FF80000
000FF80000
001FF00000
001FF00000
003FE00000
003FC00000
003F800000
001E000000
ENDCHAR
STARTCHAR 0158
ENCODING 344
SWIDTH 585 0
DWIDTH 39 0
BBX 35 59 5 -1
BITMAP
000001E000
003C07F000
00FE1FF000
00FF3FE000
00FFFFC000
00FFFF8000
007FFF0000
003FFE0000
000FF80000
0007F00000
0001C00000
0000000000
00003E0000
0003FFC000
00FFFFF000
03FFFFFC00
07FFFFFF00
07FFFFFF80
0FFFFFFFC0
0FFFFFFFC0
0FFFE07FC0
0FFFE01FC0
0FFFE01FC0
0FFFE01FC0
0FFFE01FE0
1FFFE01FE0
1FFFE01FC0
1FFFE03FC0
1FFFE07FC0
1FFFE0FF80
1FFFF1FF80
1FFFF7FF00
1FFFFFFF00
1FFFFFFE00
3FFFFFFC00
3FFFFFF000
3FFFFFC000
3FFFFFC000
3FFFFFE000
3FFFFFE000
3FFFFFF000
7FFFFFF000
7FFFBFF000
7FFFBFF800
7FFF9FF800
7FFF9FFC00
FFFF8FFC00
FFFF0FFC00
FFFF0FFE00
FFFF0FFE00
FFFF07FE00
FFFF07FF00
FFFF07FF00
FFFF07FF80
FFFF03FF80
FFFF03FF80
FFFE03FF80
FFFE03F800
7FF8000000
ENDCHAR
STARTCHAR 0159
ENCODING 345
SWIDTH 585 0
DWIDTH 39 0
BBX 35 59 5 -1
BITMAP
000001E000
003C07F000
00FE1FF000
00FF3FE000
00FFFFC000
00FFFF8000
007FFF0000
003FFE0000
000FF80000
0007F00000
0001C00000
0000000000
00003E0000
0003FFC000
00FFFFF000
03FFFFFC00
07FFFFFF00
07FFFFFF80
0FFFFFFFC0
0FFFFFFFC0
0FFFE07FC0
0FFFE01FC0
0FFFE01FC0
0FFFE01FC0
0FFFE01FE0
1FFFE01FE0
1FFFE01FC0
1FFFE03FC0
1FFFE07FC0
1FFFE0FF80
1FFFF1FF80
1FFFF7FF00
1FFFFFFF00
1FFFFFFE00
3FFFFFFC00
3FFFFFF000
3FFFFFC000
3FFFFFC000
3FFFFFE000
3FFFFFE000
3FFFFFF000
7FFFFFF000
7FFFBFF000
7FFFBFF800
7FFF9FF800
7FFF9FFC00
FFFF8FFC00
FFFF0FFC00
FFFF0FFE00
FFFF0FFE00
FFFF07FE00
FFFF07FF00
FFFF07FF00
FFFF07FF80
FFFF03FF80
FFFF03FF80
FFFE03FF80
FFFE03F800
7FF8000000
ENDCHAR
STARTCHAR 015A
ENCODING 346
SWIDTH 495 0
DWIDTH 33 0
BBX 40 59 2 -1
BITMAP
00000001FE
00000003FE
00000007FC
0000000FF8
0000001FF0
0000003FE0
0000003FC0
0000007F80
000000FF00
000000FE00
0000003C00
0000000000
000003FFC0
00003FFFFF
0000FFFFFF
0003FFFFFE
0003FFFFFC
0007FFFFFC
000FFFFFF8
000FFFFFF0
001FFFFFF0
001FFFFFE0
003FFFFFC0
007FFFFFC0
007FFFFF80
00FFFFFF00
00FFFFFF00
00FFFFFE00
01FFFFFE00
01FFE03C00
01FFE00C00
00FFE00000
00FFFC0000
00FFFF0000
00FFFFC000
007FFFF000
007FFFFC00
003FFFFE00
0007FFFE00
0000FFFF00
00003FFF00
00000FFF00
000007FF00
00000FFF00
0E000FFF00
1F003FFF00
3F9FFFFF00
7FFFFFFE00
7FFFFFFE00
7FFFFFFE00
7FFFFFFC00
FFFFFFF800
7FFFFFF800
3FFFFFF000
3FFFFF8000
1FFFFF0000
07FFFC0000
01FFF00000
001F000000
ENDCHAR
STARTCHAR 015B
ENCODING 347
SWIDTH 495 0
DWIDTH 33 0
BBX 40 59 2 -1
BITMAP
00000001FE
00000003FE
00000007FC
0000000FF8
0000001FF0
0000003FE0
0000003FC0
0000007F80
000000FF00
000000FE00
0000003C00
0000000000
000003FFC0
00003FFFFF
0000FFFFFF
0003FFFFFE
0003FFFFFC
0007FFFFFC
000FFFFFF8
000FFFFFF0
001FFFFFF0
001FFFFFE0
003FFFFFC0
007FFFFFC0
007FFFFF80
00FFFFFF00
00FFFFFF00
00FFFFFE00
01FFFFFE00
01FFE03C00
01FFE00C00
00FFE00000
00FFFC0000
00FFFF0000
00FFFFC000
007FFFF000
007FFFFC00
003FFFFE00
0007FFFE00
0000FFFF00
00003FFF00
00000FFF00
000007FF00
00000FFF00
0E000FFF00
1F003FFF00
3F9FFFFF00
7FFFFFFE00
7FFFFFFE00
7FFFFFFE00
7FFFFFFC00
FFFFFFF800
7FFFFFF800
3FFFFFF000
3FFFFF8000
1FFFFF0000
07FFFC0000
01FFF00000
001F000000
ENDCHAR
STARTCHAR 015C
ENCODING 348
SWIDTH 495 0
DWIDTH 33 0
BBX 40 59 2 -1
BITMAP
0000000600
0000003F00
000000FF80
000001FFC0
000007FFE0
00000FFFF0
00001FFFF8
00003FF7FC
00007FC3FC
00003F81F8
00001800E0
0000000000
000003FFC0
00003FFFFF
0000FFFFFF
0003FFFFFE
0003FFFFFC
0007FFFFFC
000FFFFFF8
000FFFFFF0
001FFFFFF0
001FFFFFE0
003FFFFFC0
007FFFFFC0
007FFFFF80
00FFFFFF00
00FFFFFF00
00FFFFFE00
01FFFFFE00
01FFE03C00
01FFE00C00
00FFE00000
00FFFC0000
00FFFF0000
00FFFFC000
007FFFF000
007FFFFC00
003FFFFE00
0007FFFE00
0000FFFF00
00003FFF00
00000FFF00
000007FF00
00000FFF00
0E000FFF00
1F003FFF00
3F9FFFFF00
7FFFFFFE00
7FFFFFFE00
7FFFFFFE00
7FFFFFFC00
FFFFFFF800
7FFFFFF800
3FFFFFF000
3FFFFF8000
1FFFFF0000
07FFFC0000
01FFF00000
001F000000
ENDCHAR
STARTCHAR 015D
ENCODING 349
SWIDTH 495 0
DWIDTH 33 0
BBX 40 59 2 -1
BITMAP
0000000600
0000003F00
000000FF80
000001FFC0
000007FFE0
00000FFFF0
00001FFFF8
00003FF7FC
00007FC3FC
00003F81F8
00001800E0
0000000000
000003FFC0
00003FFFFF
0000FFFFFF
0003FFFFFE
0003FFFFFC
0007FFFFFC
000FFFFFF8
000FFFFFF0
001FFFFFF0
001FFFFFE0
003FFFFFC0
007FFFFFC0
007FFFFF80
00FFFFFF00
00FFFFFF00
00FFFFFE00
01FFFFFE00
01FFE03C00
01FFE00C00
00FFE00000
00FFFC0000
00FFFF0000
00FFFFC000
007FFFF000
007FFFFC00
003FFFFE00
0007FFFE00
0000FFFF00
00003FFF00
00000FFF00
000007FF00
00000FFF00
0E000FFF00
1F003FFF00
3F9FFFFF00
7FFFFFFE00
7FFFFFFE00
7FFFFFFE00
7FFFFFFC00
FFFFFFF800
7FFFFFF800
3FFFFFF000
3FFFFF8000
1FFFFF0000
07FFFC0000
01FFF00000
001F000000
ENDCHAR
STARTCHAR 015E
ENCODING 350
SWIDTH 495 0
DWIDTH 33 0
BBX 40 57 2 -11
BITMAP
000003FFC0
00003FFFFF
0000FFFFFF
0003FFFFFE
0003FFFFFC
0007FFFFFC
000FFFFFF8
000FFFFFF0
001FFFFFF0
001FFFFFE0
003FFFFFC0
007FFFFFC0
007FFFFF80
00FFFFFF00
00FFFFFF00
00FFFFFE00
01FFFFFE00
01FFE03C00
01FFE00C00
00FFE00000
00FFFC0000
00FFFF0000
00FFFFC000
007FFFF000
007FFFFC00
003FFFFE00
0007FFFE00
0000FFFE00
00003FFF00
00000FFF00
000007FF00
00000FFF00
0E000FFF00
1F003FFF00
3F9FFFFF00
7FFFFFFE00
7FFFFFFE00
7FFFFFFE00
7FFFFFFC00
FFFFFFF800
7FFFFFF800
7FFFFFF000
3FFFFF8000
1FFFFF0000
07FFFC0000
01FFF00000
007F800000
003FC00000
003FE00000
001FF00000
0007F80000
0C03F80000
1FE7F80000
1FFFF80000
1FFFF00000
0FFFE00000
03FF800000
ENDCHAR
STARTCHAR 015F
ENCODING 351
SWIDTH 495 0
DWIDTH 33 0
BBX 40 57 2 -11
BITMAP
000003FFC0
00003FFFFF
0000FFFFFF
0003FFFFFE
0003FFFFFC
0007FFFFFC
000FFFFFF8
000FFFFFF0
001FFFFFF0
001FFFFFE0
003FFFFFC0
007FFFFFC0
007FFFFF80
00FFFFFF00
00FFFFFF00
00FFFFFE00
01FFFFFE00
01FFE03C00
01FFE00C00
00FFE00000
00FFFC0000
00FFFF0000
00FFFFC000
007FFFF000
007FFFFC00
003FFFFE00
0007FFFE00
0000FFFE00
00003FFF00
00000FFF00
000007FF00
00000FFF00
0E000FFF00
1F003FFF00
3F9FFFFF00
7FFFFFFE00
7FFFFFFE00
7FFFFFFE00
7FFFFFFC00
FFFFFFF800
7FFFFFF800
7FFFFFF000
3FFFFF8000
1FFFFF0000
07FFFC0000
01FFF00000
007F800000
003FC00000
003FE00000
001FF00000
0007F80000
0C03F80000
1FE7F80000
1FFFF80000
1FFFF00000
0FFFE00000
03FF800000
ENDCHAR
STARTCHAR 0160
ENCODING 352
SWIDTH 495 0
DWIDTH 33 0
BBX 40 59 2 -1
BITMAP
0000010000
00001F80FC
00001FC1FE
00001FE7FC
00001FFFF8
00000FFFF0
000007FFE0
000003FFC0
000001FF00
000000FC00
0000007000
0000000000
000003FFC0
00003FFFFF
0000FFFFFF
0003FFFFFE
0003FFFFFC
0007FFFFFC
000FFFFFF8
000FFFFFF0
001FFFFFF0
001FFFFFE0
003FFFFFC0
007FFFFFC0
007FFFFF80
00FFFFFF00
00FFFFFF00
00FFFFFE00
01FFFFFE00
01FFE03C00
01FFE00C00
00FFE00000
00FFFC0000
00FFFF0000
00FFFFC000
007FFFF000
007FFFFC00
003FFFFE00
0007FFFE00
0000FFFF00
00003FFF00
00000FFF00
000007FF00
00000FFF00
0E000FFF00
1F003FFF00
3F9FFFFF00
7FFFFFFE00
7FFFFFFE00
7FFFFFFE00
7FFFFFFC00
FFFFFFF800
7FFFFFF800
3FFFFFF000
3FFFFF8000
1FFFFF0000
07FFFC0000
01FFF00000
001F000000
ENDCHAR
STARTCHAR 0161
ENCODING 353
SWIDTH 495 0
DWIDTH 33 0
BBX 40 59 2 -1
BITMAP
0000010000
00001F80FC
00001FC1FE
00001FE7FC
00001FFFF8
00000FFFF0
000007FFE0
000003FFC0
000001FF00
000000FC00
0000007000
0000000000
000003FFC0
00003FFFFF
0000FFFFFF
0003FFFFFE
0003FFFFFC
0007FFFFFC
000FFFFFF8
000FFFFFF0
001FFFFFF0
001FFFFFE0
003FFFFFC0
007FFFFFC0
007FFFFF80
00FFFFFF00
00FFFFFF00
00FFFFFE00
01FFFFFE00
01FFE03C00
01FFE00C00
00FFE00000
00FFFC0000
00FFFF0000
00FFFFC000
007FFFF000
007FFFFC00
003FFFFE00
0007FFFE00
0000FFFF00
00003FFF00
00000FFF00
000007FF00
00000FFF00
0E000FFF00
1F003FFF00
3F9FFFFF00
7FFFFFFE00
7FFFFFFE00
7FFFFFFE00
7FFFFFFC00
FFFFFFF800
7FFFFFF800
3FFFFFF000
3FFFFF8000
1FFFFF0000
07FFFC0000
01FFF00000
001F000000
ENDCHAR
STARTCHAR 0162
ENCODING 354
SWIDTH 570 0
DWIDTH 38 0
BBX 37 56 8 -11
BITMAP
007FFFFFC0
1FFFFFFFF0
3FFFFFFFF8
3FFFFFFFF8
3FFFFFFFF8
3FFFFFFFF8
3FFFFFFFF8
3FFFFFFFF8
7FFFFFFFF8
7FFFFFFFF8
7FFFFFFFF8
FFFFFFFFF0
FFFFFFFE60
FFFFFFE000
FF83FF8000
F007FF0000
0007FE0000
0007FE0000
000FFC0000
000FFC0000
000FFC0000
000FFC0000
001FF80000
001FF80000
001FF80000
001FF80000
001FF80000
003FF00000
003FF00000
003FF00000
003FF00000
007FE00000
007FE00000
007FE00000
007FE00000
007FE00000
00FFC00000
00FFC00000
00FFC00000
00FFC00000
01FF800000
01FF800000
01FF800000
01FF800000
01FF000000
00FF000000
007F800000
007FC00000
003FE00000
000FF00000
180FF00000
3F8FF00000
3FFFF00000
7FFFE00000
3FFFC00000
0FFF000000
ENDCHAR
STARTCHAR 0163
ENCODING 355
SWIDTH 570 0
DWIDTH 38 0
BBX 37 56 8 -11
BITMAP
007FFFFFC0
1FFFFFFFF0
3FFFFFFFF8
3FFFFFFFF8
3FFFFFFFF8
3FFFFFFFF8
3FFFFFFFF8
3FFFFFFFF8
7FFFFFFFF8
7FFFFFFFF8
7FFFFFFFF8
FFFFFFFFF0
FFFFFFFE60
FFFFFFE000
FF83FF8000
F007FF0000
0007FE0000
0007FE0000
000FFC0000
000FFC0000
000FFC0000
000FFC0000
001FF80000
001FF80000
001FF80000
001FF80000
001FF80000
003FF00000
003FF00000
003FF00000
003FF00000
007FE00000
007FE00000
007FE00000
007FE00000
007FE00000
00FFC00000
00FFC00000
00FFC00000
00FFC00000
01FF800000
01FF800000
01FF800000
01FF800000
01FF000000
00FF000000
007F800000
007FC00000
003FE00000
000FF00000
180FF00000
3F8FF00000
3FFFF00000
7FFFE00000
3FFFC00000
0FFF000000
ENDCHAR
STARTCHAR 0164
ENCODING 356
SWIDTH 570 0
DWIDTH 38 0
BBX 37 58 8 0
BITMAP
0000000400
0003F01F80
0007FC3F80
0007FE7F80
0003FFFF00
0001FFFE00
0001FFFC00
0000FFF000
00007FE000
00001F8000
0000070000
0000000000
0000000000
007FFFFFC0
1FFFFFFFF0
3FFFFFFFF8
3FFFFFFFF8
3FFFFFFFF8
3FFFFFFFF8
3FFFFFFFF8
3FFFFFFFF8
7FFFFFFFF8
7FFFFFFFF8
7FFFFFFFF8
FFFFFFFFF0
FFFFFFFE60
FFFFFFE000
FF83FF8000
F007FF0000
0007FE0000
0007FE0000
000FFC0000
000FFC0000
000FFC0000
000FFC0000
001FF80000
001FF80000
001FF80000
001FF80000
001FF80000
003FF00000
003FF00000
003FF00000
003FF00000
007FE00000
007FE00000
007FE00000
007FE00000
007FC00000
00FFC00000
00FFC00000
00FFC00000
00FFC00000
01FF800000
01FF800000
01FF800000
01FF800000
01FF000000
ENDCHAR
STARTCHAR 0165
ENCODING 357
SWIDTH 570 0
DWIDTH 38 0
BBX 37 58 8 0
BITMAP
0000000400
0003F01F80
0007FC3F80
0007FE7F80
0003FFFF00
0001FFFE00
0001FFFC00
0000FFF000
00007FE000
00001F8000
0000070000
0000000000
0000000000
007FFFFFC0
1FFFFFFFF0
3FFFFFFFF8
3FFFFFFFF8
3FFFFFFFF8
3FFFFFFFF8
3FFFFFFFF8
3FFFFFFFF8
7FFFFFFFF8
7FFFFFFFF8
7FFFFFFFF8
FFFFFFFFF0
FFFFFFFE60
FFFFFFE000
FF83FF8000
F007FF0000
0007FE0000
0007FE0000
000FFC0000
000FFC0000
000FFC0000
000FFC0000
001FF80000
001FF80000
001FF80000
001FF80000
001FF80000
003FF00000
003FF00000
003FF00000
003FF00000
007FE00000
007FE00000
007FE00000
007FE00000
007FC00000
00FFC00000
00FFC00000
00FFC00000
00FFC00000
01FF800000
01FF800000
01FF800000
01FF800000
01FF000000
ENDCHAR
STARTCHAR 0166
ENCODING 358
SWIDTH 570 0
DWIDTH 38 0
BBX 37 45 8 0
BITMAP
007FFFFFC0
1FFFFFFFF0
3FFFFFFFF8
3FFFFFFFF8
3FFFFFFFF8
3FFFFFFFF8
3FFFFFFFF8
3FFFFFFFF8
7FFFFFFFF8
7FFFFFFFF8
7FFFFFFFF8
FFFFFFFFF0
FFFFFFFE60
FFFFFFE000
FF83FF8000
F007FF0000
0007FE0000
0007FE0000
000FFC0000
000FFC0000
000FFFFE00
1FFFFFFE00
1FFFFFFE00
3FFFFFFC00
3FFFFFFC00
3FFFFFFC00
3FFFFFFC00
3FFFFFFC00
3FFFFFF800
003FF00000
003FF00000
007FE00000
007FE00000
007FE00000
007FE00000
007FE00000
00FFC00000
00FFC00000
00FFC00000
00FFC00000
01FF800000
01FF800000
01FF800000
01FF800000
01FF000000
ENDCHAR
STARTCHAR 0167
ENCODING 359
SWIDTH 570 0
DWIDTH 38 0
BBX 37 45 8 0
BITMAP
007FFFFFC0
1FFFFFFFF0
3FFFFFFFF8
3FFFFFFFF8
3FFFFFFFF8
3FFFFFFFF8
3FFFFFFFF8
3FFFFFFFF8
7FFFFFFFF8
7FFFFFFFF8
7FFFFFFFF8
FFFFFFFFF0
FFFFFFFE60
FFFFFFE000
FF83FF8000
F007FF0000
0007FE0000
0007FE0000
000FFC0000
000FFC0000
000FFFFE00
1FFFFFFE00
1FFFFFFE00
3FFFFFFC00
3FFFFFFC00
3FFFFFFC00
3FFFFFFC00
3FFFFFFC00
3FFFFFF800
003FF00000
003FF00000
007FE00000
007FE00000
007FE00000
007FE00000
007FE00000
00FFC00000
00FFC00000
00FFC00000
00FFC00000
01FF800000
01FF800000
01FF800000
01FF800000
01FF000000
ENDCHAR
STARTCHAR 0168
ENCODING 360
SWIDTH 540 0
DWIDTH 36 0
BBX 39 56 5 1
BITMAP
000003C0FC
000007E1FC
00001FF9FC
00001FFFFC
00003FFFF8
00003FFFF8
00003FFFF0
00007EFFE0
00007E3FC0
00007C0F00
0000000000
0038000000
003FC003FE
007FF007FE
007FE00FFE
00FFE00FFE
00FFC007FE
01FF8007FE
01FF800FFC
01FF800FFC
03FF800FFC
03FF800FFC
07FF001FF8
07FF001FF8
0FFE003FF8
0FFE003FF8
0FFE003FF8
1FFE007FF0
1FFC007FF0
3FFC007FF0
3FFC00FFF0
3FFC00FFF0
7FFC00FFF0
7FFC01FFF0
7FFE01FFE0
7FFE03FFE0
7FFF03FFC0
7FFFE7FFC0
FFFFFFFF80
FFFFFFFF80
FFFFFFFF00
FFFFFFFF00
FFFFFFFE00
FFFFFFFE00
FFFFFFFC00
7FFFFFF800
7FFFFFF800
7FFFFFF000
7FFFFFE000
3FFFFFC000
3FFFFF8000
3FFFFF0000
1FFFFE0000
07FFFC0000
01FFF00000
003F000000
ENDCHAR
STARTCHAR 0169
ENCODING 361
SWIDTH 540 0
DWIDTH 36 0
BBX 39 56 5 1
BITMAP
000003C0FC
000007E1FC
00001FF9FC
00001FFFFC
00003FFFF8
00003FFFF8
00003FFFF0
00007EFFE0
00007E3FC0
00007C0F00
0000000000
0038000000
003FC003FE
007FF007FE
007FE00FFE
00FFE00FFE
00FFC007FE
01FF8007FE
01FF800FFC
01FF800FFC
03FF800FFC
03FF800FFC
07FF001FF8
07FF001FF8
0FFE003FF8
0FFE003FF8
0FFE003FF8
1FFE007FF0
1FFC007FF0
3FFC007FF0
3FFC00FFF0
3FFC00FFF0
7FFC00FFF0
7FFC01FFF0
7FFE01FFE0
7FFE03FFE0
7FFF03FFC0
7FFFE7FFC0
FFFFFFFF80
FFFFFFFF80
FFFFFFFF00
FFFFFFFF00
FFFFFFFE00
FFFFFFFE00
FFFFFFFC00
7FFFFFF800
7FFFFFF800
7FFFFFF000
7FFFFFE000
3FFFFFC000
3FFFFF8000
3FFFFF0000
1FFFFE0000
07FFFC0000
01FFF00000
003F000000
ENDCHAR
STARTCHAR 016A
ENCODING 362
SWIDTH 540 0
DWIDTH 36 0
BBX 39 53 5 1
BITMAP
000002E1C0
00007FFFF8
00007FFFF0
00007FFFF0
0000FFFFF0
0000FFFFF0
00000000C0
0000000000
0038000000
003FC003FE
007FF007FE
007FE00FFE
00FFE00FFE
00FFC007FE
01FF8007FE
01FF800FFC
01FF800FFC
03FF800FFC
03FF800FFC
07FF001FF8
07FF001FF8
0FFE003FF8
0FFE003FF8
0FFE003FF8
1FFE007FF0
1FFC007FF0
3FFC007FF0
3FFC00FFF0
3FFC00FFF0
7FFC00FFF0
7FFC01FFF0
7FFE01FFE0
7FFE03FFE0
7FFF03FFC0
7FFFE7FFC0
FFFFFFFF80
FFFFFFFF80
FFFFFFFF00
FFFFFFFF00
FFFFFFFE00
FFFFFFFE00
FFFFFFFC00
7FFFFFF800
7FFFFFF800
7FFFFFF000
7FFFFFE000
3FFFFFC000
3FFFFF8000
3FFFFF0000
1FFFFE0000
07FFFC0000
01FFF00000
003F000000
ENDCHAR
STARTCHAR 016B
ENCODING 363
SWIDTH 540 0
DWIDTH 36 0
BBX 39 53 5 1
BITMAP
000002E1C0
00007FFFF8
00007FFFF0
00007FFFF0
0000FFFFF0
0000FFFFF0
00000000C0
0000000000
0038000000
003FC003FE
007FF007FE
007FE00FFE
00FFE00FFE
00FFC007FE
01FF8007FE
01FF800FFC
01FF800FFC
03FF800FFC
03FF800FFC
07FF001FF8
07FF001FF8
0FFE003FF8
0FFE003FF8
0FFE003FF8
1FFE007FF0
1FFC007FF0
3FFC007FF0
3FFC00FFF0
3FFC00FFF0
7FFC00FFF0
7FFC01FFF0
7FFE01FFE0
7FFE03FFE0
7FFF03FFC0
7FFFE7FFC0
FFFFFFFF80
FFFFFFFF80
FFFFFFFF00
FFFFFFFF00
FFFFFFFE00
FFFFFFFE00
FFFFFFFC00
7FFFFFF800
7FFFFFF800
7FFFFFF000
7FFFFFE000
3FFFFFC000
3FFFFF8000
3FFFFF0000
1FFFFE0000
07FFFC0000
01FFF00000
003F000000
ENDCHAR
STARTCHAR 016C
ENCODING 364
SWIDTH 540 0
DWIDTH 36 0
BBX 39 56 5 1
BITMAP
00001F007C
00003F807C
00001FC0FC
00001FFFF8
00001FFFF8
00001FFFF0
00000FFFE0
000007FFC0
000003FF00
000000FC00
0000000000
0038000000
003FC003FE
007FF007FE
007FE00FFE
00FFE00FFE
00FFC007FE
01FF8007FE
01FF800FFC
01FF800FFC
03FF800FFC
03FF800FFC
07FF001FF8
07FF001FF8
0FFE003FF8
0FFE003FF8
0FFE003FF8
1FFE007FF0
1FFC007FF0
3FFC007FF0
3FFC00FFF0
3FFC00FFF0
7FFC00FFF0
7FFC01FFF0
7FFE01FFE0
7FFE03FFE0
7FFF03FFC0
7FFFE7FFC0
FFFFFFFF80
FFFFFFFF80
FFFFFFFF00
FFFFFFFF00
FFFFFFFE00
FFFFFFFE00
FFFFFFFC00
7FFFFFF800
7FFFFFF800
7FFFFFF000
7FFFFFE000
3FFFFFC000
3FFFFF8000
3FFFFF0000
1FFFFE0000
07FFFC0000
01FFF00000
003F000000
ENDCHAR
STARTCHAR 016D
ENCODING 365
SWIDTH 540 0
DWIDTH 36 0
BBX 39 56 5 1
BITMAP
00001F007C
00003F807C
00001FC0FC
00001FFFF8
00001FFFF8
00001FFFF0
00000FFFE0
000007FFC0
000003FF00
000000FC00
0000000000
0038000000
003FC003FE
007FF007FE
007FE00FFE
00FFE00FFE
00FFC007FE
01FF8007FE
01FF800FFC
01FF800FFC
03FF800FFC
03FF800FFC
07FF001FF8
07FF001FF8
0FFE003FF8
0FFE003FF8
0FFE003FF8
1FFE007FF0
1FFC007FF0
3FFC007FF0
3FFC00FFF0
3FFC00FFF0
7FFC00FFF0
7FFC01FFF0
7FFE01FFE0
7FFE03FFE0
7FFF03FFC0
7FFFE7FFC0
FFFFFFFF80
FFFFFFFF80
FFFFFFFF00
FFFFFFFF00
FFFFFFFE00
FFFFFFFE00
FFFFFFFC00
7FFFFFF800
7FFFFFF800
7FFFFFF000
7FFFFFE000
3FFFFFC000
3FFFFF8000
3FFFFF0000
1FFFFE0000
07FFFC0000
01FFF00000
003F000000
ENDCHAR
STARTCHAR 016E
ENCODING 366
SWIDTH 540 0
DWIDTH 36 0
BBX 39 60 5 1
BITMAP
0000003E00
000001FF80
000003FFC0
00000FFFE0
00001FFFF0
00003F87F8
00007F03F8
00007E03F8
00007E03F0
00007E03F0
00007F07F0
00007F1FE0
00007FFFC0
00003FFF80
00000FFE00
003803F000
003FC003FE
007FF007FE
007FE00FFE
00FFE00FFE
00FFC007FE
01FF8007FE
01FF800FFC
01FF800FFC
03FF800FFC
03FF800FFC
07FF001FF8
07FF001FF8
0FFE003FF8
0FFE003FF8
0FFE003FF8
1FFE007FF0
1FFC007FF0
3FFC007FF0
3FFC00FFF0
3FFC00FFF0
7FFC00FFF0
7FFC01FFF0
7FFE01FFE0
7FFE03FFE0
7FFF03FFC0
7FFFE7FFC0
FFFFFFFF80
FFFFFFFF80
FFFFFFFF00
FFFFFFFF00
FFFFFFFE00
FFFFFFFE00
FFFFFFFC00
7FFFFFF800
7FFFFFF800
7FFFFFF000
7FFFFFE000
3FFFFFC000
3FFFFF8000
3FFFFF0000
1FFFFE0000
07FFFC0000
01FFF00000
003F000000
ENDCHAR
STARTCHAR 016F
ENCODING 367
SWIDTH 540 0
DWIDTH 36 0
BBX 39 60 5 1
BITMAP
0000003E00
000001FF80
000003FFC0
00000FFFE0
00001FFFF0
00003F87F8
00007F03F8
00007E03F8
00007E03F0
00007E03F0
00007F07F0
00007F1FE0
00007FFFC0
00003FFF80
00000FFE00
003803F000
003FC003FE
007FF007FE
007FE00FFE
00FFE00FFE
00FFC007FE
01FF8007FE
01FF800FFC
01FF800FFC
03FF800FFC
03FF800FFC
07FF001FF8
07FF001FF8
0FFE003FF8
0FFE003FF8
0FFE003FF8
1FFE007FF0
1FFC007FF0
3FFC007FF0
3FFC00FFF0
3FFC00FFF0
7FFC00FFF0
7FFC01FFF0
7FFE01FFE0
7FFE03FFE0
7FFF03FFC0
7FFFE7FFC0
FFFFFFFF80
FFFFFFFF80
FFFFFFFF00
FFFFFFFF00
FFFFFFFE00
FFFFFFFE00
FFFFFFFC00
7FFFFFF800
7FFFFFF800
7FFFFFF000
7FFFFFE000
3FFFFFC000
3FFFFF8000
3FFFFF0000
1FFFFE0000
07FFFC0000
01FFF00000
003F000000
ENDCHAR
STARTCHAR 0170
ENCODING 368
SWIDTH 540 0
DWIDTH 36 0
BBX 44 57 5 1
BITMAP
000000FF1FF0
000001FF1FF0
000003FE3FE0
000007FC7FC0
00000FF8FF80
00000FF1FF00
00001FE3FE00
00003FC3FC00
00007F87F000
00007F07F000
00001E01E000
000000000000
003800000000
003FC003FE00
007FF007FE00
007FE00FFE00
00FFE00FFE00
00FFC007FE00
01FF8007FE00
01FF800FFC00
01FF800FFC00
03FF800FFC00
03FF800FFC00
07FF001FF800
07FF001FF800
0FFE003FF800
0FFE003FF800
0FFE003FF800
1FFE007FF000
1FFC007FF000
3FFC007FF000
3FFC00FFF000
3FFC00FFF000
7FFC00FFF000
7FFC01FFF000
7FFE01FFE000
7FFE03FFE000
7FFF03FFC000
7FFFE7FFC000
FFFFFFFF8000
FFFFFFFF8000
FFFFFFFF0000
FFFFFFFF0000
FFFFFFFE0000
FFFFFFFE0000
FFFFFFFC0000
7FFFFFF80000
7FFFFFF80000
7FFFFFF00000
7FFFFFE00000
3FFFFFC00000
3FFFFF800000
3FFFFF000000
1FFFFE000000
07FFFC000000
01FFF0000000
003F00000000
ENDCHAR
STARTCHAR 0171
ENCODING 369
SWIDTH 540 0
DWIDTH 36 0
BBX 44 57 5 1
BITMAP
000000FF1FF0
000001FF1FF0
000003FE3FE0
000007FC7FC0
00000FF8FF80
00000FF1FF00
00001FE3FE00
00003FC3FC00
00007F87F000
00007F07F000
00001E01E000
000000000000
003800000000
003FC003FE00
007FF007FE00
007FE00FFE00
00FFE00FFE00
00FFC007FE00
01FF8007FE00
01FF800FFC00
01FF800FFC00
03FF800FFC00
03FF800FFC00
07FF001FF800
07FF001FF800
0FFE003FF800
0FFE003FF800
0FFE003FF800
1FFE007FF000
1FFC007FF000
3FFC007FF000
3FFC00FFF000
3FFC00FFF000
7FFC00FFF000
7FFC01FFF000
7FFE01FFE000
7FFE03FFE000
7FFF03FFC000
7FFFE7FFC000
FFFFFFFF8000
FFFFFFFF8000
FFFFFFFF0000
FFFFFFFF0000
FFFFFFFE0000
FFFFFFFE0000
FFFFFFFC0000
7FFFFFF80000
7FFFFFF80000
7FFFFFF00000
7FFFFFE00000
3FFFFFC00000
3FFFFF800000
3FFFFF000000
1FFFFE000000
07FFFC000000
01FFF0000000
003F00000000
ENDCHAR
STARTCHAR 0172
ENCODING 370
SWIDTH 540 0
DWIDTH 36 0
BBX 39 57 5 -11
BITMAP
0038000000
003FC003FE
007FF007FE
007FE00FFE
00FFE00FFE
00FFC007FE
01FF8007FE
01FF800FFC
01FF800FFC
03FF800FFC
03FF800FFC
07FF001FF8
07FF001FF8
0FFE003FF8
0FFE003FF8
0FFE003FF8
1FFE007FF0
1FFC007FF0
3FFC007FF0
3FFC00FFF0
3FFC00FFF0
7FFC00FFF0
7FFC01FFF0
7FFE01FFE0
7FFE03FFE0
7FFF03FFC0
7FFFE7FFC0
FFFFFFFF80
FFFFFFFF80
FFFFFFFF00
FFFFFFFF00
FFFFFFFE00
FFFFFFFE00
FFFFFFFC00
7FFFFFF800
7FFFFFF800
7FFFFFF000
7FFFFFE000
3FFFFFC000
3FFFFF8000
3FFFFF0000
1FFFFE0000
07FFFC0000
01FFF00000
003F000000
007C000000
00F8000000
01F0000000
03F0000000
07E0000000
07E0000000
0FF0FC0000
0FFFFC0000
0FFFF80000
0FFFF80000
07FFF80000
00FFC00000
ENDCHAR
STARTCHAR 0173
ENCODING 371
SWIDTH 540 0
DWIDTH 36 0
BBX 39 57 5 -11
BITMAP
0038000000
003FC003FE
007FF007FE
007FE00FFE
00FFE00FFE
00FFC007FE
01FF8007FE
01FF800FFC
01FF800FFC
03FF800FFC
03FF800FFC
07FF001FF8
07FF001FF8
0FFE003FF8
0FFE003FF8
0FFE003FF8
1FFE007FF0
1FFC007FF0
3FFC007FF0
3FFC00FFF0
3FFC00FFF0
7FFC00FFF0
7FFC01FFF0
7FFE01FFE0
7FFE03FFE0
7FFF03FFC0
7FFFE7FFC0
FFFFFFFF80
FFFFFFFF80
FFFFFFFF00
FFFFFFFF00
FFFFFFFE00
FFFFFFFE00
FFFFFFFC00
7FFFFFF800
7FFFFFF800
7FFFFFF000
7FFFFFE000
3FFFFFC000
3FFFFF8000
3FFFFF0000
1FFFFE0000
07FFFC0000
01FFF00000
003F000000
007C000000
00F8000000
01F0000000
03F0000000
07E0000000
07E0000000
0FF0FC0000
0FFFFC0000
0FFFF80000
0FFFF80000
07FFF80000
00FFC00000
ENDCHAR
STARTCHAR 0174
ENCODING 372
SWIDTH 720 0
DWIDTH 48 0
BBX 48 58 9 0
BITMAP
000000780000
000001FC0000
000003FF0000
00000FFF8000
00001FFFC000
00003FFFE000
00007FFFF000
0000FF9FE000
0001FE07E000
0001FC030000
0000F0000000
000000000000
000000000200
1FE000000786
3FF800000FFF
7FFC01E00FFE
7FFC03E01FFE
7FFC03E01FFC
FFFC03E03FF8
FFFC03E07FF8
FFFC07E07FF0
FFFE07F0FFF0
FFFE07F0FFE0
FFFE0FF1FFE0
7FFE0FF1FFC0
7FFE0FF3FFC0
7FFF1FF3FFC0
7FFF1FF7FFC0
7FFF1FFFFF80
7FFF3FFFFF80
3FFFBFFFFF80
3FFFFFFFFF00
3FFFFFFFFF00
3FFFFFFFFE00
3FFFFFFFFE00
1FFFFFFFFC00
1FFFFFFFFC00
1FFFFFFFFC00
1FFFFFFFF800
0FFFFFFFF800
0FFFFBFFF000
0FFFF3FFF000
07FFE3FFF000
07FFE3FFE000
07FFE3FFE000
07FFC3FFE000
03FF83FFE000
03FF03FFC000
03FF03FFC000
01FF01FF8000
01FE01FF8000
01FE01FF8000
00FC01FF0000
00FC01FE0000
00F801FE0000
007801C00000
007000000000
002000000000
ENDCHAR
STARTCHAR 0175
ENCODING 373
SWIDTH 720 0
DWIDTH 48 0
BBX 48 58 9 0
BITMAP
000000780000
000001FC0000
000003FF0000
00000FFF8000
00001FFFC000
00003FFFE000
00007FFFF000
0000FF9FE000
0001FE07E000
0001FC030000
0000F0000000
000000000000
000000000200
1FE000000786
3FF800000FFF
7FFC01E00FFE
7FFC03E01FFE
7FFC03E01FFC
FFFC03E03FF8
FFFC03E07FF8
FFFC07E07FF0
FFFE07F0FFF0
FFFE07F0FFE0
FFFE0FF1FFE0
7FFE0FF1FFC0
7FFE0FF3FFC0
7FFF1FF3FFC0
7FFF1FF7FFC0
7FFF1FFFFF80
7FFF3FFFFF80
3FFFBFFFFF80
3FFFFFFFFF00
3FFFFFFFFF00
3FFFFFFFFE00
3FFFFFFFFE00
1FFFFFFFFC00
1FFFFFFFFC00
1FFFFFFFFC00
1FFFFFFFF800
0FFFFFFFF800
0FFFFBFFF000
0FFFF3FFF000
07FFE3FFF000
07FFE3FFE000
07FFE3FFE000
07FFC3FFE000
03FF83FFE000
03FF03FFC000
03FF03FFC000
01FF01FF8000
01FE01FF8000
01FE01FF8000
00FC01FF0000
00FC01FE0000
00F801FE0000
007801C00000
007000000000
002000000000
ENDCHAR
STARTCHAR 0176
ENCODING 374
SWIDTH 600 0
DWIDTH 40 0
BBX 39 58 10 0
BITMAP
00000F0000
00003F8000
00007FE000
0001FFF000
0003FFF800
0007FFFC00
000FFFFE00
001FF3FE00
003FE0FC00
003F806000
001E000000
0000000000
000000010E
0000000FFE
00E0001FFE
0BE0001FFC
7FF0001FF8
FFF0003FF8
FFF0007FF0
FFF800FFE0
FFF800FFE0
FFF801FFC0
7FFC03FF80
7FFC03FF00
7FFC07FF00
3FFC0FFE00
3FFE1FFC00
3FFE1FFC00
1FFE3FF800
1FFE7FF000
1FFEFFF000
1FFEFFE000
0FFFFFC000
0FFFFFC000
0FFFFF8000
07FFFF0000
07FFFF0000
07FFFE0000
07FFFC0000
03FFF80000
03FFF80000
03FFF00000
01FFE00000
01FFE00000
01FFC00000
00FFC00000
00FFC00000
00FFC00000
01FFC00000
01FFC00000
01FFC00000
01FFC00000
01FFC00000
03FF800000
03FF800000
03FF800000
03FF000000
03FC000000
ENDCHAR
STARTCHAR 0177
ENCODING 375
SWIDTH 600 0
DWIDTH 40 0
BBX 39 58 10 0
BITMAP
00000F0000
00003F8000
00007FE000
0001FFF000
0003FFF800
0007FFFC00
000FFFFE00
001FF3FE00
003FE0FC00
003F806000
001E000000
0000000000
000000010E
0000000FFE
00E0001FFE
0BE0001FFC
7FF0001FF8
FFF0003FF8
FFF0007FF0
FFF800FFE0
FFF800FFE0
FFF801FFC0
7FFC03FF80
7FFC03FF00
7FFC07FF00
3FFC0FFE00
3FFE1FFC00
3FFE1FFC00
1FFE3FF800
1FFE7FF000
1FFEFFF000
1FFEFFE000
0FFFFFC000
0FFFFFC000
0FFFFF8000
07FFFF0000
07FFFF0000
07FFFE0000
07FFFC0000
03FFF80000
03FFF80000
03FFF00000
01FFE00000
01FFE00000
01FFC00000
00FFC00000
00FFC00000
00FFC00000
01FFC00000
01FFC00000
01FFC00000
01FFC00000
01FFC00000
03FF800000
03FF800000
03FF800000
03FF000000
03FC000000
ENDCHAR
STARTCHAR 0178
ENCODING 376
SWIDTH 600 0
DWIDTH 40 0
BBX 39 54 10 0
BITMAP
0001C07C00
0003F0FE00
0007F0FE00
000FE0FE00
000FE1FC00
000FE1F800
0007C07000
0000000000
000000010E
0000000FFE
00E0001FFE
0BE0001FFC
7FF0001FF8
FFF0003FF8
FFF0007FF0
FFF800FFE0
FFF800FFE0
FFF801FFC0
7FFC03FF80
7FFC03FF00
7FFC07FF00
3FFC0FFE00
3FFE1FFC00
3FFE1FFC00
1FFE3FF800
1FFE7FF000
1FFEFFF000
1FFEFFE000
0FFFFFC000
0FFFFFC000
0FFFFF8000
07FFFF0000
07FFFF0000
07FFFE0000
07FFFC0000
03FFF80000
03FFF80000
03FFF00000
01FFE00000
01FFE00000
01FFC00000
00FFC00000
00FFC00000
00FFC00000
01FFC00000
01FFC00000
01FFC00000
01FFC00000
01FFC00000
03FF800000
03FF800000
03FF800000
03FF000000
03FC000000
ENDCHAR
STARTCHAR 0179
ENCODING 377
SWIDTH 600 0
DWIDTH 40 0
BBX 35 58 8 0
BITMAP
000000FF00
000001FF00
000003FE00
000007FC00
00000FF800
00000FF000
00001FE000
00003FC000
00007F8000
00007F0000
00001E0000
0000000000
00007FF000
0007FFFFE0
00FFFFFFC0
03FFFFFF80
07FFFFFF00
0FFFFFFF00
1FFFFFFE00
3FFFFFFC00
3FFFFFF800
7FFFFFF000
7FFFFFF000
FFFFFFE000
FF00FFC000
0001FF8000
0001FF8000
0003FF0000
0003FF0000
0007FE0000
000FFC0000
000FFC0000
001FF80000
001FF80000
003FF00000
003FF00000
007FE00000
007FE00000
00FFE00000
01FFC00000
01FFC00000
03FF800000
03FF800000
07FF000000
07FE000000
0FFC07EF80
1FFFFFFF80
1FFFFFFF80
3FFFFFFF80
3FFFFFFF00
7FFFFFFF00
7FFFFFFE00
7FFFFFFC00
FFFFFFF800
03FFFFF000
007FFFC000
001FFF0000
0000E00000
ENDCHAR
STARTCHAR 017A
ENCODING 378
SWIDTH 600 0
DWIDTH 40 0
BBX 35 58 8 0
BITMAP
000000FF00
000001FF00
000003FE00
000007FC00
00000FF800
00000FF000
00001FE000
00003FC000
00007F8000
00007F0000
00001E0000
0000000000
00007FF000
0007FFFFE0
00FFFFFFC0
03FFFFFF80
07FFFFFF00
0FFFFFFF00
1FFFFFFE00
3FFFFFFC00
3FFFFFF800
7FFFFFF000
7FFFFFF000
FFFFFFE000
FF00FFC000
0001FF8000
0001FF8000
0003FF0000
0003FF0000
0007FE0000
000FFC0000
000FFC0000
001FF80000
001FF80000
003FF00000
003FF00000
007FE00000
007FE00000
00FFE00000
01FFC00000
01FFC00000
03FF800000
03FF800000
07FF000000
07FE000000
0FFC07EF80
1FFFFFFF80
1FFFFFFF80
3FFFFFFF80
3FFFFFFF00
7FFFFFFF00
7FFFFFFE00
7FFFFFFC00
FFFFFFF800
03FFFFF000
007FFFC000
001FFF0000
0000E00000
ENDCHAR
STARTCHAR 017B
ENCODING 379
SWIDTH 600 0
DWIDTH 40 0
BBX 35 54 8 0
BITMAP
00003E0000
00007F0000
00007F0000
0000FF0000
0000FE0000
0000FC0000
0000780000
0000000000
00007FF000
0007FFFFE0
00FFFFFFC0
03FFFFFF80
07FFFFFF00
0FFFFFFF00
1FFFFFFE00
3FFFFFFC00
3FFFFFF800
7FFFFFF000
7FFFFFF000
FFFFFFE000
FF00FFC000
0001FF8000
0001FF8000
0003FF0000
0003FF0000
0007FE0000
000FFC0000
000FFC0000
001FF80000
001FF80000
003FF00000
003FF00000
007FE00000
007FE00000
00FFE00000
01FFC00000
01FFC00000
03FF800000
03FF800000
07FF000000
07FE000000
0FFC07EF80
1FFFFFFF80
1FFFFFFF80
3FFFFFFF80
3FFFFFFF00
7FFFFFFF00
7FFFFFFE00
7FFFFFFC00
FFFFFFF800
03FFFFF000
007FFFC000
001FFF0000
0000E00000
ENDCHAR
STARTCHAR 017C
ENCODING 380
SWIDTH 600 0
DWIDTH 40 0
BBX 35 54 8 0
BITMAP
00003E0000
00007F0000
00007F0000
0000FF0000
0000FE0000
0000FC0000
0000780000
0000000000
00007FF000
0007FFFFE0
00FFFFFFC0
03FFFFFF80
07FFFFFF00
0FFFFFFF00
1FFFFFFE00
3FFFFFFC00
3FFFFFF800
7FFFFFF000
7FFFFFF000
FFFFFFE000
FF00FFC000
0001FF8000
0001FF8000
0003FF0000
0003FF0000
0007FE0000
000FFC0000
000FFC0000
001FF80000
001FF80000
003FF00000
003FF00000
007FE00000
007FE00000
00FFE00000
01FFC00000
01FFC00000
03FF800000
03FF800000
07FF000000
07FE000000
0FFC07EF80
1FFFFFFF80
1FFFFFFF80
3FFFFFFF80
3FFFFFFF00
7FFFFFFF00
7FFFFFFE00
7FFFFFFC00
FFFFFFF800
03FFFFF000
007FFFC000
001FFF0000
0000E00000
ENDCHAR
STARTCHAR 017D
ENCODING 381
SWIDTH 600 0
DWIDTH 40 0
BBX 35 58 8 0
BITMAP
0000800000
000FC07E00
000FE0FF00
000FF3FE00
000FFFFC00
0007FFF800
0003FFF000
0001FFE000
0000FF8000
00007E0000
0000380000
0000000000
00007FF000
0007FFFFE0
00FFFFFFC0
03FFFFFF80
07FFFFFF00
0FFFFFFF00
1FFFFFFE00
3FFFFFFC00
3FFFFFF800
7FFFFFF000
7FFFFFF000
FFFFFFE000
FF00FFC000
0001FF8000
0001FF8000
0003FF0000
0003FF0000
0007FE0000
000FFC0000
000FFC0000
001FF80000
001FF80000
003FF00000
003FF00000
007FE00000
007FE00000
00FFE00000
01FFC00000
01FFC00000
03FF800000
03FF800000
07FF000000
07FE000000
0FFC07EF80
1FFFFFFF80
1FFFFFFF80
3FFFFFFF80
3FFFFFFF00
7FFFFFFF00
7FFFFFFE00
7FFFFFFC00
FFFFFFF800
03FFFFF000
007FFFC000
001FFF0000
0000E00000
ENDCHAR
STARTCHAR 017E
ENCODING 382
SWIDTH 600 0
DWIDTH 40 0
BBX 35 58 8 0
BITMAP
0000800000
000FC07E00
000FE0FF00
000FF3FE00
000FFFFC00
0007FFF800
0003FFF000
0001FFE000
0000FF8000
00007E0000
0000380000
0000000000
00007FF000
0007FFFFE0
00FFFFFFC0
03FFFFFF80
07FFFFFF00
0FFFFFFF00
1FFFFFFE00
3FFFFFFC00
3FFFFFF800
7FFFFFF000
7FFFFFF000
FFFFFFE000
FF00FFC000
0001FF8000
0001FF8000
0003FF0000
0003FF0000
0007FE0000
000FFC0000
000FFC0000
001FF80000
001FF80000
003FF00000
003FF00000
007FE00000
007FE00000
00FFE00000
01FFC00000
01FFC00000
03FF800000
03FF800000
07FF000000
07FE000000
0FFC07EF80
1FFFFFFF80
1FFFFFFF80
3FFFFFFF80
3FFFFFFF00
7FFFFFFF00
7FFFFFFE00
7FFFFFFC00
FFFFFFF800
03FFFFF000
007FFFC000
001FFF0000
0000E00000
ENDCHAR
STARTCHAR 017F
ENCODING 383
SWIDTH 435 0
DWIDTH 29 0
BBX 33 56 3 -10
BITMAP
0000FFF000
0001FFFE00
0007FFFF00
000FFFFF80
001FFFFF80
007FFFFF80
00FFFFFF80
01FFFFFF80
01FFFFFF80
03FFE0FF80
03FFC07F00
07FF800000
07FF800000
07FF000000
07FF000000
07FF000000
07FE000000
0FFE000000
0FFE000000
0FFE000000
0FFE000000
0FFE000000
0FFE000000
0FFE000000
0FFC000000
0FFC000000
0FFC000000
1FFC000000
1FFC000000
1FFC000000
1FFC000000
1FFC000000
1FF8000000
1FF8000000
1FF8000000
1FF8000000
3FF0000000
3FF0000000
3FF0000000
3FF0000000
7FF0000000
7FE0000000
7FE0000000
7FE0000000
7FE0000000
FFE0000000
FFC0000000
FFC0000000
FFC0000000
FFC0000000
FFC0000000
FFC0000000
FFC0000000
FFC0000000
FF80000000
4000000000
ENDCHAR
STARTCHAR 0180
ENCODING 384
SWIDTH 510 0
DWIDTH 34 0
BBX 34 46 3 0
BITMAP
0007F00000
001FFFE000
00FFFFF800
01FFFFFC00
01FFFFFE00
01FFFFFE00
01FFFFFE00
03FFFFFF00
03FFFFFF00
03FFFFFF00
03FFEFFF80
03FFC3FF00
03FF81FF00
01FF81FF00
01FF81FE00
01FF81FE00
03FF81FE00
03FF83FC00
03FFC7FC00
03FFFFF800
03FFFFE000
03FFFFC000
03FFFFF000
03FFFFFE00
07FFFFFE00
07FFFFFF00
07FFFFFF00
07FFEFFF80
07FFC1FF80
07FFF1FFC0
1FFFF9FFC0
7FFFF9FFC0
7FFFF9FFC0
7FFFF3FF80
7FFFF3FF80
7FFF8FFF80
FFFFFFFF00
0FFFFFFE00
0FFFFFFE00
0FFFFFF800
0FFFFFF000
0FFFFFE000
0FFFFFC000
0FFFFE0000
0FFF800000
0080000000
ENDCHAR
STARTCHAR 0181
ENCODING 385
SWIDTH 675 0
DWIDTH 45 0
BBX 40 46 7 0
BITMAP
00000FD000
000FFFFF80
007FFFFFF0
00FFFFFFF8
01FFFFFFF8
03FFFFFFFC
07FFFFFFF8
0FFFFFFFFC
0FFFFFFFFE
1FFFFFFFFE
3FFFFFBFFE
3FFFFF07FE
7FFFFF03FE
7FC7FF03FC
7F87FF03FC
7F07FF03F8
7F07FF07F8
FF07FF0FF0
FF07FF1FF0
7F0FFFFFE0
7F8FFFFFC0
7FCFFFFF00
7FCFFFFFC0
7FCFFFFFF8
7FCFFFFFFC
7FCFFFFFFC
3FCFFFFFFE
3F8FFFBFFE
1F9FFF07FF
001FFF03FF
001FFF07FF
001FFE07FF
001FFE0FFF
001FFE1FFF
001FFE3FFE
001FFE7FFE
001FFEFFFC
001FFFFFFC
003FFFFFF8
003FFFFFF0
003FFFFFC0
003FFFFF80
003FFFFF00
003FFFF800
001FFF0000
0003000000
ENDCHAR
STARTCHAR 0186
ENCODING 390
SWIDTH 480 0
DWIDTH 32 0
BBX 34 44 4 1
BITMAP
0003FE0000
001FFFC000
007FFFF000
00FFFFFC00
03FFFFFE00
07FFFFFE00
07FFFFFF00
07FFFFFF80
07FFFFFF80
07FFFFFF80
07FFFFFFC0
07FFFFFFC0
028FFFFFC0
00007FFFC0
00003FFFC0
00001FFFC0
00000FFFC0
00000FFF80
00000FFF80
00000FFF80
00000FFF80
00000FFF80
00001FFF00
00003FFF00
18007FFF00
3FE1FFFF00
3FFFFFFF00
7FFFFFFE00
7FFFFFFE00
7FFFFFFC00
7FFFFFFC00
7FFFFFF800
FFFFFFF800
FFFFFFF000
FFFFFFF000
FFFFFFE000
FFFFFFC000
FFFFFFC000
7FFFFF8000
3FFFFF0000
3FFFFE0000
1FFFFC0000
0FFFC00000
03FC000000
ENDCHAR
ENDFONT
